%TF.GenerationSoftware,KiCad,Pcbnew,10.0.1*%
%TF.CreationDate,2026-05-26T17:19:35+01:00*%
%TF.ProjectId,caculateur,63616375-6c61-4746-9575-722e6b696361,1.0*%
%TF.SameCoordinates,Original*%
%TF.FileFunction,Paste,Top*%
%TF.FilePolarity,Positive*%
%FSLAX46Y46*%
G04 Gerber Fmt 4.6, Leading zero omitted, Abs format (unit mm)*
G04 Created by KiCad (PCBNEW 10.0.1) date 2026-05-26 17:19:35*
%MOMM*%
%LPD*%
G01*
G04 APERTURE LIST*
G04 Aperture macros list*
%AMRoundRect*
0 Rectangle with rounded corners*
0 $1 Rounding radius*
0 $2 $3 $4 $5 $6 $7 $8 $9 X,Y pos of 4 corners*
0 Add a 4 corners polygon primitive as box body*
4,1,4,$2,$3,$4,$5,$6,$7,$8,$9,$2,$3,0*
0 Add four circle primitives for the rounded corners*
1,1,$1+$1,$2,$3*
1,1,$1+$1,$4,$5*
1,1,$1+$1,$6,$7*
1,1,$1+$1,$8,$9*
0 Add four rect primitives between the rounded corners*
20,1,$1+$1,$2,$3,$4,$5,0*
20,1,$1+$1,$4,$5,$6,$7,0*
20,1,$1+$1,$6,$7,$8,$9,0*
20,1,$1+$1,$8,$9,$2,$3,0*%
G04 Aperture macros list end*
%ADD10RoundRect,0.250000X-0.337500X-0.475000X0.337500X-0.475000X0.337500X0.475000X-0.337500X0.475000X0*%
%ADD11R,3.940000X5.840000*%
%ADD12RoundRect,0.162500X0.672500X0.162500X-0.672500X0.162500X-0.672500X-0.162500X0.672500X-0.162500X0*%
%ADD13RoundRect,0.075000X-0.700000X-0.075000X0.700000X-0.075000X0.700000X0.075000X-0.700000X0.075000X0*%
%ADD14RoundRect,0.075000X-0.075000X-0.700000X0.075000X-0.700000X0.075000X0.700000X-0.075000X0.700000X0*%
%ADD15RoundRect,0.250000X-0.600000X0.400000X-0.600000X-0.400000X0.600000X-0.400000X0.600000X0.400000X0*%
%ADD16RoundRect,0.250000X0.312500X0.625000X-0.312500X0.625000X-0.312500X-0.625000X0.312500X-0.625000X0*%
%ADD17RoundRect,0.250000X-0.475000X0.337500X-0.475000X-0.337500X0.475000X-0.337500X0.475000X0.337500X0*%
%ADD18RoundRect,0.250000X-0.350000X-0.450000X0.350000X-0.450000X0.350000X0.450000X-0.350000X0.450000X0*%
%ADD19R,1.500000X0.700000*%
%ADD20R,0.700000X1.500000*%
%ADD21RoundRect,0.250000X0.625000X-0.312500X0.625000X0.312500X-0.625000X0.312500X-0.625000X-0.312500X0*%
%ADD22RoundRect,0.250000X-1.750000X-1.000000X1.750000X-1.000000X1.750000X1.000000X-1.750000X1.000000X0*%
%ADD23RoundRect,0.250000X0.350000X0.450000X-0.350000X0.450000X-0.350000X-0.450000X0.350000X-0.450000X0*%
%ADD24RoundRect,0.150000X0.150000X-0.587500X0.150000X0.587500X-0.150000X0.587500X-0.150000X-0.587500X0*%
%ADD25RoundRect,0.250000X1.000000X0.650000X-1.000000X0.650000X-1.000000X-0.650000X1.000000X-0.650000X0*%
%ADD26R,1.300000X0.300000*%
%ADD27R,2.200000X1.800000*%
%ADD28RoundRect,0.250000X-0.450000X0.350000X-0.450000X-0.350000X0.450000X-0.350000X0.450000X0.350000X0*%
%ADD29RoundRect,0.250000X-1.000000X-0.650000X1.000000X-0.650000X1.000000X0.650000X-1.000000X0.650000X0*%
%ADD30C,3.200000*%
%ADD31RoundRect,0.250000X0.450000X-0.350000X0.450000X0.350000X-0.450000X0.350000X-0.450000X-0.350000X0*%
%ADD32RoundRect,0.250000X0.475000X-0.337500X0.475000X0.337500X-0.475000X0.337500X-0.475000X-0.337500X0*%
%ADD33RoundRect,0.250000X-0.445000X0.545000X-0.445000X-0.545000X0.445000X-0.545000X0.445000X0.545000X0*%
%ADD34RoundRect,0.250000X-0.400000X0.550000X-0.400000X-0.550000X0.400000X-0.550000X0.400000X0.550000X0*%
%ADD35R,0.400000X1.000000*%
G04 APERTURE END LIST*
D10*
%TO.C,C10*%
X203780000Y-107800000D03*
X201705000Y-107800000D03*
%TD*%
D11*
%TO.C,R_Shunt_4*%
X124420000Y-80410000D03*
X133570000Y-80410000D03*
%TD*%
D12*
%TO.C,U7*%
X160960000Y-90750000D03*
X160960000Y-89480000D03*
X160960000Y-88210000D03*
X160960000Y-86940000D03*
X160960000Y-85670000D03*
X160960000Y-84400000D03*
X160960000Y-83130000D03*
X160960000Y-81860000D03*
X160960000Y-80590000D03*
X160960000Y-79320000D03*
X151230000Y-79320000D03*
X151230000Y-80590000D03*
X151230000Y-81860000D03*
X151230000Y-83130000D03*
X151230000Y-84400000D03*
X151230000Y-85670000D03*
X151230000Y-86940000D03*
X151230000Y-88210000D03*
X151230000Y-89480000D03*
X151230000Y-90750000D03*
%TD*%
D13*
%TO.C,U2*%
X186825000Y-108250000D03*
X186825000Y-108750000D03*
X186825000Y-109250000D03*
X186825000Y-109750000D03*
X186825000Y-110250000D03*
X186825000Y-110750000D03*
X186825000Y-111250000D03*
X186825000Y-111750000D03*
X186825000Y-112250000D03*
X186825000Y-112750000D03*
X186825000Y-113250000D03*
X186825000Y-113750000D03*
X186825000Y-114250000D03*
X186825000Y-114750000D03*
X186825000Y-115250000D03*
X186825000Y-115750000D03*
D14*
X188750000Y-117675000D03*
X189250000Y-117675000D03*
X189750000Y-117675000D03*
X190250000Y-117675000D03*
X190750000Y-117675000D03*
X191250000Y-117675000D03*
X191750000Y-117675000D03*
X192250000Y-117675000D03*
X192750000Y-117675000D03*
X193250000Y-117675000D03*
X193750000Y-117675000D03*
X194250000Y-117675000D03*
X194750000Y-117675000D03*
X195250000Y-117675000D03*
X195750000Y-117675000D03*
X196250000Y-117675000D03*
D13*
X198175000Y-115750000D03*
X198175000Y-115250000D03*
X198175000Y-114750000D03*
X198175000Y-114250000D03*
X198175000Y-113750000D03*
X198175000Y-113250000D03*
X198175000Y-112750000D03*
X198175000Y-112250000D03*
X198175000Y-111750000D03*
X198175000Y-111250000D03*
X198175000Y-110750000D03*
X198175000Y-110250000D03*
X198175000Y-109750000D03*
X198175000Y-109250000D03*
X198175000Y-108750000D03*
X198175000Y-108250000D03*
D14*
X196250000Y-106325000D03*
X195750000Y-106325000D03*
X195250000Y-106325000D03*
X194750000Y-106325000D03*
X194250000Y-106325000D03*
X193750000Y-106325000D03*
X193250000Y-106325000D03*
X192750000Y-106325000D03*
X192250000Y-106325000D03*
X191750000Y-106325000D03*
X191250000Y-106325000D03*
X190750000Y-106325000D03*
X190250000Y-106325000D03*
X189750000Y-106325000D03*
X189250000Y-106325000D03*
X188750000Y-106325000D03*
%TD*%
D15*
%TO.C,D4*%
X170590000Y-124657500D03*
X170590000Y-128157500D03*
%TD*%
D16*
%TO.C,R56*%
X140430000Y-118950000D03*
X137505000Y-118950000D03*
%TD*%
D17*
%TO.C,C8*%
X196250000Y-121670000D03*
X196250000Y-123745000D03*
%TD*%
D18*
%TO.C,R46*%
X166800000Y-92320000D03*
X168800000Y-92320000D03*
%TD*%
D19*
%TO.C,U10*%
X211350000Y-124100000D03*
X211350000Y-122900000D03*
X211350000Y-121700000D03*
X211350000Y-120500000D03*
X211350000Y-119300000D03*
D20*
X210000000Y-117600000D03*
X208800000Y-117600000D03*
X207600000Y-117600000D03*
X206400000Y-117600000D03*
X205200000Y-117600000D03*
X204000000Y-117600000D03*
D19*
X202650000Y-119300000D03*
X202650000Y-120500000D03*
X202650000Y-121700000D03*
X202650000Y-122950000D03*
X202650000Y-124100000D03*
%TD*%
D17*
%TO.C,C19*%
X182440000Y-107612500D03*
X182440000Y-109687500D03*
%TD*%
D11*
%TO.C,R_Shunt_1*%
X116250000Y-89370000D03*
X107100000Y-89370000D03*
%TD*%
D21*
%TO.C,R37*%
X170420000Y-122077500D03*
X170420000Y-119152500D03*
%TD*%
D22*
%TO.C,C1*%
X208330000Y-79240000D03*
X216330000Y-79240000D03*
%TD*%
D23*
%TO.C,R42*%
X175140000Y-85820000D03*
X173140000Y-85820000D03*
%TD*%
D24*
%TO.C,Q1*%
X189100000Y-81995000D03*
X191000000Y-81995000D03*
X190050000Y-80120000D03*
%TD*%
D25*
%TO.C,D7*%
X169680000Y-84380000D03*
X165680000Y-84380000D03*
%TD*%
D17*
%TO.C,C2*%
X207180000Y-87212500D03*
X207180000Y-89287500D03*
%TD*%
D21*
%TO.C,R27*%
X166750000Y-107777500D03*
X166750000Y-104852500D03*
%TD*%
D26*
%TO.C,J3*%
X191170000Y-130990000D03*
X191170000Y-131490000D03*
X191170000Y-131990000D03*
X191170000Y-132490000D03*
X191170000Y-132990000D03*
X191170000Y-133490000D03*
X191170000Y-133990000D03*
X191170000Y-134490000D03*
D27*
X187920000Y-129090000D03*
X187920000Y-136390000D03*
%TD*%
D23*
%TO.C,R40*%
X175150000Y-87830000D03*
X173150000Y-87830000D03*
%TD*%
D18*
%TO.C,R47*%
X166750000Y-81440000D03*
X168750000Y-81440000D03*
%TD*%
D10*
%TO.C,C6*%
X184285000Y-105180000D03*
X186360000Y-105180000D03*
%TD*%
D28*
%TO.C,R44*%
X164690000Y-77390000D03*
X164690000Y-79390000D03*
%TD*%
D16*
%TO.C,R57*%
X140430000Y-121620000D03*
X137505000Y-121620000D03*
%TD*%
D17*
%TO.C,C21*%
X199890000Y-123062500D03*
X199890000Y-125137500D03*
%TD*%
D25*
%TO.C,D6*%
X170667500Y-95390000D03*
X166667500Y-95390000D03*
%TD*%
D29*
%TO.C,D2*%
X213000000Y-72000000D03*
X217000000Y-72000000D03*
%TD*%
D30*
%TO.C,J1*%
X210050000Y-65500000D03*
X169476000Y-65633000D03*
%TD*%
D31*
%TO.C,R43*%
X173210000Y-83890000D03*
X173210000Y-81890000D03*
%TD*%
D29*
%TO.C,D5*%
X183840000Y-74300000D03*
X187840000Y-74300000D03*
%TD*%
D17*
%TO.C,C11*%
X173010000Y-125202500D03*
X173010000Y-127277500D03*
%TD*%
D28*
%TO.C,R36*%
X173130000Y-119685000D03*
X173130000Y-121685000D03*
%TD*%
D18*
%TO.C,R39*%
X189050000Y-86410000D03*
X191050000Y-86410000D03*
%TD*%
D17*
%TO.C,C20*%
X182460000Y-111652500D03*
X182460000Y-113727500D03*
%TD*%
D25*
%TO.C,D1*%
X209500000Y-72000000D03*
X205500000Y-72000000D03*
%TD*%
D28*
%TO.C,R38*%
X185990000Y-82030000D03*
X185990000Y-84030000D03*
%TD*%
D11*
%TO.C,R_Shunt_2*%
X116250000Y-80590000D03*
X107100000Y-80590000D03*
%TD*%
D32*
%TO.C,C4*%
X207190000Y-93410000D03*
X207190000Y-91335000D03*
%TD*%
D17*
%TO.C,C7*%
X189760000Y-121750000D03*
X189760000Y-123825000D03*
%TD*%
%TO.C,C5*%
X166440000Y-111002500D03*
X166440000Y-113077500D03*
%TD*%
D15*
%TO.C,D3*%
X163820000Y-110307500D03*
X163820000Y-113807500D03*
%TD*%
D33*
%TO.C,C3*%
X207210000Y-95470000D03*
X207210000Y-98350000D03*
%TD*%
D34*
%TO.C,Y1*%
X176940000Y-109080000D03*
X176940000Y-112380000D03*
X178940000Y-112380000D03*
X178940000Y-109080000D03*
%TD*%
D35*
%TO.C,U11*%
X119940000Y-123170000D03*
X120590000Y-123170000D03*
X121240000Y-123170000D03*
X121890000Y-123170000D03*
X122540000Y-123170000D03*
X123190000Y-123170000D03*
X123840000Y-123170000D03*
X124490000Y-123170000D03*
X125140000Y-123170000D03*
X125140000Y-117770000D03*
X124490000Y-117770000D03*
X123840000Y-117770000D03*
X123190000Y-117770000D03*
X122540000Y-117770000D03*
X121890000Y-117770000D03*
X121240000Y-117770000D03*
X120590000Y-117770000D03*
X119940000Y-117770000D03*
%TD*%
D28*
%TO.C,R26*%
X163860000Y-105335000D03*
X163860000Y-107335000D03*
%TD*%
D31*
%TO.C,R9*%
X190800000Y-102980000D03*
X190800000Y-100980000D03*
%TD*%
D18*
%TO.C,R45*%
X166760000Y-79280000D03*
X168760000Y-79280000D03*
%TD*%
D10*
%TO.C,C12*%
X155072500Y-75830000D03*
X157147500Y-75830000D03*
%TD*%
D31*
%TO.C,R41*%
X173190000Y-91790000D03*
X173190000Y-89790000D03*
%TD*%
D11*
%TO.C,R_Shunt_3*%
X124545000Y-88890000D03*
X133695000Y-88890000D03*
%TD*%
D17*
%TO.C,C9*%
X184780000Y-116892500D03*
X184780000Y-118967500D03*
%TD*%
M02*
