M48
; DRILL file KiCad 10.0.1 date 2026-05-26T17:19:42
; FORMAT={-:-/ absolute / metric / decimal}
; #@! TF.CreationDate,2026-05-26T17:19:42+01:00
; #@! TF.GenerationSoftware,Kicad,Pcbnew,10.0.1
; #@! TF.FileFunction,Plated,1,2,PTH
FMAT,2
METRIC
; #@! TA.AperFunction,Plated,PTH,ViaDrill
T1C0.300
; #@! TA.AperFunction,Plated,PTH,ViaDrill
T2C0.500
; #@! TA.AperFunction,Plated,PTH,ViaDrill
T3C0.700
; #@! TA.AperFunction,Plated,PTH,ComponentDrill
T4C0.991
; #@! TA.AperFunction,Plated,PTH,ComponentDrill
T5C1.000
; #@! TA.AperFunction,Plated,PTH,ComponentDrill
T6C1.194
; #@! TA.AperFunction,Plated,PTH,ComponentDrill
T7C1.499
; #@! TA.AperFunction,Plated,PTH,ComponentDrill
T8C1.600
%
G90
G05
T1
X98.425Y-106.255
X99.31Y-99.89
X101.32Y-126.81
X102.38Y-100.04
X102.4Y-109.84
X103.7Y-118.54
X104.85Y-118.52
X105.93Y-118.52
X106.93Y-118.5
X109.7Y-124.97
X112.01Y-120.28
X112.64Y-132.85
X114.48Y-120.22
X118.88Y-129.07
X119.07Y-105.45
X119.28Y-113.95
X119.92Y-116.06
X123.14Y-114.697
X123.84Y-118.703
X123.97Y-125.5
X124.54Y-119.62
X124.925Y-127.025
X131.6Y-111.89
X131.78Y-108.66
X134.02Y-116.03
X134.565Y-121.655
X134.715Y-118.965
X139.27Y-128.53
X139.29Y-130.3
X139.33Y-132.01
X139.68Y-131.17
X139.72Y-129.3
X139.74Y-127.82
X140.43Y-124.49
X140.73Y-114.13
X141.76Y-125.06
X152.2Y-131.76
X153.48Y-86.24
X153.76Y-131.75
X154.72Y-86.62
X155.3Y-131.77
X155.35Y-103.67
X155.5Y-122.9
X155.54Y-129.3
X155.97Y-104.78
X156.08Y-127.73
X156.13Y-122.28
X156.19Y-101.91
X156.32Y-71.15
X156.33Y-72.16
X157.13Y-131.76
X157.29Y-93.52
X157.35Y-105.11
X157.37Y-71.17
X157.39Y-72.12
X157.97Y-122.98
X158.22Y-101.85
X158.43Y-103.25
X158.45Y-71.15
X158.47Y-72.08
X158.91Y-131.75
X159.33Y-103.834
X159.34Y-105.04
X159.46Y-71.15
X159.5Y-72.08
X159.53Y-80.65
X159.54Y-82.56
X159.63Y-91.85
X159.64Y-122.98
X159.69Y-96.59
X159.73Y-93.93
X159.83Y-95.233
X159.85Y-98.64
X160.31Y-103.834
X160.34Y-105.04
X160.36Y-107.22
X160.42Y-71.18
X160.45Y-72.08
X160.72Y-131.76
X161.28Y-103.834
X161.29Y-105.04
X161.3Y-107.16
X161.49Y-123.0
X161.58Y-71.22
X161.59Y-72.1
X162.31Y-105.11
X162.32Y-131.75
X162.57Y-101.03
X162.77Y-91.315
X163.26Y-122.98
X163.77Y-69.14
X164.0Y-131.75
X164.99Y-69.184
X165.07Y-123.0
X165.13Y-64.1
X165.15Y-65.98
X165.16Y-65.06
X165.41Y-131.76
X165.53Y-136.45
X165.8Y-102.44
X165.902Y-103.234
X166.03Y-64.09
X166.08Y-65.04
X166.09Y-65.93
X166.1Y-71.29
X166.36Y-129.3
X166.37Y-115.04
X166.38Y-122.98
X166.62Y-136.45
X166.81Y-131.74
X166.97Y-64.11
X166.98Y-65.07
X166.98Y-115.68
X167.0Y-65.96
X167.86Y-136.45
X168.02Y-111.01
X168.13Y-131.73
X168.64Y-113.39
X168.87Y-136.45
X169.42Y-129.36
X169.46Y-114.24
X169.59Y-89.48
X169.83Y-136.45
X170.11Y-131.76
X170.51Y-79.19
X170.52Y-72.24
X170.55Y-78.4
X170.56Y-72.99
X171.13Y-64.1
X171.31Y-79.19
X171.33Y-78.4
X171.37Y-72.19
X171.38Y-73.02
X171.52Y-131.76
X171.99Y-64.08
X172.06Y-65.09
X172.08Y-65.99
X172.86Y-131.76
X172.98Y-116.57
X173.919Y-117.509
X174.19Y-131.76
X174.45Y-114.59
X174.84Y-118.21
X175.43Y-107.86
X175.7Y-131.76
X176.88Y-84.67
X176.88Y-88.84
X177.09Y-131.73
X177.1Y-122.83
X177.59Y-84.68
X177.59Y-88.84
X177.652Y-105.83
X178.07Y-123.6
X178.09Y-106.5
X178.16Y-119.5
X178.22Y-131.74
X178.28Y-88.82
X178.29Y-84.65
X179.17Y-79.9
X179.84Y-131.13
X179.91Y-76.61
X179.91Y-78.9
X180.33Y-125.03
X180.51Y-102.38
X180.51Y-114.6
X180.55Y-100.85
X180.571Y-103.177
X180.685Y-130.155
X180.73Y-107.52
X180.73Y-109.19
X180.74Y-122.13
X180.764Y-101.621
X180.81Y-123.25
X181.23Y-125.07
X181.34Y-104.252
X181.68Y-128.91
X181.94Y-103.24
X182.235Y-125.038
X182.54Y-103.861
X182.57Y-118.04
X182.6Y-128.04
X182.77Y-68.3
X183.089Y-124.959
X183.7Y-108.37
X183.99Y-128.23
X184.3Y-111.78
X184.32Y-102.02
X184.33Y-113.25
X184.549Y-124.359
X184.59Y-107.87
X184.606Y-106.438
X184.86Y-112.36
X185.04Y-107.11
X185.329Y-104.06
X185.38Y-115.25
X185.86Y-125.17
X185.865Y-107.13
X185.89Y-61.34
X186.172Y-124.428
X186.19Y-126.38
X186.225Y-123.532
X186.788Y-103.276
X187.15Y-90.31
X187.18Y-93.86
X187.18Y-99.03
X187.18Y-99.04
X187.18Y-101.13
X187.21Y-96.46
X187.24Y-85.24
X187.26Y-87.72
X187.31Y-82.76
X187.56Y-97.688
X187.58Y-105.12
X187.62Y-95.188
X187.63Y-92.608
X187.68Y-107.105
X187.934Y-120.974
X188.24Y-111.23
X188.28Y-114.85
X188.29Y-115.75
X188.45Y-113.49
X188.56Y-102.75
X188.84Y-110.48
X188.95Y-69.85
X189.14Y-115.74
X189.24Y-104.36
X189.44Y-107.61
X189.468Y-113.65
X189.489Y-111.321
X190.25Y-107.63
X190.289Y-111.341
X190.34Y-113.649
X191.14Y-113.65
X191.23Y-111.36
X191.25Y-107.65
X191.75Y-104.69
X191.99Y-67.98
X192.02Y-113.65
X192.046Y-102.58
X192.139Y-103.48
X192.22Y-111.38
X192.25Y-107.65
X192.25Y-115.83
X192.475Y-104.351
X192.64Y-105.144
X192.9Y-114.85
X192.92Y-113.65
X192.968Y-102.612
X193.16Y-119.46
X193.24Y-131.08
X193.28Y-91.03
X193.3Y-89.16
X193.35Y-128.26
X193.62Y-61.2
X193.76Y-120.73
X194.28Y-116.43
X194.644Y-110.157
X195.34Y-102.52
X195.36Y-104.3
X195.64Y-110.09
X195.65Y-113.65
X195.65Y-119.629
X196.25Y-107.65
X196.57Y-128.24
X196.85Y-115.25
X196.86Y-110.66
X197.06Y-102.56
X197.86Y-102.538
X198.2Y-120.82
X198.73Y-75.86
X198.73Y-77.24
X198.77Y-74.47
X198.81Y-71.87
X198.81Y-73.19
X199.969Y-112.755
X200.15Y-120.26
X200.16Y-118.01
X200.16Y-119.14
X200.21Y-127.64
X200.416Y-113.43
X200.43Y-116.75
X200.43Y-128.96
X200.98Y-104.72
X201.02Y-114.01
X201.19Y-115.53
X201.57Y-109.85
X201.62Y-129.97
X201.95Y-95.15
X202.49Y-78.81
X202.54Y-77.48
X202.54Y-115.31
X202.57Y-75.93
X202.59Y-71.7
X202.59Y-74.69
X202.62Y-73.19
X202.91Y-129.98
X203.62Y-110.25
X204.0Y-112.95
X204.16Y-130.0
X205.34Y-130.02
X206.042Y-110.75
X206.35Y-113.82
X206.49Y-107.66
X206.62Y-130.01
X207.0Y-115.11
X207.84Y-129.98
X208.66Y-115.76
X209.34Y-130.0
X209.89Y-74.41
X210.58Y-115.23
X210.91Y-74.4
X211.14Y-130.02
X211.86Y-115.24
X211.96Y-74.39
X212.61Y-130.02
X212.88Y-74.4
X213.08Y-115.88
X213.16Y-117.54
X213.16Y-119.27
X213.2Y-128.72
X213.21Y-121.07
X213.24Y-122.64
X213.24Y-124.0
X213.26Y-125.6
X213.26Y-127.28
X213.87Y-74.4
X216.98Y-118.6
X216.99Y-119.65
X216.99Y-120.69
X216.99Y-121.72
X217.02Y-116.69
X217.02Y-117.61
X217.23Y-111.69
X217.24Y-110.76
X217.25Y-109.77
X217.27Y-108.87
X217.28Y-106.95
X217.28Y-107.92
X217.35Y-114.73
T2
X99.28Y-124.53
X145.33Y-69.95
X162.4Y-77.4
X178.4Y-77.92
X190.99Y-77.92
X195.33Y-77.92
T3
X137.65Y-73.82
T4
X97.19Y-109.14
X103.99Y-97.04
X117.58Y-108.76
X124.38Y-96.66
X137.45Y-109.0
X144.25Y-96.9
T5
X109.01Y-64.598
X111.52Y-69.52
X114.035Y-64.598
X116.57Y-69.52
X119.06Y-64.598
X121.62Y-69.52
X124.085Y-64.598
X126.695Y-69.52
X129.08Y-64.598
X131.72Y-69.52
X134.06Y-64.598
X136.669Y-69.514
X139.107Y-64.598
X141.635Y-69.5
X144.106Y-64.598
X174.515Y-62.931
X174.515Y-65.471
X177.055Y-62.931
X177.055Y-65.471
X179.595Y-62.931
X179.595Y-65.471
X182.135Y-62.931
X182.135Y-65.471
X184.675Y-62.931
X184.675Y-65.471
X187.215Y-62.931
X187.215Y-65.471
X189.755Y-62.931
X189.755Y-65.471
X192.295Y-62.931
X192.295Y-65.471
X194.835Y-62.931
X194.835Y-65.471
X197.375Y-62.931
X197.375Y-65.471
X199.915Y-62.931
X199.915Y-65.471
X202.455Y-62.931
X202.455Y-65.471
X204.995Y-62.931
X204.995Y-65.471
X211.94Y-88.3
X211.94Y-90.84
X211.94Y-93.38
T6
X100.59Y-97.04
X100.59Y-109.14
X120.98Y-96.66
X120.98Y-108.76
X140.85Y-96.9
X140.85Y-109.0
T7
X96.64Y-97.84
X105.14Y-108.34
X117.03Y-97.46
X125.53Y-107.96
X136.9Y-97.7
X145.4Y-108.2
T8
X95.24Y-106.49
X97.24Y-102.34
X104.54Y-103.84
X105.94Y-99.69
X115.63Y-106.11
X117.63Y-101.96
X124.93Y-103.46
X126.33Y-99.31
X135.5Y-106.35
X137.5Y-102.2
X144.8Y-103.7
X146.2Y-99.55
M30
