%TF.GenerationSoftware,KiCad,Pcbnew,10.0.1*%
%TF.CreationDate,2026-05-26T17:19:35+01:00*%
%TF.ProjectId,caculateur,63616375-6c61-4746-9575-722e6b696361,1.0*%
%TF.SameCoordinates,Original*%
%TF.FileFunction,Legend,Bot*%
%TF.FilePolarity,Positive*%
%FSLAX46Y46*%
G04 Gerber Fmt 4.6, Leading zero omitted, Abs format (unit mm)*
G04 Created by KiCad (PCBNEW 10.0.1) date 2026-05-26 17:19:35*
%MOMM*%
%LPD*%
G01*
G04 APERTURE LIST*
%ADD10C,0.150000*%
%ADD11C,0.508000*%
%ADD12C,0.120000*%
%ADD13C,3.200000*%
G04 APERTURE END LIST*
D10*
X113687857Y-133389819D02*
X114021190Y-132913628D01*
X114259285Y-133389819D02*
X114259285Y-132389819D01*
X114259285Y-132389819D02*
X113878333Y-132389819D01*
X113878333Y-132389819D02*
X113783095Y-132437438D01*
X113783095Y-132437438D02*
X113735476Y-132485057D01*
X113735476Y-132485057D02*
X113687857Y-132580295D01*
X113687857Y-132580295D02*
X113687857Y-132723152D01*
X113687857Y-132723152D02*
X113735476Y-132818390D01*
X113735476Y-132818390D02*
X113783095Y-132866009D01*
X113783095Y-132866009D02*
X113878333Y-132913628D01*
X113878333Y-132913628D02*
X114259285Y-132913628D01*
X112830714Y-132723152D02*
X112830714Y-133389819D01*
X113068809Y-132342200D02*
X113306904Y-133056485D01*
X113306904Y-133056485D02*
X112687857Y-133056485D01*
X112164047Y-132818390D02*
X112259285Y-132770771D01*
X112259285Y-132770771D02*
X112306904Y-132723152D01*
X112306904Y-132723152D02*
X112354523Y-132627914D01*
X112354523Y-132627914D02*
X112354523Y-132580295D01*
X112354523Y-132580295D02*
X112306904Y-132485057D01*
X112306904Y-132485057D02*
X112259285Y-132437438D01*
X112259285Y-132437438D02*
X112164047Y-132389819D01*
X112164047Y-132389819D02*
X111973571Y-132389819D01*
X111973571Y-132389819D02*
X111878333Y-132437438D01*
X111878333Y-132437438D02*
X111830714Y-132485057D01*
X111830714Y-132485057D02*
X111783095Y-132580295D01*
X111783095Y-132580295D02*
X111783095Y-132627914D01*
X111783095Y-132627914D02*
X111830714Y-132723152D01*
X111830714Y-132723152D02*
X111878333Y-132770771D01*
X111878333Y-132770771D02*
X111973571Y-132818390D01*
X111973571Y-132818390D02*
X112164047Y-132818390D01*
X112164047Y-132818390D02*
X112259285Y-132866009D01*
X112259285Y-132866009D02*
X112306904Y-132913628D01*
X112306904Y-132913628D02*
X112354523Y-133008866D01*
X112354523Y-133008866D02*
X112354523Y-133199342D01*
X112354523Y-133199342D02*
X112306904Y-133294580D01*
X112306904Y-133294580D02*
X112259285Y-133342200D01*
X112259285Y-133342200D02*
X112164047Y-133389819D01*
X112164047Y-133389819D02*
X111973571Y-133389819D01*
X111973571Y-133389819D02*
X111878333Y-133342200D01*
X111878333Y-133342200D02*
X111830714Y-133294580D01*
X111830714Y-133294580D02*
X111783095Y-133199342D01*
X111783095Y-133199342D02*
X111783095Y-133008866D01*
X111783095Y-133008866D02*
X111830714Y-132913628D01*
X111830714Y-132913628D02*
X111878333Y-132866009D01*
X111878333Y-132866009D02*
X111973571Y-132818390D01*
X176002857Y-98222319D02*
X176336190Y-97746128D01*
X176574285Y-98222319D02*
X176574285Y-97222319D01*
X176574285Y-97222319D02*
X176193333Y-97222319D01*
X176193333Y-97222319D02*
X176098095Y-97269938D01*
X176098095Y-97269938D02*
X176050476Y-97317557D01*
X176050476Y-97317557D02*
X176002857Y-97412795D01*
X176002857Y-97412795D02*
X176002857Y-97555652D01*
X176002857Y-97555652D02*
X176050476Y-97650890D01*
X176050476Y-97650890D02*
X176098095Y-97698509D01*
X176098095Y-97698509D02*
X176193333Y-97746128D01*
X176193333Y-97746128D02*
X176574285Y-97746128D01*
X175669523Y-97222319D02*
X175050476Y-97222319D01*
X175050476Y-97222319D02*
X175383809Y-97603271D01*
X175383809Y-97603271D02*
X175240952Y-97603271D01*
X175240952Y-97603271D02*
X175145714Y-97650890D01*
X175145714Y-97650890D02*
X175098095Y-97698509D01*
X175098095Y-97698509D02*
X175050476Y-97793747D01*
X175050476Y-97793747D02*
X175050476Y-98031842D01*
X175050476Y-98031842D02*
X175098095Y-98127080D01*
X175098095Y-98127080D02*
X175145714Y-98174700D01*
X175145714Y-98174700D02*
X175240952Y-98222319D01*
X175240952Y-98222319D02*
X175526666Y-98222319D01*
X175526666Y-98222319D02*
X175621904Y-98174700D01*
X175621904Y-98174700D02*
X175669523Y-98127080D01*
X174431428Y-97222319D02*
X174336190Y-97222319D01*
X174336190Y-97222319D02*
X174240952Y-97269938D01*
X174240952Y-97269938D02*
X174193333Y-97317557D01*
X174193333Y-97317557D02*
X174145714Y-97412795D01*
X174145714Y-97412795D02*
X174098095Y-97603271D01*
X174098095Y-97603271D02*
X174098095Y-97841366D01*
X174098095Y-97841366D02*
X174145714Y-98031842D01*
X174145714Y-98031842D02*
X174193333Y-98127080D01*
X174193333Y-98127080D02*
X174240952Y-98174700D01*
X174240952Y-98174700D02*
X174336190Y-98222319D01*
X174336190Y-98222319D02*
X174431428Y-98222319D01*
X174431428Y-98222319D02*
X174526666Y-98174700D01*
X174526666Y-98174700D02*
X174574285Y-98127080D01*
X174574285Y-98127080D02*
X174621904Y-98031842D01*
X174621904Y-98031842D02*
X174669523Y-97841366D01*
X174669523Y-97841366D02*
X174669523Y-97603271D01*
X174669523Y-97603271D02*
X174621904Y-97412795D01*
X174621904Y-97412795D02*
X174574285Y-97317557D01*
X174574285Y-97317557D02*
X174526666Y-97269938D01*
X174526666Y-97269938D02*
X174431428Y-97222319D01*
X182036666Y-86934819D02*
X182369999Y-86458628D01*
X182608094Y-86934819D02*
X182608094Y-85934819D01*
X182608094Y-85934819D02*
X182227142Y-85934819D01*
X182227142Y-85934819D02*
X182131904Y-85982438D01*
X182131904Y-85982438D02*
X182084285Y-86030057D01*
X182084285Y-86030057D02*
X182036666Y-86125295D01*
X182036666Y-86125295D02*
X182036666Y-86268152D01*
X182036666Y-86268152D02*
X182084285Y-86363390D01*
X182084285Y-86363390D02*
X182131904Y-86411009D01*
X182131904Y-86411009D02*
X182227142Y-86458628D01*
X182227142Y-86458628D02*
X182608094Y-86458628D01*
X181703332Y-85934819D02*
X181036666Y-85934819D01*
X181036666Y-85934819D02*
X181465237Y-86934819D01*
X182152857Y-95577319D02*
X182486190Y-95101128D01*
X182724285Y-95577319D02*
X182724285Y-94577319D01*
X182724285Y-94577319D02*
X182343333Y-94577319D01*
X182343333Y-94577319D02*
X182248095Y-94624938D01*
X182248095Y-94624938D02*
X182200476Y-94672557D01*
X182200476Y-94672557D02*
X182152857Y-94767795D01*
X182152857Y-94767795D02*
X182152857Y-94910652D01*
X182152857Y-94910652D02*
X182200476Y-95005890D01*
X182200476Y-95005890D02*
X182248095Y-95053509D01*
X182248095Y-95053509D02*
X182343333Y-95101128D01*
X182343333Y-95101128D02*
X182724285Y-95101128D01*
X181200476Y-95577319D02*
X181771904Y-95577319D01*
X181486190Y-95577319D02*
X181486190Y-94577319D01*
X181486190Y-94577319D02*
X181581428Y-94720176D01*
X181581428Y-94720176D02*
X181676666Y-94815414D01*
X181676666Y-94815414D02*
X181771904Y-94863033D01*
X180248095Y-95577319D02*
X180819523Y-95577319D01*
X180533809Y-95577319D02*
X180533809Y-94577319D01*
X180533809Y-94577319D02*
X180629047Y-94720176D01*
X180629047Y-94720176D02*
X180724285Y-94815414D01*
X180724285Y-94815414D02*
X180819523Y-94863033D01*
X175952857Y-87034819D02*
X176286190Y-86558628D01*
X176524285Y-87034819D02*
X176524285Y-86034819D01*
X176524285Y-86034819D02*
X176143333Y-86034819D01*
X176143333Y-86034819D02*
X176048095Y-86082438D01*
X176048095Y-86082438D02*
X176000476Y-86130057D01*
X176000476Y-86130057D02*
X175952857Y-86225295D01*
X175952857Y-86225295D02*
X175952857Y-86368152D01*
X175952857Y-86368152D02*
X176000476Y-86463390D01*
X176000476Y-86463390D02*
X176048095Y-86511009D01*
X176048095Y-86511009D02*
X176143333Y-86558628D01*
X176143333Y-86558628D02*
X176524285Y-86558628D01*
X175571904Y-86130057D02*
X175524285Y-86082438D01*
X175524285Y-86082438D02*
X175429047Y-86034819D01*
X175429047Y-86034819D02*
X175190952Y-86034819D01*
X175190952Y-86034819D02*
X175095714Y-86082438D01*
X175095714Y-86082438D02*
X175048095Y-86130057D01*
X175048095Y-86130057D02*
X175000476Y-86225295D01*
X175000476Y-86225295D02*
X175000476Y-86320533D01*
X175000476Y-86320533D02*
X175048095Y-86463390D01*
X175048095Y-86463390D02*
X175619523Y-87034819D01*
X175619523Y-87034819D02*
X175000476Y-87034819D01*
X174381428Y-86034819D02*
X174286190Y-86034819D01*
X174286190Y-86034819D02*
X174190952Y-86082438D01*
X174190952Y-86082438D02*
X174143333Y-86130057D01*
X174143333Y-86130057D02*
X174095714Y-86225295D01*
X174095714Y-86225295D02*
X174048095Y-86415771D01*
X174048095Y-86415771D02*
X174048095Y-86653866D01*
X174048095Y-86653866D02*
X174095714Y-86844342D01*
X174095714Y-86844342D02*
X174143333Y-86939580D01*
X174143333Y-86939580D02*
X174190952Y-86987200D01*
X174190952Y-86987200D02*
X174286190Y-87034819D01*
X174286190Y-87034819D02*
X174381428Y-87034819D01*
X174381428Y-87034819D02*
X174476666Y-86987200D01*
X174476666Y-86987200D02*
X174524285Y-86939580D01*
X174524285Y-86939580D02*
X174571904Y-86844342D01*
X174571904Y-86844342D02*
X174619523Y-86653866D01*
X174619523Y-86653866D02*
X174619523Y-86415771D01*
X174619523Y-86415771D02*
X174571904Y-86225295D01*
X174571904Y-86225295D02*
X174524285Y-86130057D01*
X174524285Y-86130057D02*
X174476666Y-86082438D01*
X174476666Y-86082438D02*
X174381428Y-86034819D01*
X154492857Y-89504819D02*
X154826190Y-89028628D01*
X155064285Y-89504819D02*
X155064285Y-88504819D01*
X155064285Y-88504819D02*
X154683333Y-88504819D01*
X154683333Y-88504819D02*
X154588095Y-88552438D01*
X154588095Y-88552438D02*
X154540476Y-88600057D01*
X154540476Y-88600057D02*
X154492857Y-88695295D01*
X154492857Y-88695295D02*
X154492857Y-88838152D01*
X154492857Y-88838152D02*
X154540476Y-88933390D01*
X154540476Y-88933390D02*
X154588095Y-88981009D01*
X154588095Y-88981009D02*
X154683333Y-89028628D01*
X154683333Y-89028628D02*
X155064285Y-89028628D01*
X154111904Y-88600057D02*
X154064285Y-88552438D01*
X154064285Y-88552438D02*
X153969047Y-88504819D01*
X153969047Y-88504819D02*
X153730952Y-88504819D01*
X153730952Y-88504819D02*
X153635714Y-88552438D01*
X153635714Y-88552438D02*
X153588095Y-88600057D01*
X153588095Y-88600057D02*
X153540476Y-88695295D01*
X153540476Y-88695295D02*
X153540476Y-88790533D01*
X153540476Y-88790533D02*
X153588095Y-88933390D01*
X153588095Y-88933390D02*
X154159523Y-89504819D01*
X154159523Y-89504819D02*
X153540476Y-89504819D01*
X152635714Y-88504819D02*
X153111904Y-88504819D01*
X153111904Y-88504819D02*
X153159523Y-88981009D01*
X153159523Y-88981009D02*
X153111904Y-88933390D01*
X153111904Y-88933390D02*
X153016666Y-88885771D01*
X153016666Y-88885771D02*
X152778571Y-88885771D01*
X152778571Y-88885771D02*
X152683333Y-88933390D01*
X152683333Y-88933390D02*
X152635714Y-88981009D01*
X152635714Y-88981009D02*
X152588095Y-89076247D01*
X152588095Y-89076247D02*
X152588095Y-89314342D01*
X152588095Y-89314342D02*
X152635714Y-89409580D01*
X152635714Y-89409580D02*
X152683333Y-89457200D01*
X152683333Y-89457200D02*
X152778571Y-89504819D01*
X152778571Y-89504819D02*
X153016666Y-89504819D01*
X153016666Y-89504819D02*
X153111904Y-89457200D01*
X153111904Y-89457200D02*
X153159523Y-89409580D01*
X203552857Y-95647319D02*
X203886190Y-95171128D01*
X204124285Y-95647319D02*
X204124285Y-94647319D01*
X204124285Y-94647319D02*
X203743333Y-94647319D01*
X203743333Y-94647319D02*
X203648095Y-94694938D01*
X203648095Y-94694938D02*
X203600476Y-94742557D01*
X203600476Y-94742557D02*
X203552857Y-94837795D01*
X203552857Y-94837795D02*
X203552857Y-94980652D01*
X203552857Y-94980652D02*
X203600476Y-95075890D01*
X203600476Y-95075890D02*
X203648095Y-95123509D01*
X203648095Y-95123509D02*
X203743333Y-95171128D01*
X203743333Y-95171128D02*
X204124285Y-95171128D01*
X202600476Y-95647319D02*
X203171904Y-95647319D01*
X202886190Y-95647319D02*
X202886190Y-94647319D01*
X202886190Y-94647319D02*
X202981428Y-94790176D01*
X202981428Y-94790176D02*
X203076666Y-94885414D01*
X203076666Y-94885414D02*
X203171904Y-94933033D01*
X201695714Y-94647319D02*
X202171904Y-94647319D01*
X202171904Y-94647319D02*
X202219523Y-95123509D01*
X202219523Y-95123509D02*
X202171904Y-95075890D01*
X202171904Y-95075890D02*
X202076666Y-95028271D01*
X202076666Y-95028271D02*
X201838571Y-95028271D01*
X201838571Y-95028271D02*
X201743333Y-95075890D01*
X201743333Y-95075890D02*
X201695714Y-95123509D01*
X201695714Y-95123509D02*
X201648095Y-95218747D01*
X201648095Y-95218747D02*
X201648095Y-95456842D01*
X201648095Y-95456842D02*
X201695714Y-95552080D01*
X201695714Y-95552080D02*
X201743333Y-95599700D01*
X201743333Y-95599700D02*
X201838571Y-95647319D01*
X201838571Y-95647319D02*
X202076666Y-95647319D01*
X202076666Y-95647319D02*
X202171904Y-95599700D01*
X202171904Y-95599700D02*
X202219523Y-95552080D01*
X175932857Y-90784819D02*
X176266190Y-90308628D01*
X176504285Y-90784819D02*
X176504285Y-89784819D01*
X176504285Y-89784819D02*
X176123333Y-89784819D01*
X176123333Y-89784819D02*
X176028095Y-89832438D01*
X176028095Y-89832438D02*
X175980476Y-89880057D01*
X175980476Y-89880057D02*
X175932857Y-89975295D01*
X175932857Y-89975295D02*
X175932857Y-90118152D01*
X175932857Y-90118152D02*
X175980476Y-90213390D01*
X175980476Y-90213390D02*
X176028095Y-90261009D01*
X176028095Y-90261009D02*
X176123333Y-90308628D01*
X176123333Y-90308628D02*
X176504285Y-90308628D01*
X175551904Y-89880057D02*
X175504285Y-89832438D01*
X175504285Y-89832438D02*
X175409047Y-89784819D01*
X175409047Y-89784819D02*
X175170952Y-89784819D01*
X175170952Y-89784819D02*
X175075714Y-89832438D01*
X175075714Y-89832438D02*
X175028095Y-89880057D01*
X175028095Y-89880057D02*
X174980476Y-89975295D01*
X174980476Y-89975295D02*
X174980476Y-90070533D01*
X174980476Y-90070533D02*
X175028095Y-90213390D01*
X175028095Y-90213390D02*
X175599523Y-90784819D01*
X175599523Y-90784819D02*
X174980476Y-90784819D01*
X174028095Y-90784819D02*
X174599523Y-90784819D01*
X174313809Y-90784819D02*
X174313809Y-89784819D01*
X174313809Y-89784819D02*
X174409047Y-89927676D01*
X174409047Y-89927676D02*
X174504285Y-90022914D01*
X174504285Y-90022914D02*
X174599523Y-90070533D01*
X176012857Y-84604819D02*
X176346190Y-84128628D01*
X176584285Y-84604819D02*
X176584285Y-83604819D01*
X176584285Y-83604819D02*
X176203333Y-83604819D01*
X176203333Y-83604819D02*
X176108095Y-83652438D01*
X176108095Y-83652438D02*
X176060476Y-83700057D01*
X176060476Y-83700057D02*
X176012857Y-83795295D01*
X176012857Y-83795295D02*
X176012857Y-83938152D01*
X176012857Y-83938152D02*
X176060476Y-84033390D01*
X176060476Y-84033390D02*
X176108095Y-84081009D01*
X176108095Y-84081009D02*
X176203333Y-84128628D01*
X176203333Y-84128628D02*
X176584285Y-84128628D01*
X175060476Y-84604819D02*
X175631904Y-84604819D01*
X175346190Y-84604819D02*
X175346190Y-83604819D01*
X175346190Y-83604819D02*
X175441428Y-83747676D01*
X175441428Y-83747676D02*
X175536666Y-83842914D01*
X175536666Y-83842914D02*
X175631904Y-83890533D01*
X174584285Y-84604819D02*
X174393809Y-84604819D01*
X174393809Y-84604819D02*
X174298571Y-84557200D01*
X174298571Y-84557200D02*
X174250952Y-84509580D01*
X174250952Y-84509580D02*
X174155714Y-84366723D01*
X174155714Y-84366723D02*
X174108095Y-84176247D01*
X174108095Y-84176247D02*
X174108095Y-83795295D01*
X174108095Y-83795295D02*
X174155714Y-83700057D01*
X174155714Y-83700057D02*
X174203333Y-83652438D01*
X174203333Y-83652438D02*
X174298571Y-83604819D01*
X174298571Y-83604819D02*
X174489047Y-83604819D01*
X174489047Y-83604819D02*
X174584285Y-83652438D01*
X174584285Y-83652438D02*
X174631904Y-83700057D01*
X174631904Y-83700057D02*
X174679523Y-83795295D01*
X174679523Y-83795295D02*
X174679523Y-84033390D01*
X174679523Y-84033390D02*
X174631904Y-84128628D01*
X174631904Y-84128628D02*
X174584285Y-84176247D01*
X174584285Y-84176247D02*
X174489047Y-84223866D01*
X174489047Y-84223866D02*
X174298571Y-84223866D01*
X174298571Y-84223866D02*
X174203333Y-84176247D01*
X174203333Y-84176247D02*
X174155714Y-84128628D01*
X174155714Y-84128628D02*
X174108095Y-84033390D01*
X202556666Y-81764819D02*
X202889999Y-81288628D01*
X203128094Y-81764819D02*
X203128094Y-80764819D01*
X203128094Y-80764819D02*
X202747142Y-80764819D01*
X202747142Y-80764819D02*
X202651904Y-80812438D01*
X202651904Y-80812438D02*
X202604285Y-80860057D01*
X202604285Y-80860057D02*
X202556666Y-80955295D01*
X202556666Y-80955295D02*
X202556666Y-81098152D01*
X202556666Y-81098152D02*
X202604285Y-81193390D01*
X202604285Y-81193390D02*
X202651904Y-81241009D01*
X202651904Y-81241009D02*
X202747142Y-81288628D01*
X202747142Y-81288628D02*
X203128094Y-81288628D01*
X201604285Y-81764819D02*
X202175713Y-81764819D01*
X201889999Y-81764819D02*
X201889999Y-80764819D01*
X201889999Y-80764819D02*
X201985237Y-80907676D01*
X201985237Y-80907676D02*
X202080475Y-81002914D01*
X202080475Y-81002914D02*
X202175713Y-81050533D01*
X94297857Y-128689819D02*
X94631190Y-128213628D01*
X94869285Y-128689819D02*
X94869285Y-127689819D01*
X94869285Y-127689819D02*
X94488333Y-127689819D01*
X94488333Y-127689819D02*
X94393095Y-127737438D01*
X94393095Y-127737438D02*
X94345476Y-127785057D01*
X94345476Y-127785057D02*
X94297857Y-127880295D01*
X94297857Y-127880295D02*
X94297857Y-128023152D01*
X94297857Y-128023152D02*
X94345476Y-128118390D01*
X94345476Y-128118390D02*
X94393095Y-128166009D01*
X94393095Y-128166009D02*
X94488333Y-128213628D01*
X94488333Y-128213628D02*
X94869285Y-128213628D01*
X93393095Y-127689819D02*
X93869285Y-127689819D01*
X93869285Y-127689819D02*
X93916904Y-128166009D01*
X93916904Y-128166009D02*
X93869285Y-128118390D01*
X93869285Y-128118390D02*
X93774047Y-128070771D01*
X93774047Y-128070771D02*
X93535952Y-128070771D01*
X93535952Y-128070771D02*
X93440714Y-128118390D01*
X93440714Y-128118390D02*
X93393095Y-128166009D01*
X93393095Y-128166009D02*
X93345476Y-128261247D01*
X93345476Y-128261247D02*
X93345476Y-128499342D01*
X93345476Y-128499342D02*
X93393095Y-128594580D01*
X93393095Y-128594580D02*
X93440714Y-128642200D01*
X93440714Y-128642200D02*
X93535952Y-128689819D01*
X93535952Y-128689819D02*
X93774047Y-128689819D01*
X93774047Y-128689819D02*
X93869285Y-128642200D01*
X93869285Y-128642200D02*
X93916904Y-128594580D01*
X92440714Y-127689819D02*
X92916904Y-127689819D01*
X92916904Y-127689819D02*
X92964523Y-128166009D01*
X92964523Y-128166009D02*
X92916904Y-128118390D01*
X92916904Y-128118390D02*
X92821666Y-128070771D01*
X92821666Y-128070771D02*
X92583571Y-128070771D01*
X92583571Y-128070771D02*
X92488333Y-128118390D01*
X92488333Y-128118390D02*
X92440714Y-128166009D01*
X92440714Y-128166009D02*
X92393095Y-128261247D01*
X92393095Y-128261247D02*
X92393095Y-128499342D01*
X92393095Y-128499342D02*
X92440714Y-128594580D01*
X92440714Y-128594580D02*
X92488333Y-128642200D01*
X92488333Y-128642200D02*
X92583571Y-128689819D01*
X92583571Y-128689819D02*
X92821666Y-128689819D01*
X92821666Y-128689819D02*
X92916904Y-128642200D01*
X92916904Y-128642200D02*
X92964523Y-128594580D01*
X176242857Y-93132319D02*
X176576190Y-92656128D01*
X176814285Y-93132319D02*
X176814285Y-92132319D01*
X176814285Y-92132319D02*
X176433333Y-92132319D01*
X176433333Y-92132319D02*
X176338095Y-92179938D01*
X176338095Y-92179938D02*
X176290476Y-92227557D01*
X176290476Y-92227557D02*
X176242857Y-92322795D01*
X176242857Y-92322795D02*
X176242857Y-92465652D01*
X176242857Y-92465652D02*
X176290476Y-92560890D01*
X176290476Y-92560890D02*
X176338095Y-92608509D01*
X176338095Y-92608509D02*
X176433333Y-92656128D01*
X176433333Y-92656128D02*
X176814285Y-92656128D01*
X175861904Y-92227557D02*
X175814285Y-92179938D01*
X175814285Y-92179938D02*
X175719047Y-92132319D01*
X175719047Y-92132319D02*
X175480952Y-92132319D01*
X175480952Y-92132319D02*
X175385714Y-92179938D01*
X175385714Y-92179938D02*
X175338095Y-92227557D01*
X175338095Y-92227557D02*
X175290476Y-92322795D01*
X175290476Y-92322795D02*
X175290476Y-92418033D01*
X175290476Y-92418033D02*
X175338095Y-92560890D01*
X175338095Y-92560890D02*
X175909523Y-93132319D01*
X175909523Y-93132319D02*
X175290476Y-93132319D01*
X174719047Y-92560890D02*
X174814285Y-92513271D01*
X174814285Y-92513271D02*
X174861904Y-92465652D01*
X174861904Y-92465652D02*
X174909523Y-92370414D01*
X174909523Y-92370414D02*
X174909523Y-92322795D01*
X174909523Y-92322795D02*
X174861904Y-92227557D01*
X174861904Y-92227557D02*
X174814285Y-92179938D01*
X174814285Y-92179938D02*
X174719047Y-92132319D01*
X174719047Y-92132319D02*
X174528571Y-92132319D01*
X174528571Y-92132319D02*
X174433333Y-92179938D01*
X174433333Y-92179938D02*
X174385714Y-92227557D01*
X174385714Y-92227557D02*
X174338095Y-92322795D01*
X174338095Y-92322795D02*
X174338095Y-92370414D01*
X174338095Y-92370414D02*
X174385714Y-92465652D01*
X174385714Y-92465652D02*
X174433333Y-92513271D01*
X174433333Y-92513271D02*
X174528571Y-92560890D01*
X174528571Y-92560890D02*
X174719047Y-92560890D01*
X174719047Y-92560890D02*
X174814285Y-92608509D01*
X174814285Y-92608509D02*
X174861904Y-92656128D01*
X174861904Y-92656128D02*
X174909523Y-92751366D01*
X174909523Y-92751366D02*
X174909523Y-92941842D01*
X174909523Y-92941842D02*
X174861904Y-93037080D01*
X174861904Y-93037080D02*
X174814285Y-93084700D01*
X174814285Y-93084700D02*
X174719047Y-93132319D01*
X174719047Y-93132319D02*
X174528571Y-93132319D01*
X174528571Y-93132319D02*
X174433333Y-93084700D01*
X174433333Y-93084700D02*
X174385714Y-93037080D01*
X174385714Y-93037080D02*
X174338095Y-92941842D01*
X174338095Y-92941842D02*
X174338095Y-92751366D01*
X174338095Y-92751366D02*
X174385714Y-92656128D01*
X174385714Y-92656128D02*
X174433333Y-92608509D01*
X174433333Y-92608509D02*
X174528571Y-92560890D01*
X122972857Y-75909580D02*
X123020476Y-75957200D01*
X123020476Y-75957200D02*
X123163333Y-76004819D01*
X123163333Y-76004819D02*
X123258571Y-76004819D01*
X123258571Y-76004819D02*
X123401428Y-75957200D01*
X123401428Y-75957200D02*
X123496666Y-75861961D01*
X123496666Y-75861961D02*
X123544285Y-75766723D01*
X123544285Y-75766723D02*
X123591904Y-75576247D01*
X123591904Y-75576247D02*
X123591904Y-75433390D01*
X123591904Y-75433390D02*
X123544285Y-75242914D01*
X123544285Y-75242914D02*
X123496666Y-75147676D01*
X123496666Y-75147676D02*
X123401428Y-75052438D01*
X123401428Y-75052438D02*
X123258571Y-75004819D01*
X123258571Y-75004819D02*
X123163333Y-75004819D01*
X123163333Y-75004819D02*
X123020476Y-75052438D01*
X123020476Y-75052438D02*
X122972857Y-75100057D01*
X122020476Y-76004819D02*
X122591904Y-76004819D01*
X122306190Y-76004819D02*
X122306190Y-75004819D01*
X122306190Y-75004819D02*
X122401428Y-75147676D01*
X122401428Y-75147676D02*
X122496666Y-75242914D01*
X122496666Y-75242914D02*
X122591904Y-75290533D01*
X121163333Y-75004819D02*
X121353809Y-75004819D01*
X121353809Y-75004819D02*
X121449047Y-75052438D01*
X121449047Y-75052438D02*
X121496666Y-75100057D01*
X121496666Y-75100057D02*
X121591904Y-75242914D01*
X121591904Y-75242914D02*
X121639523Y-75433390D01*
X121639523Y-75433390D02*
X121639523Y-75814342D01*
X121639523Y-75814342D02*
X121591904Y-75909580D01*
X121591904Y-75909580D02*
X121544285Y-75957200D01*
X121544285Y-75957200D02*
X121449047Y-76004819D01*
X121449047Y-76004819D02*
X121258571Y-76004819D01*
X121258571Y-76004819D02*
X121163333Y-75957200D01*
X121163333Y-75957200D02*
X121115714Y-75909580D01*
X121115714Y-75909580D02*
X121068095Y-75814342D01*
X121068095Y-75814342D02*
X121068095Y-75576247D01*
X121068095Y-75576247D02*
X121115714Y-75481009D01*
X121115714Y-75481009D02*
X121163333Y-75433390D01*
X121163333Y-75433390D02*
X121258571Y-75385771D01*
X121258571Y-75385771D02*
X121449047Y-75385771D01*
X121449047Y-75385771D02*
X121544285Y-75433390D01*
X121544285Y-75433390D02*
X121591904Y-75481009D01*
X121591904Y-75481009D02*
X121639523Y-75576247D01*
X113102857Y-75799580D02*
X113150476Y-75847200D01*
X113150476Y-75847200D02*
X113293333Y-75894819D01*
X113293333Y-75894819D02*
X113388571Y-75894819D01*
X113388571Y-75894819D02*
X113531428Y-75847200D01*
X113531428Y-75847200D02*
X113626666Y-75751961D01*
X113626666Y-75751961D02*
X113674285Y-75656723D01*
X113674285Y-75656723D02*
X113721904Y-75466247D01*
X113721904Y-75466247D02*
X113721904Y-75323390D01*
X113721904Y-75323390D02*
X113674285Y-75132914D01*
X113674285Y-75132914D02*
X113626666Y-75037676D01*
X113626666Y-75037676D02*
X113531428Y-74942438D01*
X113531428Y-74942438D02*
X113388571Y-74894819D01*
X113388571Y-74894819D02*
X113293333Y-74894819D01*
X113293333Y-74894819D02*
X113150476Y-74942438D01*
X113150476Y-74942438D02*
X113102857Y-74990057D01*
X112150476Y-75894819D02*
X112721904Y-75894819D01*
X112436190Y-75894819D02*
X112436190Y-74894819D01*
X112436190Y-74894819D02*
X112531428Y-75037676D01*
X112531428Y-75037676D02*
X112626666Y-75132914D01*
X112626666Y-75132914D02*
X112721904Y-75180533D01*
X111245714Y-74894819D02*
X111721904Y-74894819D01*
X111721904Y-74894819D02*
X111769523Y-75371009D01*
X111769523Y-75371009D02*
X111721904Y-75323390D01*
X111721904Y-75323390D02*
X111626666Y-75275771D01*
X111626666Y-75275771D02*
X111388571Y-75275771D01*
X111388571Y-75275771D02*
X111293333Y-75323390D01*
X111293333Y-75323390D02*
X111245714Y-75371009D01*
X111245714Y-75371009D02*
X111198095Y-75466247D01*
X111198095Y-75466247D02*
X111198095Y-75704342D01*
X111198095Y-75704342D02*
X111245714Y-75799580D01*
X111245714Y-75799580D02*
X111293333Y-75847200D01*
X111293333Y-75847200D02*
X111388571Y-75894819D01*
X111388571Y-75894819D02*
X111626666Y-75894819D01*
X111626666Y-75894819D02*
X111721904Y-75847200D01*
X111721904Y-75847200D02*
X111769523Y-75799580D01*
X203552857Y-98167319D02*
X203886190Y-97691128D01*
X204124285Y-98167319D02*
X204124285Y-97167319D01*
X204124285Y-97167319D02*
X203743333Y-97167319D01*
X203743333Y-97167319D02*
X203648095Y-97214938D01*
X203648095Y-97214938D02*
X203600476Y-97262557D01*
X203600476Y-97262557D02*
X203552857Y-97357795D01*
X203552857Y-97357795D02*
X203552857Y-97500652D01*
X203552857Y-97500652D02*
X203600476Y-97595890D01*
X203600476Y-97595890D02*
X203648095Y-97643509D01*
X203648095Y-97643509D02*
X203743333Y-97691128D01*
X203743333Y-97691128D02*
X204124285Y-97691128D01*
X202600476Y-98167319D02*
X203171904Y-98167319D01*
X202886190Y-98167319D02*
X202886190Y-97167319D01*
X202886190Y-97167319D02*
X202981428Y-97310176D01*
X202981428Y-97310176D02*
X203076666Y-97405414D01*
X203076666Y-97405414D02*
X203171904Y-97453033D01*
X201743333Y-97167319D02*
X201933809Y-97167319D01*
X201933809Y-97167319D02*
X202029047Y-97214938D01*
X202029047Y-97214938D02*
X202076666Y-97262557D01*
X202076666Y-97262557D02*
X202171904Y-97405414D01*
X202171904Y-97405414D02*
X202219523Y-97595890D01*
X202219523Y-97595890D02*
X202219523Y-97976842D01*
X202219523Y-97976842D02*
X202171904Y-98072080D01*
X202171904Y-98072080D02*
X202124285Y-98119700D01*
X202124285Y-98119700D02*
X202029047Y-98167319D01*
X202029047Y-98167319D02*
X201838571Y-98167319D01*
X201838571Y-98167319D02*
X201743333Y-98119700D01*
X201743333Y-98119700D02*
X201695714Y-98072080D01*
X201695714Y-98072080D02*
X201648095Y-97976842D01*
X201648095Y-97976842D02*
X201648095Y-97738747D01*
X201648095Y-97738747D02*
X201695714Y-97643509D01*
X201695714Y-97643509D02*
X201743333Y-97595890D01*
X201743333Y-97595890D02*
X201838571Y-97548271D01*
X201838571Y-97548271D02*
X202029047Y-97548271D01*
X202029047Y-97548271D02*
X202124285Y-97595890D01*
X202124285Y-97595890D02*
X202171904Y-97643509D01*
X202171904Y-97643509D02*
X202219523Y-97738747D01*
X154582857Y-98222319D02*
X154916190Y-97746128D01*
X155154285Y-98222319D02*
X155154285Y-97222319D01*
X155154285Y-97222319D02*
X154773333Y-97222319D01*
X154773333Y-97222319D02*
X154678095Y-97269938D01*
X154678095Y-97269938D02*
X154630476Y-97317557D01*
X154630476Y-97317557D02*
X154582857Y-97412795D01*
X154582857Y-97412795D02*
X154582857Y-97555652D01*
X154582857Y-97555652D02*
X154630476Y-97650890D01*
X154630476Y-97650890D02*
X154678095Y-97698509D01*
X154678095Y-97698509D02*
X154773333Y-97746128D01*
X154773333Y-97746128D02*
X155154285Y-97746128D01*
X154249523Y-97222319D02*
X153630476Y-97222319D01*
X153630476Y-97222319D02*
X153963809Y-97603271D01*
X153963809Y-97603271D02*
X153820952Y-97603271D01*
X153820952Y-97603271D02*
X153725714Y-97650890D01*
X153725714Y-97650890D02*
X153678095Y-97698509D01*
X153678095Y-97698509D02*
X153630476Y-97793747D01*
X153630476Y-97793747D02*
X153630476Y-98031842D01*
X153630476Y-98031842D02*
X153678095Y-98127080D01*
X153678095Y-98127080D02*
X153725714Y-98174700D01*
X153725714Y-98174700D02*
X153820952Y-98222319D01*
X153820952Y-98222319D02*
X154106666Y-98222319D01*
X154106666Y-98222319D02*
X154201904Y-98174700D01*
X154201904Y-98174700D02*
X154249523Y-98127080D01*
X152773333Y-97555652D02*
X152773333Y-98222319D01*
X153011428Y-97174700D02*
X153249523Y-97888985D01*
X153249523Y-97888985D02*
X152630476Y-97888985D01*
X127612857Y-75719580D02*
X127660476Y-75767200D01*
X127660476Y-75767200D02*
X127803333Y-75814819D01*
X127803333Y-75814819D02*
X127898571Y-75814819D01*
X127898571Y-75814819D02*
X128041428Y-75767200D01*
X128041428Y-75767200D02*
X128136666Y-75671961D01*
X128136666Y-75671961D02*
X128184285Y-75576723D01*
X128184285Y-75576723D02*
X128231904Y-75386247D01*
X128231904Y-75386247D02*
X128231904Y-75243390D01*
X128231904Y-75243390D02*
X128184285Y-75052914D01*
X128184285Y-75052914D02*
X128136666Y-74957676D01*
X128136666Y-74957676D02*
X128041428Y-74862438D01*
X128041428Y-74862438D02*
X127898571Y-74814819D01*
X127898571Y-74814819D02*
X127803333Y-74814819D01*
X127803333Y-74814819D02*
X127660476Y-74862438D01*
X127660476Y-74862438D02*
X127612857Y-74910057D01*
X126660476Y-75814819D02*
X127231904Y-75814819D01*
X126946190Y-75814819D02*
X126946190Y-74814819D01*
X126946190Y-74814819D02*
X127041428Y-74957676D01*
X127041428Y-74957676D02*
X127136666Y-75052914D01*
X127136666Y-75052914D02*
X127231904Y-75100533D01*
X126327142Y-74814819D02*
X125660476Y-74814819D01*
X125660476Y-74814819D02*
X126089047Y-75814819D01*
X202656666Y-86864819D02*
X202989999Y-86388628D01*
X203228094Y-86864819D02*
X203228094Y-85864819D01*
X203228094Y-85864819D02*
X202847142Y-85864819D01*
X202847142Y-85864819D02*
X202751904Y-85912438D01*
X202751904Y-85912438D02*
X202704285Y-85960057D01*
X202704285Y-85960057D02*
X202656666Y-86055295D01*
X202656666Y-86055295D02*
X202656666Y-86198152D01*
X202656666Y-86198152D02*
X202704285Y-86293390D01*
X202704285Y-86293390D02*
X202751904Y-86341009D01*
X202751904Y-86341009D02*
X202847142Y-86388628D01*
X202847142Y-86388628D02*
X203228094Y-86388628D01*
X202323332Y-85864819D02*
X201704285Y-85864819D01*
X201704285Y-85864819D02*
X202037618Y-86245771D01*
X202037618Y-86245771D02*
X201894761Y-86245771D01*
X201894761Y-86245771D02*
X201799523Y-86293390D01*
X201799523Y-86293390D02*
X201751904Y-86341009D01*
X201751904Y-86341009D02*
X201704285Y-86436247D01*
X201704285Y-86436247D02*
X201704285Y-86674342D01*
X201704285Y-86674342D02*
X201751904Y-86769580D01*
X201751904Y-86769580D02*
X201799523Y-86817200D01*
X201799523Y-86817200D02*
X201894761Y-86864819D01*
X201894761Y-86864819D02*
X202180475Y-86864819D01*
X202180475Y-86864819D02*
X202275713Y-86817200D01*
X202275713Y-86817200D02*
X202323332Y-86769580D01*
X203572857Y-93117319D02*
X203906190Y-92641128D01*
X204144285Y-93117319D02*
X204144285Y-92117319D01*
X204144285Y-92117319D02*
X203763333Y-92117319D01*
X203763333Y-92117319D02*
X203668095Y-92164938D01*
X203668095Y-92164938D02*
X203620476Y-92212557D01*
X203620476Y-92212557D02*
X203572857Y-92307795D01*
X203572857Y-92307795D02*
X203572857Y-92450652D01*
X203572857Y-92450652D02*
X203620476Y-92545890D01*
X203620476Y-92545890D02*
X203668095Y-92593509D01*
X203668095Y-92593509D02*
X203763333Y-92641128D01*
X203763333Y-92641128D02*
X204144285Y-92641128D01*
X202620476Y-93117319D02*
X203191904Y-93117319D01*
X202906190Y-93117319D02*
X202906190Y-92117319D01*
X202906190Y-92117319D02*
X203001428Y-92260176D01*
X203001428Y-92260176D02*
X203096666Y-92355414D01*
X203096666Y-92355414D02*
X203191904Y-92403033D01*
X201763333Y-92450652D02*
X201763333Y-93117319D01*
X202001428Y-92069700D02*
X202239523Y-92783985D01*
X202239523Y-92783985D02*
X201620476Y-92783985D01*
X192941904Y-79224819D02*
X192941904Y-80034342D01*
X192941904Y-80034342D02*
X192894285Y-80129580D01*
X192894285Y-80129580D02*
X192846666Y-80177200D01*
X192846666Y-80177200D02*
X192751428Y-80224819D01*
X192751428Y-80224819D02*
X192560952Y-80224819D01*
X192560952Y-80224819D02*
X192465714Y-80177200D01*
X192465714Y-80177200D02*
X192418095Y-80129580D01*
X192418095Y-80129580D02*
X192370476Y-80034342D01*
X192370476Y-80034342D02*
X192370476Y-79224819D01*
X191989523Y-79224819D02*
X191370476Y-79224819D01*
X191370476Y-79224819D02*
X191703809Y-79605771D01*
X191703809Y-79605771D02*
X191560952Y-79605771D01*
X191560952Y-79605771D02*
X191465714Y-79653390D01*
X191465714Y-79653390D02*
X191418095Y-79701009D01*
X191418095Y-79701009D02*
X191370476Y-79796247D01*
X191370476Y-79796247D02*
X191370476Y-80034342D01*
X191370476Y-80034342D02*
X191418095Y-80129580D01*
X191418095Y-80129580D02*
X191465714Y-80177200D01*
X191465714Y-80177200D02*
X191560952Y-80224819D01*
X191560952Y-80224819D02*
X191846666Y-80224819D01*
X191846666Y-80224819D02*
X191941904Y-80177200D01*
X191941904Y-80177200D02*
X191989523Y-80129580D01*
X165421904Y-79284819D02*
X165421904Y-80094342D01*
X165421904Y-80094342D02*
X165374285Y-80189580D01*
X165374285Y-80189580D02*
X165326666Y-80237200D01*
X165326666Y-80237200D02*
X165231428Y-80284819D01*
X165231428Y-80284819D02*
X165040952Y-80284819D01*
X165040952Y-80284819D02*
X164945714Y-80237200D01*
X164945714Y-80237200D02*
X164898095Y-80189580D01*
X164898095Y-80189580D02*
X164850476Y-80094342D01*
X164850476Y-80094342D02*
X164850476Y-79284819D01*
X163898095Y-79284819D02*
X164374285Y-79284819D01*
X164374285Y-79284819D02*
X164421904Y-79761009D01*
X164421904Y-79761009D02*
X164374285Y-79713390D01*
X164374285Y-79713390D02*
X164279047Y-79665771D01*
X164279047Y-79665771D02*
X164040952Y-79665771D01*
X164040952Y-79665771D02*
X163945714Y-79713390D01*
X163945714Y-79713390D02*
X163898095Y-79761009D01*
X163898095Y-79761009D02*
X163850476Y-79856247D01*
X163850476Y-79856247D02*
X163850476Y-80094342D01*
X163850476Y-80094342D02*
X163898095Y-80189580D01*
X163898095Y-80189580D02*
X163945714Y-80237200D01*
X163945714Y-80237200D02*
X164040952Y-80284819D01*
X164040952Y-80284819D02*
X164279047Y-80284819D01*
X164279047Y-80284819D02*
X164374285Y-80237200D01*
X164374285Y-80237200D02*
X164421904Y-80189580D01*
X113672857Y-131294580D02*
X113720476Y-131342200D01*
X113720476Y-131342200D02*
X113863333Y-131389819D01*
X113863333Y-131389819D02*
X113958571Y-131389819D01*
X113958571Y-131389819D02*
X114101428Y-131342200D01*
X114101428Y-131342200D02*
X114196666Y-131246961D01*
X114196666Y-131246961D02*
X114244285Y-131151723D01*
X114244285Y-131151723D02*
X114291904Y-130961247D01*
X114291904Y-130961247D02*
X114291904Y-130818390D01*
X114291904Y-130818390D02*
X114244285Y-130627914D01*
X114244285Y-130627914D02*
X114196666Y-130532676D01*
X114196666Y-130532676D02*
X114101428Y-130437438D01*
X114101428Y-130437438D02*
X113958571Y-130389819D01*
X113958571Y-130389819D02*
X113863333Y-130389819D01*
X113863333Y-130389819D02*
X113720476Y-130437438D01*
X113720476Y-130437438D02*
X113672857Y-130485057D01*
X112720476Y-131389819D02*
X113291904Y-131389819D01*
X113006190Y-131389819D02*
X113006190Y-130389819D01*
X113006190Y-130389819D02*
X113101428Y-130532676D01*
X113101428Y-130532676D02*
X113196666Y-130627914D01*
X113196666Y-130627914D02*
X113291904Y-130675533D01*
X112387142Y-130389819D02*
X111768095Y-130389819D01*
X111768095Y-130389819D02*
X112101428Y-130770771D01*
X112101428Y-130770771D02*
X111958571Y-130770771D01*
X111958571Y-130770771D02*
X111863333Y-130818390D01*
X111863333Y-130818390D02*
X111815714Y-130866009D01*
X111815714Y-130866009D02*
X111768095Y-130961247D01*
X111768095Y-130961247D02*
X111768095Y-131199342D01*
X111768095Y-131199342D02*
X111815714Y-131294580D01*
X111815714Y-131294580D02*
X111863333Y-131342200D01*
X111863333Y-131342200D02*
X111958571Y-131389819D01*
X111958571Y-131389819D02*
X112244285Y-131389819D01*
X112244285Y-131389819D02*
X112339523Y-131342200D01*
X112339523Y-131342200D02*
X112387142Y-131294580D01*
X182026666Y-84314819D02*
X182359999Y-83838628D01*
X182598094Y-84314819D02*
X182598094Y-83314819D01*
X182598094Y-83314819D02*
X182217142Y-83314819D01*
X182217142Y-83314819D02*
X182121904Y-83362438D01*
X182121904Y-83362438D02*
X182074285Y-83410057D01*
X182074285Y-83410057D02*
X182026666Y-83505295D01*
X182026666Y-83505295D02*
X182026666Y-83648152D01*
X182026666Y-83648152D02*
X182074285Y-83743390D01*
X182074285Y-83743390D02*
X182121904Y-83791009D01*
X182121904Y-83791009D02*
X182217142Y-83838628D01*
X182217142Y-83838628D02*
X182598094Y-83838628D01*
X181169523Y-83314819D02*
X181359999Y-83314819D01*
X181359999Y-83314819D02*
X181455237Y-83362438D01*
X181455237Y-83362438D02*
X181502856Y-83410057D01*
X181502856Y-83410057D02*
X181598094Y-83552914D01*
X181598094Y-83552914D02*
X181645713Y-83743390D01*
X181645713Y-83743390D02*
X181645713Y-84124342D01*
X181645713Y-84124342D02*
X181598094Y-84219580D01*
X181598094Y-84219580D02*
X181550475Y-84267200D01*
X181550475Y-84267200D02*
X181455237Y-84314819D01*
X181455237Y-84314819D02*
X181264761Y-84314819D01*
X181264761Y-84314819D02*
X181169523Y-84267200D01*
X181169523Y-84267200D02*
X181121904Y-84219580D01*
X181121904Y-84219580D02*
X181074285Y-84124342D01*
X181074285Y-84124342D02*
X181074285Y-83886247D01*
X181074285Y-83886247D02*
X181121904Y-83791009D01*
X181121904Y-83791009D02*
X181169523Y-83743390D01*
X181169523Y-83743390D02*
X181264761Y-83695771D01*
X181264761Y-83695771D02*
X181455237Y-83695771D01*
X181455237Y-83695771D02*
X181550475Y-83743390D01*
X181550475Y-83743390D02*
X181598094Y-83791009D01*
X181598094Y-83791009D02*
X181645713Y-83886247D01*
X176182857Y-81774819D02*
X176516190Y-81298628D01*
X176754285Y-81774819D02*
X176754285Y-80774819D01*
X176754285Y-80774819D02*
X176373333Y-80774819D01*
X176373333Y-80774819D02*
X176278095Y-80822438D01*
X176278095Y-80822438D02*
X176230476Y-80870057D01*
X176230476Y-80870057D02*
X176182857Y-80965295D01*
X176182857Y-80965295D02*
X176182857Y-81108152D01*
X176182857Y-81108152D02*
X176230476Y-81203390D01*
X176230476Y-81203390D02*
X176278095Y-81251009D01*
X176278095Y-81251009D02*
X176373333Y-81298628D01*
X176373333Y-81298628D02*
X176754285Y-81298628D01*
X175230476Y-81774819D02*
X175801904Y-81774819D01*
X175516190Y-81774819D02*
X175516190Y-80774819D01*
X175516190Y-80774819D02*
X175611428Y-80917676D01*
X175611428Y-80917676D02*
X175706666Y-81012914D01*
X175706666Y-81012914D02*
X175801904Y-81060533D01*
X174659047Y-81203390D02*
X174754285Y-81155771D01*
X174754285Y-81155771D02*
X174801904Y-81108152D01*
X174801904Y-81108152D02*
X174849523Y-81012914D01*
X174849523Y-81012914D02*
X174849523Y-80965295D01*
X174849523Y-80965295D02*
X174801904Y-80870057D01*
X174801904Y-80870057D02*
X174754285Y-80822438D01*
X174754285Y-80822438D02*
X174659047Y-80774819D01*
X174659047Y-80774819D02*
X174468571Y-80774819D01*
X174468571Y-80774819D02*
X174373333Y-80822438D01*
X174373333Y-80822438D02*
X174325714Y-80870057D01*
X174325714Y-80870057D02*
X174278095Y-80965295D01*
X174278095Y-80965295D02*
X174278095Y-81012914D01*
X174278095Y-81012914D02*
X174325714Y-81108152D01*
X174325714Y-81108152D02*
X174373333Y-81155771D01*
X174373333Y-81155771D02*
X174468571Y-81203390D01*
X174468571Y-81203390D02*
X174659047Y-81203390D01*
X174659047Y-81203390D02*
X174754285Y-81251009D01*
X174754285Y-81251009D02*
X174801904Y-81298628D01*
X174801904Y-81298628D02*
X174849523Y-81393866D01*
X174849523Y-81393866D02*
X174849523Y-81584342D01*
X174849523Y-81584342D02*
X174801904Y-81679580D01*
X174801904Y-81679580D02*
X174754285Y-81727200D01*
X174754285Y-81727200D02*
X174659047Y-81774819D01*
X174659047Y-81774819D02*
X174468571Y-81774819D01*
X174468571Y-81774819D02*
X174373333Y-81727200D01*
X174373333Y-81727200D02*
X174325714Y-81679580D01*
X174325714Y-81679580D02*
X174278095Y-81584342D01*
X174278095Y-81584342D02*
X174278095Y-81393866D01*
X174278095Y-81393866D02*
X174325714Y-81298628D01*
X174325714Y-81298628D02*
X174373333Y-81251009D01*
X174373333Y-81251009D02*
X174468571Y-81203390D01*
X94227857Y-130729819D02*
X94561190Y-130253628D01*
X94799285Y-130729819D02*
X94799285Y-129729819D01*
X94799285Y-129729819D02*
X94418333Y-129729819D01*
X94418333Y-129729819D02*
X94323095Y-129777438D01*
X94323095Y-129777438D02*
X94275476Y-129825057D01*
X94275476Y-129825057D02*
X94227857Y-129920295D01*
X94227857Y-129920295D02*
X94227857Y-130063152D01*
X94227857Y-130063152D02*
X94275476Y-130158390D01*
X94275476Y-130158390D02*
X94323095Y-130206009D01*
X94323095Y-130206009D02*
X94418333Y-130253628D01*
X94418333Y-130253628D02*
X94799285Y-130253628D01*
X93323095Y-129729819D02*
X93799285Y-129729819D01*
X93799285Y-129729819D02*
X93846904Y-130206009D01*
X93846904Y-130206009D02*
X93799285Y-130158390D01*
X93799285Y-130158390D02*
X93704047Y-130110771D01*
X93704047Y-130110771D02*
X93465952Y-130110771D01*
X93465952Y-130110771D02*
X93370714Y-130158390D01*
X93370714Y-130158390D02*
X93323095Y-130206009D01*
X93323095Y-130206009D02*
X93275476Y-130301247D01*
X93275476Y-130301247D02*
X93275476Y-130539342D01*
X93275476Y-130539342D02*
X93323095Y-130634580D01*
X93323095Y-130634580D02*
X93370714Y-130682200D01*
X93370714Y-130682200D02*
X93465952Y-130729819D01*
X93465952Y-130729819D02*
X93704047Y-130729819D01*
X93704047Y-130729819D02*
X93799285Y-130682200D01*
X93799285Y-130682200D02*
X93846904Y-130634580D01*
X92418333Y-130063152D02*
X92418333Y-130729819D01*
X92656428Y-129682200D02*
X92894523Y-130396485D01*
X92894523Y-130396485D02*
X92275476Y-130396485D01*
X154592857Y-95672319D02*
X154926190Y-95196128D01*
X155164285Y-95672319D02*
X155164285Y-94672319D01*
X155164285Y-94672319D02*
X154783333Y-94672319D01*
X154783333Y-94672319D02*
X154688095Y-94719938D01*
X154688095Y-94719938D02*
X154640476Y-94767557D01*
X154640476Y-94767557D02*
X154592857Y-94862795D01*
X154592857Y-94862795D02*
X154592857Y-95005652D01*
X154592857Y-95005652D02*
X154640476Y-95100890D01*
X154640476Y-95100890D02*
X154688095Y-95148509D01*
X154688095Y-95148509D02*
X154783333Y-95196128D01*
X154783333Y-95196128D02*
X155164285Y-95196128D01*
X154259523Y-94672319D02*
X153640476Y-94672319D01*
X153640476Y-94672319D02*
X153973809Y-95053271D01*
X153973809Y-95053271D02*
X153830952Y-95053271D01*
X153830952Y-95053271D02*
X153735714Y-95100890D01*
X153735714Y-95100890D02*
X153688095Y-95148509D01*
X153688095Y-95148509D02*
X153640476Y-95243747D01*
X153640476Y-95243747D02*
X153640476Y-95481842D01*
X153640476Y-95481842D02*
X153688095Y-95577080D01*
X153688095Y-95577080D02*
X153735714Y-95624700D01*
X153735714Y-95624700D02*
X153830952Y-95672319D01*
X153830952Y-95672319D02*
X154116666Y-95672319D01*
X154116666Y-95672319D02*
X154211904Y-95624700D01*
X154211904Y-95624700D02*
X154259523Y-95577080D01*
X153307142Y-94672319D02*
X152688095Y-94672319D01*
X152688095Y-94672319D02*
X153021428Y-95053271D01*
X153021428Y-95053271D02*
X152878571Y-95053271D01*
X152878571Y-95053271D02*
X152783333Y-95100890D01*
X152783333Y-95100890D02*
X152735714Y-95148509D01*
X152735714Y-95148509D02*
X152688095Y-95243747D01*
X152688095Y-95243747D02*
X152688095Y-95481842D01*
X152688095Y-95481842D02*
X152735714Y-95577080D01*
X152735714Y-95577080D02*
X152783333Y-95624700D01*
X152783333Y-95624700D02*
X152878571Y-95672319D01*
X152878571Y-95672319D02*
X153164285Y-95672319D01*
X153164285Y-95672319D02*
X153259523Y-95624700D01*
X153259523Y-95624700D02*
X153307142Y-95577080D01*
X202706666Y-89264819D02*
X203039999Y-88788628D01*
X203278094Y-89264819D02*
X203278094Y-88264819D01*
X203278094Y-88264819D02*
X202897142Y-88264819D01*
X202897142Y-88264819D02*
X202801904Y-88312438D01*
X202801904Y-88312438D02*
X202754285Y-88360057D01*
X202754285Y-88360057D02*
X202706666Y-88455295D01*
X202706666Y-88455295D02*
X202706666Y-88598152D01*
X202706666Y-88598152D02*
X202754285Y-88693390D01*
X202754285Y-88693390D02*
X202801904Y-88741009D01*
X202801904Y-88741009D02*
X202897142Y-88788628D01*
X202897142Y-88788628D02*
X203278094Y-88788628D01*
X201849523Y-88598152D02*
X201849523Y-89264819D01*
X202087618Y-88217200D02*
X202325713Y-88931485D01*
X202325713Y-88931485D02*
X201706666Y-88931485D01*
X94307857Y-132729819D02*
X94641190Y-132253628D01*
X94879285Y-132729819D02*
X94879285Y-131729819D01*
X94879285Y-131729819D02*
X94498333Y-131729819D01*
X94498333Y-131729819D02*
X94403095Y-131777438D01*
X94403095Y-131777438D02*
X94355476Y-131825057D01*
X94355476Y-131825057D02*
X94307857Y-131920295D01*
X94307857Y-131920295D02*
X94307857Y-132063152D01*
X94307857Y-132063152D02*
X94355476Y-132158390D01*
X94355476Y-132158390D02*
X94403095Y-132206009D01*
X94403095Y-132206009D02*
X94498333Y-132253628D01*
X94498333Y-132253628D02*
X94879285Y-132253628D01*
X93403095Y-131729819D02*
X93879285Y-131729819D01*
X93879285Y-131729819D02*
X93926904Y-132206009D01*
X93926904Y-132206009D02*
X93879285Y-132158390D01*
X93879285Y-132158390D02*
X93784047Y-132110771D01*
X93784047Y-132110771D02*
X93545952Y-132110771D01*
X93545952Y-132110771D02*
X93450714Y-132158390D01*
X93450714Y-132158390D02*
X93403095Y-132206009D01*
X93403095Y-132206009D02*
X93355476Y-132301247D01*
X93355476Y-132301247D02*
X93355476Y-132539342D01*
X93355476Y-132539342D02*
X93403095Y-132634580D01*
X93403095Y-132634580D02*
X93450714Y-132682200D01*
X93450714Y-132682200D02*
X93545952Y-132729819D01*
X93545952Y-132729819D02*
X93784047Y-132729819D01*
X93784047Y-132729819D02*
X93879285Y-132682200D01*
X93879285Y-132682200D02*
X93926904Y-132634580D01*
X92974523Y-131825057D02*
X92926904Y-131777438D01*
X92926904Y-131777438D02*
X92831666Y-131729819D01*
X92831666Y-131729819D02*
X92593571Y-131729819D01*
X92593571Y-131729819D02*
X92498333Y-131777438D01*
X92498333Y-131777438D02*
X92450714Y-131825057D01*
X92450714Y-131825057D02*
X92403095Y-131920295D01*
X92403095Y-131920295D02*
X92403095Y-132015533D01*
X92403095Y-132015533D02*
X92450714Y-132158390D01*
X92450714Y-132158390D02*
X93022142Y-132729819D01*
X93022142Y-132729819D02*
X92403095Y-132729819D01*
X154432857Y-84464819D02*
X154766190Y-83988628D01*
X155004285Y-84464819D02*
X155004285Y-83464819D01*
X155004285Y-83464819D02*
X154623333Y-83464819D01*
X154623333Y-83464819D02*
X154528095Y-83512438D01*
X154528095Y-83512438D02*
X154480476Y-83560057D01*
X154480476Y-83560057D02*
X154432857Y-83655295D01*
X154432857Y-83655295D02*
X154432857Y-83798152D01*
X154432857Y-83798152D02*
X154480476Y-83893390D01*
X154480476Y-83893390D02*
X154528095Y-83941009D01*
X154528095Y-83941009D02*
X154623333Y-83988628D01*
X154623333Y-83988628D02*
X155004285Y-83988628D01*
X154051904Y-83560057D02*
X154004285Y-83512438D01*
X154004285Y-83512438D02*
X153909047Y-83464819D01*
X153909047Y-83464819D02*
X153670952Y-83464819D01*
X153670952Y-83464819D02*
X153575714Y-83512438D01*
X153575714Y-83512438D02*
X153528095Y-83560057D01*
X153528095Y-83560057D02*
X153480476Y-83655295D01*
X153480476Y-83655295D02*
X153480476Y-83750533D01*
X153480476Y-83750533D02*
X153528095Y-83893390D01*
X153528095Y-83893390D02*
X154099523Y-84464819D01*
X154099523Y-84464819D02*
X153480476Y-84464819D01*
X153147142Y-83464819D02*
X152528095Y-83464819D01*
X152528095Y-83464819D02*
X152861428Y-83845771D01*
X152861428Y-83845771D02*
X152718571Y-83845771D01*
X152718571Y-83845771D02*
X152623333Y-83893390D01*
X152623333Y-83893390D02*
X152575714Y-83941009D01*
X152575714Y-83941009D02*
X152528095Y-84036247D01*
X152528095Y-84036247D02*
X152528095Y-84274342D01*
X152528095Y-84274342D02*
X152575714Y-84369580D01*
X152575714Y-84369580D02*
X152623333Y-84417200D01*
X152623333Y-84417200D02*
X152718571Y-84464819D01*
X152718571Y-84464819D02*
X153004285Y-84464819D01*
X153004285Y-84464819D02*
X153099523Y-84417200D01*
X153099523Y-84417200D02*
X153147142Y-84369580D01*
X203552857Y-100807319D02*
X203886190Y-100331128D01*
X204124285Y-100807319D02*
X204124285Y-99807319D01*
X204124285Y-99807319D02*
X203743333Y-99807319D01*
X203743333Y-99807319D02*
X203648095Y-99854938D01*
X203648095Y-99854938D02*
X203600476Y-99902557D01*
X203600476Y-99902557D02*
X203552857Y-99997795D01*
X203552857Y-99997795D02*
X203552857Y-100140652D01*
X203552857Y-100140652D02*
X203600476Y-100235890D01*
X203600476Y-100235890D02*
X203648095Y-100283509D01*
X203648095Y-100283509D02*
X203743333Y-100331128D01*
X203743333Y-100331128D02*
X204124285Y-100331128D01*
X202600476Y-100807319D02*
X203171904Y-100807319D01*
X202886190Y-100807319D02*
X202886190Y-99807319D01*
X202886190Y-99807319D02*
X202981428Y-99950176D01*
X202981428Y-99950176D02*
X203076666Y-100045414D01*
X203076666Y-100045414D02*
X203171904Y-100093033D01*
X202267142Y-99807319D02*
X201600476Y-99807319D01*
X201600476Y-99807319D02*
X202029047Y-100807319D01*
X154682857Y-93132319D02*
X155016190Y-92656128D01*
X155254285Y-93132319D02*
X155254285Y-92132319D01*
X155254285Y-92132319D02*
X154873333Y-92132319D01*
X154873333Y-92132319D02*
X154778095Y-92179938D01*
X154778095Y-92179938D02*
X154730476Y-92227557D01*
X154730476Y-92227557D02*
X154682857Y-92322795D01*
X154682857Y-92322795D02*
X154682857Y-92465652D01*
X154682857Y-92465652D02*
X154730476Y-92560890D01*
X154730476Y-92560890D02*
X154778095Y-92608509D01*
X154778095Y-92608509D02*
X154873333Y-92656128D01*
X154873333Y-92656128D02*
X155254285Y-92656128D01*
X154349523Y-92132319D02*
X153730476Y-92132319D01*
X153730476Y-92132319D02*
X154063809Y-92513271D01*
X154063809Y-92513271D02*
X153920952Y-92513271D01*
X153920952Y-92513271D02*
X153825714Y-92560890D01*
X153825714Y-92560890D02*
X153778095Y-92608509D01*
X153778095Y-92608509D02*
X153730476Y-92703747D01*
X153730476Y-92703747D02*
X153730476Y-92941842D01*
X153730476Y-92941842D02*
X153778095Y-93037080D01*
X153778095Y-93037080D02*
X153825714Y-93084700D01*
X153825714Y-93084700D02*
X153920952Y-93132319D01*
X153920952Y-93132319D02*
X154206666Y-93132319D01*
X154206666Y-93132319D02*
X154301904Y-93084700D01*
X154301904Y-93084700D02*
X154349523Y-93037080D01*
X153349523Y-92227557D02*
X153301904Y-92179938D01*
X153301904Y-92179938D02*
X153206666Y-92132319D01*
X153206666Y-92132319D02*
X152968571Y-92132319D01*
X152968571Y-92132319D02*
X152873333Y-92179938D01*
X152873333Y-92179938D02*
X152825714Y-92227557D01*
X152825714Y-92227557D02*
X152778095Y-92322795D01*
X152778095Y-92322795D02*
X152778095Y-92418033D01*
X152778095Y-92418033D02*
X152825714Y-92560890D01*
X152825714Y-92560890D02*
X153397142Y-93132319D01*
X153397142Y-93132319D02*
X152778095Y-93132319D01*
X102287857Y-124059819D02*
X102621190Y-123583628D01*
X102859285Y-124059819D02*
X102859285Y-123059819D01*
X102859285Y-123059819D02*
X102478333Y-123059819D01*
X102478333Y-123059819D02*
X102383095Y-123107438D01*
X102383095Y-123107438D02*
X102335476Y-123155057D01*
X102335476Y-123155057D02*
X102287857Y-123250295D01*
X102287857Y-123250295D02*
X102287857Y-123393152D01*
X102287857Y-123393152D02*
X102335476Y-123488390D01*
X102335476Y-123488390D02*
X102383095Y-123536009D01*
X102383095Y-123536009D02*
X102478333Y-123583628D01*
X102478333Y-123583628D02*
X102859285Y-123583628D01*
X101383095Y-123059819D02*
X101859285Y-123059819D01*
X101859285Y-123059819D02*
X101906904Y-123536009D01*
X101906904Y-123536009D02*
X101859285Y-123488390D01*
X101859285Y-123488390D02*
X101764047Y-123440771D01*
X101764047Y-123440771D02*
X101525952Y-123440771D01*
X101525952Y-123440771D02*
X101430714Y-123488390D01*
X101430714Y-123488390D02*
X101383095Y-123536009D01*
X101383095Y-123536009D02*
X101335476Y-123631247D01*
X101335476Y-123631247D02*
X101335476Y-123869342D01*
X101335476Y-123869342D02*
X101383095Y-123964580D01*
X101383095Y-123964580D02*
X101430714Y-124012200D01*
X101430714Y-124012200D02*
X101525952Y-124059819D01*
X101525952Y-124059819D02*
X101764047Y-124059819D01*
X101764047Y-124059819D02*
X101859285Y-124012200D01*
X101859285Y-124012200D02*
X101906904Y-123964580D01*
X101002142Y-123059819D02*
X100383095Y-123059819D01*
X100383095Y-123059819D02*
X100716428Y-123440771D01*
X100716428Y-123440771D02*
X100573571Y-123440771D01*
X100573571Y-123440771D02*
X100478333Y-123488390D01*
X100478333Y-123488390D02*
X100430714Y-123536009D01*
X100430714Y-123536009D02*
X100383095Y-123631247D01*
X100383095Y-123631247D02*
X100383095Y-123869342D01*
X100383095Y-123869342D02*
X100430714Y-123964580D01*
X100430714Y-123964580D02*
X100478333Y-124012200D01*
X100478333Y-124012200D02*
X100573571Y-124059819D01*
X100573571Y-124059819D02*
X100859285Y-124059819D01*
X100859285Y-124059819D02*
X100954523Y-124012200D01*
X100954523Y-124012200D02*
X101002142Y-123964580D01*
X181996666Y-81774819D02*
X182329999Y-81298628D01*
X182568094Y-81774819D02*
X182568094Y-80774819D01*
X182568094Y-80774819D02*
X182187142Y-80774819D01*
X182187142Y-80774819D02*
X182091904Y-80822438D01*
X182091904Y-80822438D02*
X182044285Y-80870057D01*
X182044285Y-80870057D02*
X181996666Y-80965295D01*
X181996666Y-80965295D02*
X181996666Y-81108152D01*
X181996666Y-81108152D02*
X182044285Y-81203390D01*
X182044285Y-81203390D02*
X182091904Y-81251009D01*
X182091904Y-81251009D02*
X182187142Y-81298628D01*
X182187142Y-81298628D02*
X182568094Y-81298628D01*
X181091904Y-80774819D02*
X181568094Y-80774819D01*
X181568094Y-80774819D02*
X181615713Y-81251009D01*
X181615713Y-81251009D02*
X181568094Y-81203390D01*
X181568094Y-81203390D02*
X181472856Y-81155771D01*
X181472856Y-81155771D02*
X181234761Y-81155771D01*
X181234761Y-81155771D02*
X181139523Y-81203390D01*
X181139523Y-81203390D02*
X181091904Y-81251009D01*
X181091904Y-81251009D02*
X181044285Y-81346247D01*
X181044285Y-81346247D02*
X181044285Y-81584342D01*
X181044285Y-81584342D02*
X181091904Y-81679580D01*
X181091904Y-81679580D02*
X181139523Y-81727200D01*
X181139523Y-81727200D02*
X181234761Y-81774819D01*
X181234761Y-81774819D02*
X181472856Y-81774819D01*
X181472856Y-81774819D02*
X181568094Y-81727200D01*
X181568094Y-81727200D02*
X181615713Y-81679580D01*
X202636666Y-84314819D02*
X202969999Y-83838628D01*
X203208094Y-84314819D02*
X203208094Y-83314819D01*
X203208094Y-83314819D02*
X202827142Y-83314819D01*
X202827142Y-83314819D02*
X202731904Y-83362438D01*
X202731904Y-83362438D02*
X202684285Y-83410057D01*
X202684285Y-83410057D02*
X202636666Y-83505295D01*
X202636666Y-83505295D02*
X202636666Y-83648152D01*
X202636666Y-83648152D02*
X202684285Y-83743390D01*
X202684285Y-83743390D02*
X202731904Y-83791009D01*
X202731904Y-83791009D02*
X202827142Y-83838628D01*
X202827142Y-83838628D02*
X203208094Y-83838628D01*
X202255713Y-83410057D02*
X202208094Y-83362438D01*
X202208094Y-83362438D02*
X202112856Y-83314819D01*
X202112856Y-83314819D02*
X201874761Y-83314819D01*
X201874761Y-83314819D02*
X201779523Y-83362438D01*
X201779523Y-83362438D02*
X201731904Y-83410057D01*
X201731904Y-83410057D02*
X201684285Y-83505295D01*
X201684285Y-83505295D02*
X201684285Y-83600533D01*
X201684285Y-83600533D02*
X201731904Y-83743390D01*
X201731904Y-83743390D02*
X202303332Y-84314819D01*
X202303332Y-84314819D02*
X201684285Y-84314819D01*
X94728094Y-124717319D02*
X94728094Y-123717319D01*
X94728094Y-123717319D02*
X94489999Y-123717319D01*
X94489999Y-123717319D02*
X94347142Y-123764938D01*
X94347142Y-123764938D02*
X94251904Y-123860176D01*
X94251904Y-123860176D02*
X94204285Y-123955414D01*
X94204285Y-123955414D02*
X94156666Y-124145890D01*
X94156666Y-124145890D02*
X94156666Y-124288747D01*
X94156666Y-124288747D02*
X94204285Y-124479223D01*
X94204285Y-124479223D02*
X94251904Y-124574461D01*
X94251904Y-124574461D02*
X94347142Y-124669700D01*
X94347142Y-124669700D02*
X94489999Y-124717319D01*
X94489999Y-124717319D02*
X94728094Y-124717319D01*
X93680475Y-124717319D02*
X93489999Y-124717319D01*
X93489999Y-124717319D02*
X93394761Y-124669700D01*
X93394761Y-124669700D02*
X93347142Y-124622080D01*
X93347142Y-124622080D02*
X93251904Y-124479223D01*
X93251904Y-124479223D02*
X93204285Y-124288747D01*
X93204285Y-124288747D02*
X93204285Y-123907795D01*
X93204285Y-123907795D02*
X93251904Y-123812557D01*
X93251904Y-123812557D02*
X93299523Y-123764938D01*
X93299523Y-123764938D02*
X93394761Y-123717319D01*
X93394761Y-123717319D02*
X93585237Y-123717319D01*
X93585237Y-123717319D02*
X93680475Y-123764938D01*
X93680475Y-123764938D02*
X93728094Y-123812557D01*
X93728094Y-123812557D02*
X93775713Y-123907795D01*
X93775713Y-123907795D02*
X93775713Y-124145890D01*
X93775713Y-124145890D02*
X93728094Y-124241128D01*
X93728094Y-124241128D02*
X93680475Y-124288747D01*
X93680475Y-124288747D02*
X93585237Y-124336366D01*
X93585237Y-124336366D02*
X93394761Y-124336366D01*
X93394761Y-124336366D02*
X93299523Y-124288747D01*
X93299523Y-124288747D02*
X93251904Y-124241128D01*
X93251904Y-124241128D02*
X93204285Y-124145890D01*
X176072857Y-95682319D02*
X176406190Y-95206128D01*
X176644285Y-95682319D02*
X176644285Y-94682319D01*
X176644285Y-94682319D02*
X176263333Y-94682319D01*
X176263333Y-94682319D02*
X176168095Y-94729938D01*
X176168095Y-94729938D02*
X176120476Y-94777557D01*
X176120476Y-94777557D02*
X176072857Y-94872795D01*
X176072857Y-94872795D02*
X176072857Y-95015652D01*
X176072857Y-95015652D02*
X176120476Y-95110890D01*
X176120476Y-95110890D02*
X176168095Y-95158509D01*
X176168095Y-95158509D02*
X176263333Y-95206128D01*
X176263333Y-95206128D02*
X176644285Y-95206128D01*
X175691904Y-94777557D02*
X175644285Y-94729938D01*
X175644285Y-94729938D02*
X175549047Y-94682319D01*
X175549047Y-94682319D02*
X175310952Y-94682319D01*
X175310952Y-94682319D02*
X175215714Y-94729938D01*
X175215714Y-94729938D02*
X175168095Y-94777557D01*
X175168095Y-94777557D02*
X175120476Y-94872795D01*
X175120476Y-94872795D02*
X175120476Y-94968033D01*
X175120476Y-94968033D02*
X175168095Y-95110890D01*
X175168095Y-95110890D02*
X175739523Y-95682319D01*
X175739523Y-95682319D02*
X175120476Y-95682319D01*
X174644285Y-95682319D02*
X174453809Y-95682319D01*
X174453809Y-95682319D02*
X174358571Y-95634700D01*
X174358571Y-95634700D02*
X174310952Y-95587080D01*
X174310952Y-95587080D02*
X174215714Y-95444223D01*
X174215714Y-95444223D02*
X174168095Y-95253747D01*
X174168095Y-95253747D02*
X174168095Y-94872795D01*
X174168095Y-94872795D02*
X174215714Y-94777557D01*
X174215714Y-94777557D02*
X174263333Y-94729938D01*
X174263333Y-94729938D02*
X174358571Y-94682319D01*
X174358571Y-94682319D02*
X174549047Y-94682319D01*
X174549047Y-94682319D02*
X174644285Y-94729938D01*
X174644285Y-94729938D02*
X174691904Y-94777557D01*
X174691904Y-94777557D02*
X174739523Y-94872795D01*
X174739523Y-94872795D02*
X174739523Y-95110890D01*
X174739523Y-95110890D02*
X174691904Y-95206128D01*
X174691904Y-95206128D02*
X174644285Y-95253747D01*
X174644285Y-95253747D02*
X174549047Y-95301366D01*
X174549047Y-95301366D02*
X174358571Y-95301366D01*
X174358571Y-95301366D02*
X174263333Y-95253747D01*
X174263333Y-95253747D02*
X174215714Y-95206128D01*
X174215714Y-95206128D02*
X174168095Y-95110890D01*
X113677857Y-129349819D02*
X114011190Y-128873628D01*
X114249285Y-129349819D02*
X114249285Y-128349819D01*
X114249285Y-128349819D02*
X113868333Y-128349819D01*
X113868333Y-128349819D02*
X113773095Y-128397438D01*
X113773095Y-128397438D02*
X113725476Y-128445057D01*
X113725476Y-128445057D02*
X113677857Y-128540295D01*
X113677857Y-128540295D02*
X113677857Y-128683152D01*
X113677857Y-128683152D02*
X113725476Y-128778390D01*
X113725476Y-128778390D02*
X113773095Y-128826009D01*
X113773095Y-128826009D02*
X113868333Y-128873628D01*
X113868333Y-128873628D02*
X114249285Y-128873628D01*
X112820714Y-128683152D02*
X112820714Y-129349819D01*
X113058809Y-128302200D02*
X113296904Y-129016485D01*
X113296904Y-129016485D02*
X112677857Y-129016485D01*
X112249285Y-129349819D02*
X112058809Y-129349819D01*
X112058809Y-129349819D02*
X111963571Y-129302200D01*
X111963571Y-129302200D02*
X111915952Y-129254580D01*
X111915952Y-129254580D02*
X111820714Y-129111723D01*
X111820714Y-129111723D02*
X111773095Y-128921247D01*
X111773095Y-128921247D02*
X111773095Y-128540295D01*
X111773095Y-128540295D02*
X111820714Y-128445057D01*
X111820714Y-128445057D02*
X111868333Y-128397438D01*
X111868333Y-128397438D02*
X111963571Y-128349819D01*
X111963571Y-128349819D02*
X112154047Y-128349819D01*
X112154047Y-128349819D02*
X112249285Y-128397438D01*
X112249285Y-128397438D02*
X112296904Y-128445057D01*
X112296904Y-128445057D02*
X112344523Y-128540295D01*
X112344523Y-128540295D02*
X112344523Y-128778390D01*
X112344523Y-128778390D02*
X112296904Y-128873628D01*
X112296904Y-128873628D02*
X112249285Y-128921247D01*
X112249285Y-128921247D02*
X112154047Y-128968866D01*
X112154047Y-128968866D02*
X111963571Y-128968866D01*
X111963571Y-128968866D02*
X111868333Y-128921247D01*
X111868333Y-128921247D02*
X111820714Y-128873628D01*
X111820714Y-128873628D02*
X111773095Y-128778390D01*
X104105357Y-136264580D02*
X104152976Y-136312200D01*
X104152976Y-136312200D02*
X104295833Y-136359819D01*
X104295833Y-136359819D02*
X104391071Y-136359819D01*
X104391071Y-136359819D02*
X104533928Y-136312200D01*
X104533928Y-136312200D02*
X104629166Y-136216961D01*
X104629166Y-136216961D02*
X104676785Y-136121723D01*
X104676785Y-136121723D02*
X104724404Y-135931247D01*
X104724404Y-135931247D02*
X104724404Y-135788390D01*
X104724404Y-135788390D02*
X104676785Y-135597914D01*
X104676785Y-135597914D02*
X104629166Y-135502676D01*
X104629166Y-135502676D02*
X104533928Y-135407438D01*
X104533928Y-135407438D02*
X104391071Y-135359819D01*
X104391071Y-135359819D02*
X104295833Y-135359819D01*
X104295833Y-135359819D02*
X104152976Y-135407438D01*
X104152976Y-135407438D02*
X104105357Y-135455057D01*
X103152976Y-136359819D02*
X103724404Y-136359819D01*
X103438690Y-136359819D02*
X103438690Y-135359819D01*
X103438690Y-135359819D02*
X103533928Y-135502676D01*
X103533928Y-135502676D02*
X103629166Y-135597914D01*
X103629166Y-135597914D02*
X103724404Y-135645533D01*
X102581547Y-135788390D02*
X102676785Y-135740771D01*
X102676785Y-135740771D02*
X102724404Y-135693152D01*
X102724404Y-135693152D02*
X102772023Y-135597914D01*
X102772023Y-135597914D02*
X102772023Y-135550295D01*
X102772023Y-135550295D02*
X102724404Y-135455057D01*
X102724404Y-135455057D02*
X102676785Y-135407438D01*
X102676785Y-135407438D02*
X102581547Y-135359819D01*
X102581547Y-135359819D02*
X102391071Y-135359819D01*
X102391071Y-135359819D02*
X102295833Y-135407438D01*
X102295833Y-135407438D02*
X102248214Y-135455057D01*
X102248214Y-135455057D02*
X102200595Y-135550295D01*
X102200595Y-135550295D02*
X102200595Y-135597914D01*
X102200595Y-135597914D02*
X102248214Y-135693152D01*
X102248214Y-135693152D02*
X102295833Y-135740771D01*
X102295833Y-135740771D02*
X102391071Y-135788390D01*
X102391071Y-135788390D02*
X102581547Y-135788390D01*
X102581547Y-135788390D02*
X102676785Y-135836009D01*
X102676785Y-135836009D02*
X102724404Y-135883628D01*
X102724404Y-135883628D02*
X102772023Y-135978866D01*
X102772023Y-135978866D02*
X102772023Y-136169342D01*
X102772023Y-136169342D02*
X102724404Y-136264580D01*
X102724404Y-136264580D02*
X102676785Y-136312200D01*
X102676785Y-136312200D02*
X102581547Y-136359819D01*
X102581547Y-136359819D02*
X102391071Y-136359819D01*
X102391071Y-136359819D02*
X102295833Y-136312200D01*
X102295833Y-136312200D02*
X102248214Y-136264580D01*
X102248214Y-136264580D02*
X102200595Y-136169342D01*
X102200595Y-136169342D02*
X102200595Y-135978866D01*
X102200595Y-135978866D02*
X102248214Y-135883628D01*
X102248214Y-135883628D02*
X102295833Y-135836009D01*
X102295833Y-135836009D02*
X102391071Y-135788390D01*
X154532857Y-100722319D02*
X154866190Y-100246128D01*
X155104285Y-100722319D02*
X155104285Y-99722319D01*
X155104285Y-99722319D02*
X154723333Y-99722319D01*
X154723333Y-99722319D02*
X154628095Y-99769938D01*
X154628095Y-99769938D02*
X154580476Y-99817557D01*
X154580476Y-99817557D02*
X154532857Y-99912795D01*
X154532857Y-99912795D02*
X154532857Y-100055652D01*
X154532857Y-100055652D02*
X154580476Y-100150890D01*
X154580476Y-100150890D02*
X154628095Y-100198509D01*
X154628095Y-100198509D02*
X154723333Y-100246128D01*
X154723333Y-100246128D02*
X155104285Y-100246128D01*
X154199523Y-99722319D02*
X153580476Y-99722319D01*
X153580476Y-99722319D02*
X153913809Y-100103271D01*
X153913809Y-100103271D02*
X153770952Y-100103271D01*
X153770952Y-100103271D02*
X153675714Y-100150890D01*
X153675714Y-100150890D02*
X153628095Y-100198509D01*
X153628095Y-100198509D02*
X153580476Y-100293747D01*
X153580476Y-100293747D02*
X153580476Y-100531842D01*
X153580476Y-100531842D02*
X153628095Y-100627080D01*
X153628095Y-100627080D02*
X153675714Y-100674700D01*
X153675714Y-100674700D02*
X153770952Y-100722319D01*
X153770952Y-100722319D02*
X154056666Y-100722319D01*
X154056666Y-100722319D02*
X154151904Y-100674700D01*
X154151904Y-100674700D02*
X154199523Y-100627080D01*
X152675714Y-99722319D02*
X153151904Y-99722319D01*
X153151904Y-99722319D02*
X153199523Y-100198509D01*
X153199523Y-100198509D02*
X153151904Y-100150890D01*
X153151904Y-100150890D02*
X153056666Y-100103271D01*
X153056666Y-100103271D02*
X152818571Y-100103271D01*
X152818571Y-100103271D02*
X152723333Y-100150890D01*
X152723333Y-100150890D02*
X152675714Y-100198509D01*
X152675714Y-100198509D02*
X152628095Y-100293747D01*
X152628095Y-100293747D02*
X152628095Y-100531842D01*
X152628095Y-100531842D02*
X152675714Y-100627080D01*
X152675714Y-100627080D02*
X152723333Y-100674700D01*
X152723333Y-100674700D02*
X152818571Y-100722319D01*
X152818571Y-100722319D02*
X153056666Y-100722319D01*
X153056666Y-100722319D02*
X153151904Y-100674700D01*
X153151904Y-100674700D02*
X153199523Y-100627080D01*
X175932857Y-100722319D02*
X176266190Y-100246128D01*
X176504285Y-100722319D02*
X176504285Y-99722319D01*
X176504285Y-99722319D02*
X176123333Y-99722319D01*
X176123333Y-99722319D02*
X176028095Y-99769938D01*
X176028095Y-99769938D02*
X175980476Y-99817557D01*
X175980476Y-99817557D02*
X175932857Y-99912795D01*
X175932857Y-99912795D02*
X175932857Y-100055652D01*
X175932857Y-100055652D02*
X175980476Y-100150890D01*
X175980476Y-100150890D02*
X176028095Y-100198509D01*
X176028095Y-100198509D02*
X176123333Y-100246128D01*
X176123333Y-100246128D02*
X176504285Y-100246128D01*
X175599523Y-99722319D02*
X174980476Y-99722319D01*
X174980476Y-99722319D02*
X175313809Y-100103271D01*
X175313809Y-100103271D02*
X175170952Y-100103271D01*
X175170952Y-100103271D02*
X175075714Y-100150890D01*
X175075714Y-100150890D02*
X175028095Y-100198509D01*
X175028095Y-100198509D02*
X174980476Y-100293747D01*
X174980476Y-100293747D02*
X174980476Y-100531842D01*
X174980476Y-100531842D02*
X175028095Y-100627080D01*
X175028095Y-100627080D02*
X175075714Y-100674700D01*
X175075714Y-100674700D02*
X175170952Y-100722319D01*
X175170952Y-100722319D02*
X175456666Y-100722319D01*
X175456666Y-100722319D02*
X175551904Y-100674700D01*
X175551904Y-100674700D02*
X175599523Y-100627080D01*
X174028095Y-100722319D02*
X174599523Y-100722319D01*
X174313809Y-100722319D02*
X174313809Y-99722319D01*
X174313809Y-99722319D02*
X174409047Y-99865176D01*
X174409047Y-99865176D02*
X174504285Y-99960414D01*
X174504285Y-99960414D02*
X174599523Y-100008033D01*
X182122857Y-100677319D02*
X182456190Y-100201128D01*
X182694285Y-100677319D02*
X182694285Y-99677319D01*
X182694285Y-99677319D02*
X182313333Y-99677319D01*
X182313333Y-99677319D02*
X182218095Y-99724938D01*
X182218095Y-99724938D02*
X182170476Y-99772557D01*
X182170476Y-99772557D02*
X182122857Y-99867795D01*
X182122857Y-99867795D02*
X182122857Y-100010652D01*
X182122857Y-100010652D02*
X182170476Y-100105890D01*
X182170476Y-100105890D02*
X182218095Y-100153509D01*
X182218095Y-100153509D02*
X182313333Y-100201128D01*
X182313333Y-100201128D02*
X182694285Y-100201128D01*
X181170476Y-100677319D02*
X181741904Y-100677319D01*
X181456190Y-100677319D02*
X181456190Y-99677319D01*
X181456190Y-99677319D02*
X181551428Y-99820176D01*
X181551428Y-99820176D02*
X181646666Y-99915414D01*
X181646666Y-99915414D02*
X181741904Y-99963033D01*
X180837142Y-99677319D02*
X180218095Y-99677319D01*
X180218095Y-99677319D02*
X180551428Y-100058271D01*
X180551428Y-100058271D02*
X180408571Y-100058271D01*
X180408571Y-100058271D02*
X180313333Y-100105890D01*
X180313333Y-100105890D02*
X180265714Y-100153509D01*
X180265714Y-100153509D02*
X180218095Y-100248747D01*
X180218095Y-100248747D02*
X180218095Y-100486842D01*
X180218095Y-100486842D02*
X180265714Y-100582080D01*
X180265714Y-100582080D02*
X180313333Y-100629700D01*
X180313333Y-100629700D02*
X180408571Y-100677319D01*
X180408571Y-100677319D02*
X180694285Y-100677319D01*
X180694285Y-100677319D02*
X180789523Y-100629700D01*
X180789523Y-100629700D02*
X180837142Y-100582080D01*
X117942857Y-75699580D02*
X117990476Y-75747200D01*
X117990476Y-75747200D02*
X118133333Y-75794819D01*
X118133333Y-75794819D02*
X118228571Y-75794819D01*
X118228571Y-75794819D02*
X118371428Y-75747200D01*
X118371428Y-75747200D02*
X118466666Y-75651961D01*
X118466666Y-75651961D02*
X118514285Y-75556723D01*
X118514285Y-75556723D02*
X118561904Y-75366247D01*
X118561904Y-75366247D02*
X118561904Y-75223390D01*
X118561904Y-75223390D02*
X118514285Y-75032914D01*
X118514285Y-75032914D02*
X118466666Y-74937676D01*
X118466666Y-74937676D02*
X118371428Y-74842438D01*
X118371428Y-74842438D02*
X118228571Y-74794819D01*
X118228571Y-74794819D02*
X118133333Y-74794819D01*
X118133333Y-74794819D02*
X117990476Y-74842438D01*
X117990476Y-74842438D02*
X117942857Y-74890057D01*
X116990476Y-75794819D02*
X117561904Y-75794819D01*
X117276190Y-75794819D02*
X117276190Y-74794819D01*
X117276190Y-74794819D02*
X117371428Y-74937676D01*
X117371428Y-74937676D02*
X117466666Y-75032914D01*
X117466666Y-75032914D02*
X117561904Y-75080533D01*
X116133333Y-75128152D02*
X116133333Y-75794819D01*
X116371428Y-74747200D02*
X116609523Y-75461485D01*
X116609523Y-75461485D02*
X115990476Y-75461485D01*
X154522857Y-81964819D02*
X154856190Y-81488628D01*
X155094285Y-81964819D02*
X155094285Y-80964819D01*
X155094285Y-80964819D02*
X154713333Y-80964819D01*
X154713333Y-80964819D02*
X154618095Y-81012438D01*
X154618095Y-81012438D02*
X154570476Y-81060057D01*
X154570476Y-81060057D02*
X154522857Y-81155295D01*
X154522857Y-81155295D02*
X154522857Y-81298152D01*
X154522857Y-81298152D02*
X154570476Y-81393390D01*
X154570476Y-81393390D02*
X154618095Y-81441009D01*
X154618095Y-81441009D02*
X154713333Y-81488628D01*
X154713333Y-81488628D02*
X155094285Y-81488628D01*
X154141904Y-81060057D02*
X154094285Y-81012438D01*
X154094285Y-81012438D02*
X153999047Y-80964819D01*
X153999047Y-80964819D02*
X153760952Y-80964819D01*
X153760952Y-80964819D02*
X153665714Y-81012438D01*
X153665714Y-81012438D02*
X153618095Y-81060057D01*
X153618095Y-81060057D02*
X153570476Y-81155295D01*
X153570476Y-81155295D02*
X153570476Y-81250533D01*
X153570476Y-81250533D02*
X153618095Y-81393390D01*
X153618095Y-81393390D02*
X154189523Y-81964819D01*
X154189523Y-81964819D02*
X153570476Y-81964819D01*
X153189523Y-81060057D02*
X153141904Y-81012438D01*
X153141904Y-81012438D02*
X153046666Y-80964819D01*
X153046666Y-80964819D02*
X152808571Y-80964819D01*
X152808571Y-80964819D02*
X152713333Y-81012438D01*
X152713333Y-81012438D02*
X152665714Y-81060057D01*
X152665714Y-81060057D02*
X152618095Y-81155295D01*
X152618095Y-81155295D02*
X152618095Y-81250533D01*
X152618095Y-81250533D02*
X152665714Y-81393390D01*
X152665714Y-81393390D02*
X153237142Y-81964819D01*
X153237142Y-81964819D02*
X152618095Y-81964819D01*
X193191904Y-102834819D02*
X193191904Y-103644342D01*
X193191904Y-103644342D02*
X193144285Y-103739580D01*
X193144285Y-103739580D02*
X193096666Y-103787200D01*
X193096666Y-103787200D02*
X193001428Y-103834819D01*
X193001428Y-103834819D02*
X192810952Y-103834819D01*
X192810952Y-103834819D02*
X192715714Y-103787200D01*
X192715714Y-103787200D02*
X192668095Y-103739580D01*
X192668095Y-103739580D02*
X192620476Y-103644342D01*
X192620476Y-103644342D02*
X192620476Y-102834819D01*
X191715714Y-103168152D02*
X191715714Y-103834819D01*
X191953809Y-102787200D02*
X192191904Y-103501485D01*
X192191904Y-103501485D02*
X191572857Y-103501485D01*
X118658094Y-129304819D02*
X118658094Y-128304819D01*
X118658094Y-128304819D02*
X118419999Y-128304819D01*
X118419999Y-128304819D02*
X118277142Y-128352438D01*
X118277142Y-128352438D02*
X118181904Y-128447676D01*
X118181904Y-128447676D02*
X118134285Y-128542914D01*
X118134285Y-128542914D02*
X118086666Y-128733390D01*
X118086666Y-128733390D02*
X118086666Y-128876247D01*
X118086666Y-128876247D02*
X118134285Y-129066723D01*
X118134285Y-129066723D02*
X118181904Y-129161961D01*
X118181904Y-129161961D02*
X118277142Y-129257200D01*
X118277142Y-129257200D02*
X118419999Y-129304819D01*
X118419999Y-129304819D02*
X118658094Y-129304819D01*
X117515237Y-128733390D02*
X117610475Y-128685771D01*
X117610475Y-128685771D02*
X117658094Y-128638152D01*
X117658094Y-128638152D02*
X117705713Y-128542914D01*
X117705713Y-128542914D02*
X117705713Y-128495295D01*
X117705713Y-128495295D02*
X117658094Y-128400057D01*
X117658094Y-128400057D02*
X117610475Y-128352438D01*
X117610475Y-128352438D02*
X117515237Y-128304819D01*
X117515237Y-128304819D02*
X117324761Y-128304819D01*
X117324761Y-128304819D02*
X117229523Y-128352438D01*
X117229523Y-128352438D02*
X117181904Y-128400057D01*
X117181904Y-128400057D02*
X117134285Y-128495295D01*
X117134285Y-128495295D02*
X117134285Y-128542914D01*
X117134285Y-128542914D02*
X117181904Y-128638152D01*
X117181904Y-128638152D02*
X117229523Y-128685771D01*
X117229523Y-128685771D02*
X117324761Y-128733390D01*
X117324761Y-128733390D02*
X117515237Y-128733390D01*
X117515237Y-128733390D02*
X117610475Y-128781009D01*
X117610475Y-128781009D02*
X117658094Y-128828628D01*
X117658094Y-128828628D02*
X117705713Y-128923866D01*
X117705713Y-128923866D02*
X117705713Y-129114342D01*
X117705713Y-129114342D02*
X117658094Y-129209580D01*
X117658094Y-129209580D02*
X117610475Y-129257200D01*
X117610475Y-129257200D02*
X117515237Y-129304819D01*
X117515237Y-129304819D02*
X117324761Y-129304819D01*
X117324761Y-129304819D02*
X117229523Y-129257200D01*
X117229523Y-129257200D02*
X117181904Y-129209580D01*
X117181904Y-129209580D02*
X117134285Y-129114342D01*
X117134285Y-129114342D02*
X117134285Y-128923866D01*
X117134285Y-128923866D02*
X117181904Y-128828628D01*
X117181904Y-128828628D02*
X117229523Y-128781009D01*
X117229523Y-128781009D02*
X117324761Y-128733390D01*
X106297857Y-123949819D02*
X106631190Y-123473628D01*
X106869285Y-123949819D02*
X106869285Y-122949819D01*
X106869285Y-122949819D02*
X106488333Y-122949819D01*
X106488333Y-122949819D02*
X106393095Y-122997438D01*
X106393095Y-122997438D02*
X106345476Y-123045057D01*
X106345476Y-123045057D02*
X106297857Y-123140295D01*
X106297857Y-123140295D02*
X106297857Y-123283152D01*
X106297857Y-123283152D02*
X106345476Y-123378390D01*
X106345476Y-123378390D02*
X106393095Y-123426009D01*
X106393095Y-123426009D02*
X106488333Y-123473628D01*
X106488333Y-123473628D02*
X106869285Y-123473628D01*
X105393095Y-122949819D02*
X105869285Y-122949819D01*
X105869285Y-122949819D02*
X105916904Y-123426009D01*
X105916904Y-123426009D02*
X105869285Y-123378390D01*
X105869285Y-123378390D02*
X105774047Y-123330771D01*
X105774047Y-123330771D02*
X105535952Y-123330771D01*
X105535952Y-123330771D02*
X105440714Y-123378390D01*
X105440714Y-123378390D02*
X105393095Y-123426009D01*
X105393095Y-123426009D02*
X105345476Y-123521247D01*
X105345476Y-123521247D02*
X105345476Y-123759342D01*
X105345476Y-123759342D02*
X105393095Y-123854580D01*
X105393095Y-123854580D02*
X105440714Y-123902200D01*
X105440714Y-123902200D02*
X105535952Y-123949819D01*
X105535952Y-123949819D02*
X105774047Y-123949819D01*
X105774047Y-123949819D02*
X105869285Y-123902200D01*
X105869285Y-123902200D02*
X105916904Y-123854580D01*
X104726428Y-122949819D02*
X104631190Y-122949819D01*
X104631190Y-122949819D02*
X104535952Y-122997438D01*
X104535952Y-122997438D02*
X104488333Y-123045057D01*
X104488333Y-123045057D02*
X104440714Y-123140295D01*
X104440714Y-123140295D02*
X104393095Y-123330771D01*
X104393095Y-123330771D02*
X104393095Y-123568866D01*
X104393095Y-123568866D02*
X104440714Y-123759342D01*
X104440714Y-123759342D02*
X104488333Y-123854580D01*
X104488333Y-123854580D02*
X104535952Y-123902200D01*
X104535952Y-123902200D02*
X104631190Y-123949819D01*
X104631190Y-123949819D02*
X104726428Y-123949819D01*
X104726428Y-123949819D02*
X104821666Y-123902200D01*
X104821666Y-123902200D02*
X104869285Y-123854580D01*
X104869285Y-123854580D02*
X104916904Y-123759342D01*
X104916904Y-123759342D02*
X104964523Y-123568866D01*
X104964523Y-123568866D02*
X104964523Y-123330771D01*
X104964523Y-123330771D02*
X104916904Y-123140295D01*
X104916904Y-123140295D02*
X104869285Y-123045057D01*
X104869285Y-123045057D02*
X104821666Y-122997438D01*
X104821666Y-122997438D02*
X104726428Y-122949819D01*
X104361904Y-126294819D02*
X104361904Y-127104342D01*
X104361904Y-127104342D02*
X104314285Y-127199580D01*
X104314285Y-127199580D02*
X104266666Y-127247200D01*
X104266666Y-127247200D02*
X104171428Y-127294819D01*
X104171428Y-127294819D02*
X103980952Y-127294819D01*
X103980952Y-127294819D02*
X103885714Y-127247200D01*
X103885714Y-127247200D02*
X103838095Y-127199580D01*
X103838095Y-127199580D02*
X103790476Y-127104342D01*
X103790476Y-127104342D02*
X103790476Y-126294819D01*
X103266666Y-127294819D02*
X103076190Y-127294819D01*
X103076190Y-127294819D02*
X102980952Y-127247200D01*
X102980952Y-127247200D02*
X102933333Y-127199580D01*
X102933333Y-127199580D02*
X102838095Y-127056723D01*
X102838095Y-127056723D02*
X102790476Y-126866247D01*
X102790476Y-126866247D02*
X102790476Y-126485295D01*
X102790476Y-126485295D02*
X102838095Y-126390057D01*
X102838095Y-126390057D02*
X102885714Y-126342438D01*
X102885714Y-126342438D02*
X102980952Y-126294819D01*
X102980952Y-126294819D02*
X103171428Y-126294819D01*
X103171428Y-126294819D02*
X103266666Y-126342438D01*
X103266666Y-126342438D02*
X103314285Y-126390057D01*
X103314285Y-126390057D02*
X103361904Y-126485295D01*
X103361904Y-126485295D02*
X103361904Y-126723390D01*
X103361904Y-126723390D02*
X103314285Y-126818628D01*
X103314285Y-126818628D02*
X103266666Y-126866247D01*
X103266666Y-126866247D02*
X103171428Y-126913866D01*
X103171428Y-126913866D02*
X102980952Y-126913866D01*
X102980952Y-126913866D02*
X102885714Y-126866247D01*
X102885714Y-126866247D02*
X102838095Y-126818628D01*
X102838095Y-126818628D02*
X102790476Y-126723390D01*
X182006666Y-89434819D02*
X182339999Y-88958628D01*
X182578094Y-89434819D02*
X182578094Y-88434819D01*
X182578094Y-88434819D02*
X182197142Y-88434819D01*
X182197142Y-88434819D02*
X182101904Y-88482438D01*
X182101904Y-88482438D02*
X182054285Y-88530057D01*
X182054285Y-88530057D02*
X182006666Y-88625295D01*
X182006666Y-88625295D02*
X182006666Y-88768152D01*
X182006666Y-88768152D02*
X182054285Y-88863390D01*
X182054285Y-88863390D02*
X182101904Y-88911009D01*
X182101904Y-88911009D02*
X182197142Y-88958628D01*
X182197142Y-88958628D02*
X182578094Y-88958628D01*
X181435237Y-88863390D02*
X181530475Y-88815771D01*
X181530475Y-88815771D02*
X181578094Y-88768152D01*
X181578094Y-88768152D02*
X181625713Y-88672914D01*
X181625713Y-88672914D02*
X181625713Y-88625295D01*
X181625713Y-88625295D02*
X181578094Y-88530057D01*
X181578094Y-88530057D02*
X181530475Y-88482438D01*
X181530475Y-88482438D02*
X181435237Y-88434819D01*
X181435237Y-88434819D02*
X181244761Y-88434819D01*
X181244761Y-88434819D02*
X181149523Y-88482438D01*
X181149523Y-88482438D02*
X181101904Y-88530057D01*
X181101904Y-88530057D02*
X181054285Y-88625295D01*
X181054285Y-88625295D02*
X181054285Y-88672914D01*
X181054285Y-88672914D02*
X181101904Y-88768152D01*
X181101904Y-88768152D02*
X181149523Y-88815771D01*
X181149523Y-88815771D02*
X181244761Y-88863390D01*
X181244761Y-88863390D02*
X181435237Y-88863390D01*
X181435237Y-88863390D02*
X181530475Y-88911009D01*
X181530475Y-88911009D02*
X181578094Y-88958628D01*
X181578094Y-88958628D02*
X181625713Y-89053866D01*
X181625713Y-89053866D02*
X181625713Y-89244342D01*
X181625713Y-89244342D02*
X181578094Y-89339580D01*
X181578094Y-89339580D02*
X181530475Y-89387200D01*
X181530475Y-89387200D02*
X181435237Y-89434819D01*
X181435237Y-89434819D02*
X181244761Y-89434819D01*
X181244761Y-89434819D02*
X181149523Y-89387200D01*
X181149523Y-89387200D02*
X181101904Y-89339580D01*
X181101904Y-89339580D02*
X181054285Y-89244342D01*
X181054285Y-89244342D02*
X181054285Y-89053866D01*
X181054285Y-89053866D02*
X181101904Y-88958628D01*
X181101904Y-88958628D02*
X181149523Y-88911009D01*
X181149523Y-88911009D02*
X181244761Y-88863390D01*
X154392857Y-87034819D02*
X154726190Y-86558628D01*
X154964285Y-87034819D02*
X154964285Y-86034819D01*
X154964285Y-86034819D02*
X154583333Y-86034819D01*
X154583333Y-86034819D02*
X154488095Y-86082438D01*
X154488095Y-86082438D02*
X154440476Y-86130057D01*
X154440476Y-86130057D02*
X154392857Y-86225295D01*
X154392857Y-86225295D02*
X154392857Y-86368152D01*
X154392857Y-86368152D02*
X154440476Y-86463390D01*
X154440476Y-86463390D02*
X154488095Y-86511009D01*
X154488095Y-86511009D02*
X154583333Y-86558628D01*
X154583333Y-86558628D02*
X154964285Y-86558628D01*
X154011904Y-86130057D02*
X153964285Y-86082438D01*
X153964285Y-86082438D02*
X153869047Y-86034819D01*
X153869047Y-86034819D02*
X153630952Y-86034819D01*
X153630952Y-86034819D02*
X153535714Y-86082438D01*
X153535714Y-86082438D02*
X153488095Y-86130057D01*
X153488095Y-86130057D02*
X153440476Y-86225295D01*
X153440476Y-86225295D02*
X153440476Y-86320533D01*
X153440476Y-86320533D02*
X153488095Y-86463390D01*
X153488095Y-86463390D02*
X154059523Y-87034819D01*
X154059523Y-87034819D02*
X153440476Y-87034819D01*
X152583333Y-86368152D02*
X152583333Y-87034819D01*
X152821428Y-85987200D02*
X153059523Y-86701485D01*
X153059523Y-86701485D02*
X152440476Y-86701485D01*
X165351904Y-102837319D02*
X165351904Y-103646842D01*
X165351904Y-103646842D02*
X165304285Y-103742080D01*
X165304285Y-103742080D02*
X165256666Y-103789700D01*
X165256666Y-103789700D02*
X165161428Y-103837319D01*
X165161428Y-103837319D02*
X164970952Y-103837319D01*
X164970952Y-103837319D02*
X164875714Y-103789700D01*
X164875714Y-103789700D02*
X164828095Y-103742080D01*
X164828095Y-103742080D02*
X164780476Y-103646842D01*
X164780476Y-103646842D02*
X164780476Y-102837319D01*
X163875714Y-102837319D02*
X164066190Y-102837319D01*
X164066190Y-102837319D02*
X164161428Y-102884938D01*
X164161428Y-102884938D02*
X164209047Y-102932557D01*
X164209047Y-102932557D02*
X164304285Y-103075414D01*
X164304285Y-103075414D02*
X164351904Y-103265890D01*
X164351904Y-103265890D02*
X164351904Y-103646842D01*
X164351904Y-103646842D02*
X164304285Y-103742080D01*
X164304285Y-103742080D02*
X164256666Y-103789700D01*
X164256666Y-103789700D02*
X164161428Y-103837319D01*
X164161428Y-103837319D02*
X163970952Y-103837319D01*
X163970952Y-103837319D02*
X163875714Y-103789700D01*
X163875714Y-103789700D02*
X163828095Y-103742080D01*
X163828095Y-103742080D02*
X163780476Y-103646842D01*
X163780476Y-103646842D02*
X163780476Y-103408747D01*
X163780476Y-103408747D02*
X163828095Y-103313509D01*
X163828095Y-103313509D02*
X163875714Y-103265890D01*
X163875714Y-103265890D02*
X163970952Y-103218271D01*
X163970952Y-103218271D02*
X164161428Y-103218271D01*
X164161428Y-103218271D02*
X164256666Y-103265890D01*
X164256666Y-103265890D02*
X164304285Y-103313509D01*
X164304285Y-103313509D02*
X164351904Y-103408747D01*
X182102857Y-98077319D02*
X182436190Y-97601128D01*
X182674285Y-98077319D02*
X182674285Y-97077319D01*
X182674285Y-97077319D02*
X182293333Y-97077319D01*
X182293333Y-97077319D02*
X182198095Y-97124938D01*
X182198095Y-97124938D02*
X182150476Y-97172557D01*
X182150476Y-97172557D02*
X182102857Y-97267795D01*
X182102857Y-97267795D02*
X182102857Y-97410652D01*
X182102857Y-97410652D02*
X182150476Y-97505890D01*
X182150476Y-97505890D02*
X182198095Y-97553509D01*
X182198095Y-97553509D02*
X182293333Y-97601128D01*
X182293333Y-97601128D02*
X182674285Y-97601128D01*
X181150476Y-98077319D02*
X181721904Y-98077319D01*
X181436190Y-98077319D02*
X181436190Y-97077319D01*
X181436190Y-97077319D02*
X181531428Y-97220176D01*
X181531428Y-97220176D02*
X181626666Y-97315414D01*
X181626666Y-97315414D02*
X181721904Y-97363033D01*
X180769523Y-97172557D02*
X180721904Y-97124938D01*
X180721904Y-97124938D02*
X180626666Y-97077319D01*
X180626666Y-97077319D02*
X180388571Y-97077319D01*
X180388571Y-97077319D02*
X180293333Y-97124938D01*
X180293333Y-97124938D02*
X180245714Y-97172557D01*
X180245714Y-97172557D02*
X180198095Y-97267795D01*
X180198095Y-97267795D02*
X180198095Y-97363033D01*
X180198095Y-97363033D02*
X180245714Y-97505890D01*
X180245714Y-97505890D02*
X180817142Y-98077319D01*
X180817142Y-98077319D02*
X180198095Y-98077319D01*
X113607857Y-127379819D02*
X113941190Y-126903628D01*
X114179285Y-127379819D02*
X114179285Y-126379819D01*
X114179285Y-126379819D02*
X113798333Y-126379819D01*
X113798333Y-126379819D02*
X113703095Y-126427438D01*
X113703095Y-126427438D02*
X113655476Y-126475057D01*
X113655476Y-126475057D02*
X113607857Y-126570295D01*
X113607857Y-126570295D02*
X113607857Y-126713152D01*
X113607857Y-126713152D02*
X113655476Y-126808390D01*
X113655476Y-126808390D02*
X113703095Y-126856009D01*
X113703095Y-126856009D02*
X113798333Y-126903628D01*
X113798333Y-126903628D02*
X114179285Y-126903628D01*
X112703095Y-126379819D02*
X113179285Y-126379819D01*
X113179285Y-126379819D02*
X113226904Y-126856009D01*
X113226904Y-126856009D02*
X113179285Y-126808390D01*
X113179285Y-126808390D02*
X113084047Y-126760771D01*
X113084047Y-126760771D02*
X112845952Y-126760771D01*
X112845952Y-126760771D02*
X112750714Y-126808390D01*
X112750714Y-126808390D02*
X112703095Y-126856009D01*
X112703095Y-126856009D02*
X112655476Y-126951247D01*
X112655476Y-126951247D02*
X112655476Y-127189342D01*
X112655476Y-127189342D02*
X112703095Y-127284580D01*
X112703095Y-127284580D02*
X112750714Y-127332200D01*
X112750714Y-127332200D02*
X112845952Y-127379819D01*
X112845952Y-127379819D02*
X113084047Y-127379819D01*
X113084047Y-127379819D02*
X113179285Y-127332200D01*
X113179285Y-127332200D02*
X113226904Y-127284580D01*
X111703095Y-127379819D02*
X112274523Y-127379819D01*
X111988809Y-127379819D02*
X111988809Y-126379819D01*
X111988809Y-126379819D02*
X112084047Y-126522676D01*
X112084047Y-126522676D02*
X112179285Y-126617914D01*
X112179285Y-126617914D02*
X112274523Y-126665533D01*
X182092857Y-92987319D02*
X182426190Y-92511128D01*
X182664285Y-92987319D02*
X182664285Y-91987319D01*
X182664285Y-91987319D02*
X182283333Y-91987319D01*
X182283333Y-91987319D02*
X182188095Y-92034938D01*
X182188095Y-92034938D02*
X182140476Y-92082557D01*
X182140476Y-92082557D02*
X182092857Y-92177795D01*
X182092857Y-92177795D02*
X182092857Y-92320652D01*
X182092857Y-92320652D02*
X182140476Y-92415890D01*
X182140476Y-92415890D02*
X182188095Y-92463509D01*
X182188095Y-92463509D02*
X182283333Y-92511128D01*
X182283333Y-92511128D02*
X182664285Y-92511128D01*
X181140476Y-92987319D02*
X181711904Y-92987319D01*
X181426190Y-92987319D02*
X181426190Y-91987319D01*
X181426190Y-91987319D02*
X181521428Y-92130176D01*
X181521428Y-92130176D02*
X181616666Y-92225414D01*
X181616666Y-92225414D02*
X181711904Y-92273033D01*
X180521428Y-91987319D02*
X180426190Y-91987319D01*
X180426190Y-91987319D02*
X180330952Y-92034938D01*
X180330952Y-92034938D02*
X180283333Y-92082557D01*
X180283333Y-92082557D02*
X180235714Y-92177795D01*
X180235714Y-92177795D02*
X180188095Y-92368271D01*
X180188095Y-92368271D02*
X180188095Y-92606366D01*
X180188095Y-92606366D02*
X180235714Y-92796842D01*
X180235714Y-92796842D02*
X180283333Y-92892080D01*
X180283333Y-92892080D02*
X180330952Y-92939700D01*
X180330952Y-92939700D02*
X180426190Y-92987319D01*
X180426190Y-92987319D02*
X180521428Y-92987319D01*
X180521428Y-92987319D02*
X180616666Y-92939700D01*
X180616666Y-92939700D02*
X180664285Y-92892080D01*
X180664285Y-92892080D02*
X180711904Y-92796842D01*
X180711904Y-92796842D02*
X180759523Y-92606366D01*
X180759523Y-92606366D02*
X180759523Y-92368271D01*
X180759523Y-92368271D02*
X180711904Y-92177795D01*
X180711904Y-92177795D02*
X180664285Y-92082557D01*
X180664285Y-92082557D02*
X180616666Y-92034938D01*
X180616666Y-92034938D02*
X180521428Y-91987319D01*
%TO.C,K2*%
D11*
X126711000Y-94010501D02*
G75*
G02*
X125949000Y-94010501I-381000J0D01*
G01*
X125949000Y-94010501D02*
G75*
G02*
X126711000Y-94010501I381000J0D01*
G01*
%TO.C,K1*%
X106321000Y-94390501D02*
G75*
G02*
X105559000Y-94390501I-381000J0D01*
G01*
X105559000Y-94390501D02*
G75*
G02*
X106321000Y-94390501I381000J0D01*
G01*
%TO.C,K3*%
X146581000Y-94250501D02*
G75*
G02*
X145819000Y-94250501I-381000J0D01*
G01*
X145819000Y-94250501D02*
G75*
G02*
X146581000Y-94250501I381000J0D01*
G01*
%TO.C,R48*%
D12*
X109872064Y-132170000D02*
X109417936Y-132170000D01*
X109872064Y-133640000D02*
X109417936Y-133640000D01*
%TO.C,R30*%
X172347064Y-97037500D02*
X171892936Y-97037500D01*
X172347064Y-98507500D02*
X171892936Y-98507500D01*
%TO.C,R7*%
X184907064Y-85755000D02*
X184452936Y-85755000D01*
X184907064Y-87225000D02*
X184452936Y-87225000D01*
%TO.C,R11*%
X184967064Y-94452500D02*
X184512936Y-94452500D01*
X184967064Y-95922500D02*
X184512936Y-95922500D01*
%TO.C,R20*%
X172327064Y-85845000D02*
X171872936Y-85845000D01*
X172327064Y-87315000D02*
X171872936Y-87315000D01*
%TO.C,R25*%
X157347064Y-88365000D02*
X156892936Y-88365000D01*
X157347064Y-89835000D02*
X156892936Y-89835000D01*
%TO.C,R15*%
X199847064Y-94392500D02*
X199392936Y-94392500D01*
X199847064Y-95862500D02*
X199392936Y-95862500D01*
%TO.C,R21*%
X172307064Y-89625000D02*
X171852936Y-89625000D01*
X172307064Y-91095000D02*
X171852936Y-91095000D01*
%TO.C,R19*%
X172357064Y-83315000D02*
X171902936Y-83315000D01*
X172357064Y-84785000D02*
X171902936Y-84785000D01*
%TO.C,R1*%
X199877064Y-80675000D02*
X199422936Y-80675000D01*
X199877064Y-82145000D02*
X199422936Y-82145000D01*
%TO.C,R55*%
X96907936Y-127470000D02*
X97362064Y-127470000D01*
X96907936Y-128940000D02*
X97362064Y-128940000D01*
%TO.C,R28*%
X172427064Y-91967500D02*
X171972936Y-91967500D01*
X172427064Y-93437500D02*
X171972936Y-93437500D01*
%TO.C,C16*%
X121668748Y-72770000D02*
X123091252Y-72770000D01*
X121668748Y-74590000D02*
X123091252Y-74590000D01*
%TO.C,C15*%
X113206252Y-72740000D02*
X111783748Y-72740000D01*
X113206252Y-74560000D02*
X111783748Y-74560000D01*
%TO.C,R16*%
X199847064Y-96932500D02*
X199392936Y-96932500D01*
X199847064Y-98402500D02*
X199392936Y-98402500D01*
%TO.C,R34*%
X157467064Y-97047500D02*
X157012936Y-97047500D01*
X157467064Y-98517500D02*
X157012936Y-98517500D01*
%TO.C,C17*%
X127686252Y-72770000D02*
X126263748Y-72770000D01*
X127686252Y-74590000D02*
X126263748Y-74590000D01*
%TO.C,R3*%
X199837064Y-85815000D02*
X199382936Y-85815000D01*
X199837064Y-87285000D02*
X199382936Y-87285000D01*
%TO.C,R14*%
X199837064Y-91882500D02*
X199382936Y-91882500D01*
X199837064Y-93352500D02*
X199382936Y-93352500D01*
%TO.C,U3*%
X189785000Y-80600000D02*
X189785000Y-80880000D01*
X189785000Y-90840000D02*
X189785000Y-91120000D01*
X189785000Y-91120000D02*
X194555000Y-91120000D01*
X194555000Y-80600000D02*
X189785000Y-80600000D01*
X194555000Y-80880000D02*
X194555000Y-80600000D01*
X194555000Y-91120000D02*
X194555000Y-90840000D01*
X195420000Y-80870000D02*
X195080000Y-80400000D01*
X195760000Y-80400000D01*
X195420000Y-80870000D01*
G36*
X195420000Y-80870000D02*
G01*
X195080000Y-80400000D01*
X195760000Y-80400000D01*
X195420000Y-80870000D01*
G37*
%TO.C,U5*%
X162275000Y-80670000D02*
X162275000Y-80950000D01*
X162275000Y-90910000D02*
X162275000Y-91190000D01*
X162275000Y-91190000D02*
X167045000Y-91190000D01*
X167045000Y-80670000D02*
X162275000Y-80670000D01*
X167045000Y-80950000D02*
X167045000Y-80670000D01*
X167045000Y-91190000D02*
X167045000Y-90910000D01*
X167910000Y-80940000D02*
X167570000Y-80470000D01*
X168250000Y-80470000D01*
X167910000Y-80940000D01*
G36*
X167910000Y-80940000D02*
G01*
X167570000Y-80470000D01*
X168250000Y-80470000D01*
X167910000Y-80940000D01*
G37*
%TO.C,C13*%
X109933752Y-130150000D02*
X109411248Y-130150000D01*
X109933752Y-131620000D02*
X109411248Y-131620000D01*
%TO.C,R6*%
X184907064Y-83205000D02*
X184452936Y-83205000D01*
X184907064Y-84675000D02*
X184452936Y-84675000D01*
%TO.C,R18*%
X172387064Y-80655000D02*
X171932936Y-80655000D01*
X172387064Y-82125000D02*
X171932936Y-82125000D01*
%TO.C,R54*%
X96877936Y-129470000D02*
X97332064Y-129470000D01*
X96877936Y-130940000D02*
X97332064Y-130940000D01*
%TO.C,R33*%
X157497064Y-94497500D02*
X157042936Y-94497500D01*
X157497064Y-95967500D02*
X157042936Y-95967500D01*
%TO.C,R4*%
X199817064Y-88325000D02*
X199362936Y-88325000D01*
X199817064Y-89795000D02*
X199362936Y-89795000D01*
%TO.C,R52*%
X96857936Y-131460000D02*
X97312064Y-131460000D01*
X96857936Y-132930000D02*
X97312064Y-132930000D01*
%TO.C,R23*%
X157317064Y-83295000D02*
X156862936Y-83295000D01*
X157317064Y-84765000D02*
X156862936Y-84765000D01*
%TO.C,R17*%
X199797064Y-99502500D02*
X199342936Y-99502500D01*
X199797064Y-100972500D02*
X199342936Y-100972500D01*
%TO.C,R32*%
X157517064Y-91957500D02*
X157062936Y-91957500D01*
X157517064Y-93427500D02*
X157062936Y-93427500D01*
%TO.C,R53*%
X101427936Y-124410000D02*
X101882064Y-124410000D01*
X101427936Y-125880000D02*
X101882064Y-125880000D01*
%TO.C,R5*%
X184907064Y-80675000D02*
X184452936Y-80675000D01*
X184907064Y-82145000D02*
X184452936Y-82145000D01*
%TO.C,R2*%
X199857064Y-83235000D02*
X199402936Y-83235000D01*
X199857064Y-84705000D02*
X199402936Y-84705000D01*
%TO.C,D9*%
X95195000Y-126922500D02*
X95195000Y-122512500D01*
X97415000Y-122512500D02*
X97415000Y-126922500D01*
X97415000Y-126922500D02*
X95195000Y-126922500D01*
%TO.C,R29*%
X172387064Y-94527500D02*
X171932936Y-94527500D01*
X172387064Y-95997500D02*
X171932936Y-95997500D01*
%TO.C,R49*%
X109912064Y-128100000D02*
X109457936Y-128100000D01*
X109912064Y-129570000D02*
X109457936Y-129570000D01*
%TO.C,C18*%
X103823752Y-133530000D02*
X103301248Y-133530000D01*
X103823752Y-135000000D02*
X103301248Y-135000000D01*
%TO.C,R35*%
X157437064Y-99577500D02*
X156982936Y-99577500D01*
X157437064Y-101047500D02*
X156982936Y-101047500D01*
%TO.C,R31*%
X172317064Y-99587500D02*
X171862936Y-99587500D01*
X172317064Y-101057500D02*
X171862936Y-101057500D01*
%TO.C,R13*%
X184987064Y-99512500D02*
X184532936Y-99512500D01*
X184987064Y-100982500D02*
X184532936Y-100982500D01*
%TO.C,C14*%
X116463748Y-72740000D02*
X117886252Y-72740000D01*
X116463748Y-74560000D02*
X117886252Y-74560000D01*
%TO.C,R22*%
X157347064Y-80745000D02*
X156892936Y-80745000D01*
X157347064Y-82215000D02*
X156892936Y-82215000D01*
%TO.C,U4*%
X189835000Y-91790000D02*
X189835000Y-92070000D01*
X189835000Y-102030000D02*
X189835000Y-102310000D01*
X189835000Y-102310000D02*
X194605000Y-102310000D01*
X194605000Y-91790000D02*
X189835000Y-91790000D01*
X194605000Y-92070000D02*
X194605000Y-91790000D01*
X194605000Y-102310000D02*
X194605000Y-102030000D01*
X195470000Y-92060000D02*
X195130000Y-91590000D01*
X195810000Y-91590000D01*
X195470000Y-92060000D01*
G36*
X195470000Y-92060000D02*
G01*
X195130000Y-91590000D01*
X195810000Y-91590000D01*
X195470000Y-92060000D01*
G37*
%TO.C,D8*%
X114745000Y-126185000D02*
X116965000Y-126185000D01*
X114745000Y-130595000D02*
X114745000Y-126185000D01*
X116965000Y-126185000D02*
X116965000Y-130595000D01*
%TO.C,R50*%
X105882064Y-124410000D02*
X105427936Y-124410000D01*
X105882064Y-125880000D02*
X105427936Y-125880000D01*
%TO.C,U9*%
X101540000Y-127680000D02*
X101540000Y-127775000D01*
X101540000Y-132705000D02*
X101540000Y-132800000D01*
X101540000Y-132800000D02*
X105660000Y-132800000D01*
X105660000Y-127680000D02*
X101540000Y-127680000D01*
X105660000Y-127775000D02*
X105660000Y-127680000D01*
X105660000Y-132800000D02*
X105660000Y-132705000D01*
X106200000Y-127770000D02*
X105960000Y-127440000D01*
X106440000Y-127440000D01*
X106200000Y-127770000D01*
G36*
X106200000Y-127770000D02*
G01*
X105960000Y-127440000D01*
X106440000Y-127440000D01*
X106200000Y-127770000D01*
G37*
%TO.C,R8*%
X184937064Y-88305000D02*
X184482936Y-88305000D01*
X184937064Y-89775000D02*
X184482936Y-89775000D01*
%TO.C,R24*%
X157367064Y-85815000D02*
X156912936Y-85815000D01*
X157367064Y-87285000D02*
X156912936Y-87285000D01*
%TO.C,U6*%
X162275000Y-91877500D02*
X162275000Y-92157500D01*
X162275000Y-102117500D02*
X162275000Y-102397500D01*
X162275000Y-102397500D02*
X167045000Y-102397500D01*
X167045000Y-91877500D02*
X162275000Y-91877500D01*
X167045000Y-92157500D02*
X167045000Y-91877500D01*
X167045000Y-102397500D02*
X167045000Y-102117500D01*
X167910000Y-92147500D02*
X167570000Y-91677500D01*
X168250000Y-91677500D01*
X167910000Y-92147500D01*
G36*
X167910000Y-92147500D02*
G01*
X167570000Y-91677500D01*
X168250000Y-91677500D01*
X167910000Y-92147500D01*
G37*
%TO.C,R12*%
X184967064Y-96952500D02*
X184512936Y-96952500D01*
X184967064Y-98422500D02*
X184512936Y-98422500D01*
%TO.C,R51*%
X109922064Y-126090000D02*
X109467936Y-126090000D01*
X109922064Y-127560000D02*
X109467936Y-127560000D01*
%TO.C,R10*%
X184987064Y-91872500D02*
X184532936Y-91872500D01*
X184987064Y-93342500D02*
X184532936Y-93342500D01*
%TD*%
D13*
%TO.C,J2*%
X149385000Y-67045000D03*
X103660000Y-67045000D03*
%TD*%
%TO.C,J1*%
X210050000Y-65500000D03*
X169476000Y-65633000D03*
%TD*%
M02*
