%TF.GenerationSoftware,KiCad,Pcbnew,10.0.1*%
%TF.CreationDate,2026-05-25T19:28:02+01:00*%
%TF.ProjectId,caculateur,63616375-6c61-4746-9575-722e6b696361,1.0*%
%TF.SameCoordinates,Original*%
%TF.FileFunction,Soldermask,Top*%
%TF.FilePolarity,Negative*%
%FSLAX46Y46*%
G04 Gerber Fmt 4.6, Leading zero omitted, Abs format (unit mm)*
G04 Created by KiCad (PCBNEW 10.0.1) date 2026-05-25 19:28:02*
%MOMM*%
%LPD*%
G01*
G04 APERTURE LIST*
G04 Aperture macros list*
%AMRoundRect*
0 Rectangle with rounded corners*
0 $1 Rounding radius*
0 $2 $3 $4 $5 $6 $7 $8 $9 X,Y pos of 4 corners*
0 Add a 4 corners polygon primitive as box body*
4,1,4,$2,$3,$4,$5,$6,$7,$8,$9,$2,$3,0*
0 Add four circle primitives for the rounded corners*
1,1,$1+$1,$2,$3*
1,1,$1+$1,$4,$5*
1,1,$1+$1,$6,$7*
1,1,$1+$1,$8,$9*
0 Add four rect primitives between the rounded corners*
20,1,$1+$1,$2,$3,$4,$5,0*
20,1,$1+$1,$4,$5,$6,$7,0*
20,1,$1+$1,$6,$7,$8,$9,0*
20,1,$1+$1,$8,$9,$2,$3,0*%
G04 Aperture macros list end*
%ADD10R,3.940000X5.840000*%
%ADD11RoundRect,0.162500X0.672500X0.162500X-0.672500X0.162500X-0.672500X-0.162500X0.672500X-0.162500X0*%
%ADD12R,2.500000X1.500000*%
%ADD13O,2.500000X1.500000*%
%ADD14RoundRect,0.075000X-0.700000X-0.075000X0.700000X-0.075000X0.700000X0.075000X-0.700000X0.075000X0*%
%ADD15RoundRect,0.075000X-0.075000X-0.700000X0.075000X-0.700000X0.075000X0.700000X-0.075000X0.700000X0*%
%ADD16RoundRect,0.250000X-0.600000X0.400000X-0.600000X-0.400000X0.600000X-0.400000X0.600000X0.400000X0*%
%ADD17RoundRect,0.250000X0.312500X0.625000X-0.312500X0.625000X-0.312500X-0.625000X0.312500X-0.625000X0*%
%ADD18RoundRect,0.250000X-0.475000X0.337500X-0.475000X-0.337500X0.475000X-0.337500X0.475000X0.337500X0*%
%ADD19RoundRect,0.250000X-0.350000X-0.450000X0.350000X-0.450000X0.350000X0.450000X-0.350000X0.450000X0*%
%ADD20R,1.500000X0.700000*%
%ADD21R,0.700000X1.500000*%
%ADD22C,3.200000*%
%ADD23R,1.700000X1.700000*%
%ADD24C,1.700000*%
%ADD25RoundRect,0.250000X0.625000X-0.312500X0.625000X0.312500X-0.625000X0.312500X-0.625000X-0.312500X0*%
%ADD26RoundRect,0.250000X-1.750000X-1.000000X1.750000X-1.000000X1.750000X1.000000X-1.750000X1.000000X0*%
%ADD27RoundRect,0.250000X0.350000X0.450000X-0.350000X0.450000X-0.350000X-0.450000X0.350000X-0.450000X0*%
%ADD28RoundRect,0.150000X0.150000X-0.587500X0.150000X0.587500X-0.150000X0.587500X-0.150000X-0.587500X0*%
%ADD29RoundRect,0.250000X1.000000X0.650000X-1.000000X0.650000X-1.000000X-0.650000X1.000000X-0.650000X0*%
%ADD30R,1.300000X0.300000*%
%ADD31R,2.200000X1.800000*%
%ADD32RoundRect,0.250000X-0.337500X-0.475000X0.337500X-0.475000X0.337500X0.475000X-0.337500X0.475000X0*%
%ADD33RoundRect,0.250000X-0.450000X0.350000X-0.450000X-0.350000X0.450000X-0.350000X0.450000X0.350000X0*%
%ADD34RoundRect,0.250000X-1.000000X-0.650000X1.000000X-0.650000X1.000000X0.650000X-1.000000X0.650000X0*%
%ADD35C,2.108200*%
%ADD36C,1.498600*%
%ADD37C,1.701800*%
%ADD38C,2.006600*%
%ADD39RoundRect,0.250000X0.450000X-0.350000X0.450000X0.350000X-0.450000X0.350000X-0.450000X-0.350000X0*%
%ADD40RoundRect,0.250000X0.475000X-0.337500X0.475000X0.337500X-0.475000X0.337500X-0.475000X-0.337500X0*%
%ADD41RoundRect,0.250000X-0.445000X0.545000X-0.445000X-0.545000X0.445000X-0.545000X0.445000X0.545000X0*%
%ADD42RoundRect,0.250000X-0.400000X0.550000X-0.400000X-0.550000X0.400000X-0.550000X0.400000X0.550000X0*%
%ADD43R,0.400000X1.000000*%
%ADD44C,0.990600*%
%ADD45C,0.787400*%
G04 APERTURE END LIST*
D10*
%TO.C,R_Shunt_4*%
X124420000Y-80410000D03*
X133570000Y-80410000D03*
%TD*%
D11*
%TO.C,U7*%
X160960000Y-90750000D03*
X160960000Y-89480000D03*
X160960000Y-88210000D03*
X160960000Y-86940000D03*
X160960000Y-85670000D03*
X160960000Y-84400000D03*
X160960000Y-83130000D03*
X160960000Y-81860000D03*
X160960000Y-80590000D03*
X160960000Y-79320000D03*
X151230000Y-79320000D03*
X151230000Y-80590000D03*
X151230000Y-81860000D03*
X151230000Y-83130000D03*
X151230000Y-84400000D03*
X151230000Y-85670000D03*
X151230000Y-86940000D03*
X151230000Y-88210000D03*
X151230000Y-89480000D03*
X151230000Y-90750000D03*
%TD*%
D12*
%TO.C,U1*%
X211940000Y-88300000D03*
D13*
X211940000Y-90840000D03*
X211940000Y-93380000D03*
%TD*%
D14*
%TO.C,U2*%
X186825000Y-108250000D03*
X186825000Y-108750000D03*
X186825000Y-109250000D03*
X186825000Y-109750000D03*
X186825000Y-110250000D03*
X186825000Y-110750000D03*
X186825000Y-111250000D03*
X186825000Y-111750000D03*
X186825000Y-112250000D03*
X186825000Y-112750000D03*
X186825000Y-113250000D03*
X186825000Y-113750000D03*
X186825000Y-114250000D03*
X186825000Y-114750000D03*
X186825000Y-115250000D03*
X186825000Y-115750000D03*
D15*
X188750000Y-117675000D03*
X189250000Y-117675000D03*
X189750000Y-117675000D03*
X190250000Y-117675000D03*
X190750000Y-117675000D03*
X191250000Y-117675000D03*
X191750000Y-117675000D03*
X192250000Y-117675000D03*
X192750000Y-117675000D03*
X193250000Y-117675000D03*
X193750000Y-117675000D03*
X194250000Y-117675000D03*
X194750000Y-117675000D03*
X195250000Y-117675000D03*
X195750000Y-117675000D03*
X196250000Y-117675000D03*
D14*
X198175000Y-115750000D03*
X198175000Y-115250000D03*
X198175000Y-114750000D03*
X198175000Y-114250000D03*
X198175000Y-113750000D03*
X198175000Y-113250000D03*
X198175000Y-112750000D03*
X198175000Y-112250000D03*
X198175000Y-111750000D03*
X198175000Y-111250000D03*
X198175000Y-110750000D03*
X198175000Y-110250000D03*
X198175000Y-109750000D03*
X198175000Y-109250000D03*
X198175000Y-108750000D03*
X198175000Y-108250000D03*
D15*
X196250000Y-106325000D03*
X195750000Y-106325000D03*
X195250000Y-106325000D03*
X194750000Y-106325000D03*
X194250000Y-106325000D03*
X193750000Y-106325000D03*
X193250000Y-106325000D03*
X192750000Y-106325000D03*
X192250000Y-106325000D03*
X191750000Y-106325000D03*
X191250000Y-106325000D03*
X190750000Y-106325000D03*
X190250000Y-106325000D03*
X189750000Y-106325000D03*
X189250000Y-106325000D03*
X188750000Y-106325000D03*
%TD*%
D16*
%TO.C,D4*%
X170590000Y-124657500D03*
X170590000Y-128157500D03*
%TD*%
D17*
%TO.C,R56*%
X140430000Y-118950000D03*
X137505000Y-118950000D03*
%TD*%
D18*
%TO.C,C8*%
X196250000Y-121670000D03*
X196250000Y-123745000D03*
%TD*%
D19*
%TO.C,R46*%
X166800000Y-92320000D03*
X168800000Y-92320000D03*
%TD*%
D20*
%TO.C,U10*%
X211350000Y-124100000D03*
X211350000Y-122900000D03*
X211350000Y-121700000D03*
X211350000Y-120500000D03*
X211350000Y-119300000D03*
D21*
X210000000Y-117600000D03*
X208800000Y-117600000D03*
X207600000Y-117600000D03*
X206400000Y-117600000D03*
X205200000Y-117600000D03*
X204000000Y-117600000D03*
D20*
X202650000Y-119300000D03*
X202650000Y-120500000D03*
X202650000Y-121700000D03*
X202650000Y-122950000D03*
X202650000Y-124100000D03*
%TD*%
D18*
%TO.C,C19*%
X182440000Y-107612500D03*
X182440000Y-109687500D03*
%TD*%
D10*
%TO.C,R_Shunt_1*%
X116250000Y-89370000D03*
X107100000Y-89370000D03*
%TD*%
D22*
%TO.C,J2*%
X149385000Y-67045000D03*
X103660000Y-67045000D03*
D23*
X144106000Y-64598000D03*
D24*
X139107000Y-64598000D03*
X134060000Y-64598000D03*
X129080000Y-64598000D03*
X124085000Y-64598000D03*
X119060000Y-64598000D03*
X114035000Y-64598000D03*
X109010000Y-64598000D03*
X141635000Y-69500000D03*
X136669000Y-69514000D03*
X131720000Y-69520000D03*
X126695000Y-69520000D03*
X121620000Y-69520000D03*
X116570000Y-69520000D03*
X111520000Y-69520000D03*
%TD*%
D25*
%TO.C,R37*%
X170420000Y-122077500D03*
X170420000Y-119152500D03*
%TD*%
D26*
%TO.C,C1*%
X208330000Y-79240000D03*
X216330000Y-79240000D03*
%TD*%
D27*
%TO.C,R42*%
X175140000Y-85820000D03*
X173140000Y-85820000D03*
%TD*%
D28*
%TO.C,Q1*%
X189100000Y-81995000D03*
X191000000Y-81995000D03*
X190050000Y-80120000D03*
%TD*%
D29*
%TO.C,D7*%
X169680000Y-84380000D03*
X165680000Y-84380000D03*
%TD*%
D18*
%TO.C,C2*%
X207180000Y-87212500D03*
X207180000Y-89287500D03*
%TD*%
D25*
%TO.C,R27*%
X166750000Y-107777500D03*
X166750000Y-104852500D03*
%TD*%
D30*
%TO.C,J3*%
X191170000Y-130990000D03*
X191170000Y-131490000D03*
X191170000Y-131990000D03*
X191170000Y-132490000D03*
X191170000Y-132990000D03*
X191170000Y-133490000D03*
X191170000Y-133990000D03*
X191170000Y-134490000D03*
D31*
X187920000Y-129090000D03*
X187920000Y-136390000D03*
%TD*%
D27*
%TO.C,R40*%
X175150000Y-87830000D03*
X173150000Y-87830000D03*
%TD*%
D19*
%TO.C,R47*%
X166750000Y-81440000D03*
X168750000Y-81440000D03*
%TD*%
D32*
%TO.C,C6*%
X184285000Y-105180000D03*
X186360000Y-105180000D03*
%TD*%
D33*
%TO.C,R44*%
X164690000Y-77390000D03*
X164690000Y-79390000D03*
%TD*%
D17*
%TO.C,R57*%
X140430000Y-121620000D03*
X137505000Y-121620000D03*
%TD*%
D18*
%TO.C,C21*%
X199890000Y-123062500D03*
X199890000Y-125137500D03*
%TD*%
D29*
%TO.C,D6*%
X170667500Y-95390000D03*
X166667500Y-95390000D03*
%TD*%
D34*
%TO.C,D2*%
X213000000Y-72000000D03*
X217000000Y-72000000D03*
%TD*%
D22*
%TO.C,J1*%
X210050000Y-65500000D03*
X169476000Y-65633000D03*
D23*
X204995000Y-62931000D03*
D24*
X202455000Y-62931000D03*
X199915000Y-62931000D03*
X197375000Y-62931000D03*
X194835000Y-62931000D03*
X192295000Y-62931000D03*
X189755000Y-62931000D03*
X187215000Y-62931000D03*
X184675000Y-62931000D03*
X182135000Y-62931000D03*
X179595000Y-62931000D03*
X177055000Y-62931000D03*
X174515000Y-62931000D03*
X204995000Y-65471000D03*
X202455000Y-65471000D03*
X199915000Y-65471000D03*
X197375000Y-65471000D03*
X194835000Y-65471000D03*
X192295000Y-65471000D03*
X189755000Y-65471000D03*
X187215000Y-65471000D03*
X184675000Y-65471000D03*
X182135000Y-65471000D03*
X179595000Y-65471000D03*
X177055000Y-65471000D03*
X174515000Y-65471000D03*
%TD*%
D35*
%TO.C,K2*%
X126330000Y-99310000D03*
D36*
X124380000Y-96660000D03*
D37*
X120980000Y-96660000D03*
D38*
X117030000Y-97460000D03*
D35*
X117630000Y-101960000D03*
X115630000Y-106110000D03*
D36*
X117580000Y-108760000D03*
D37*
X120980000Y-108760000D03*
D38*
X125530000Y-107960000D03*
D35*
X124930000Y-103460000D03*
%TD*%
D39*
%TO.C,R43*%
X173210000Y-83890000D03*
X173210000Y-81890000D03*
%TD*%
D34*
%TO.C,D5*%
X183840000Y-74300000D03*
X187840000Y-74300000D03*
%TD*%
D18*
%TO.C,C11*%
X173010000Y-125202500D03*
X173010000Y-127277500D03*
%TD*%
D33*
%TO.C,R36*%
X173130000Y-119685000D03*
X173130000Y-121685000D03*
%TD*%
D19*
%TO.C,R39*%
X189050000Y-86410000D03*
X191050000Y-86410000D03*
%TD*%
D18*
%TO.C,C20*%
X182460000Y-111652500D03*
X182460000Y-113727500D03*
%TD*%
D29*
%TO.C,D1*%
X209500000Y-72000000D03*
X205500000Y-72000000D03*
%TD*%
D33*
%TO.C,R38*%
X185990000Y-82030000D03*
X185990000Y-84030000D03*
%TD*%
D10*
%TO.C,R_Shunt_2*%
X116250000Y-80590000D03*
X107100000Y-80590000D03*
%TD*%
D35*
%TO.C,K1*%
X105940000Y-99690000D03*
D36*
X103990000Y-97040000D03*
D37*
X100590000Y-97040000D03*
D38*
X96640000Y-97840000D03*
D35*
X97240000Y-102340000D03*
X95240000Y-106490000D03*
D36*
X97190000Y-109140000D03*
D37*
X100590000Y-109140000D03*
D38*
X105140000Y-108340000D03*
D35*
X104540000Y-103840000D03*
%TD*%
D40*
%TO.C,C4*%
X207190000Y-93410000D03*
X207190000Y-91335000D03*
%TD*%
D18*
%TO.C,C7*%
X189760000Y-121750000D03*
X189760000Y-123825000D03*
%TD*%
%TO.C,C5*%
X166440000Y-111002500D03*
X166440000Y-113077500D03*
%TD*%
D35*
%TO.C,K3*%
X146200000Y-99550000D03*
D36*
X144250000Y-96900000D03*
D37*
X140850000Y-96900000D03*
D38*
X136900000Y-97700000D03*
D35*
X137500000Y-102200000D03*
X135500000Y-106350000D03*
D36*
X137450000Y-109000000D03*
D37*
X140850000Y-109000000D03*
D38*
X145400000Y-108200000D03*
D35*
X144800000Y-103700000D03*
%TD*%
D16*
%TO.C,D3*%
X163820000Y-110307500D03*
X163820000Y-113807500D03*
%TD*%
D41*
%TO.C,C3*%
X207210000Y-95470000D03*
X207210000Y-98350000D03*
%TD*%
D42*
%TO.C,Y1*%
X176940000Y-109080000D03*
X176940000Y-112380000D03*
X178940000Y-112380000D03*
X178940000Y-109080000D03*
%TD*%
D43*
%TO.C,U11*%
X119940000Y-123170000D03*
X120590000Y-123170000D03*
X121240000Y-123170000D03*
X121890000Y-123170000D03*
X122540000Y-123170000D03*
X123190000Y-123170000D03*
X123840000Y-123170000D03*
X124490000Y-123170000D03*
X125140000Y-123170000D03*
X125140000Y-117770000D03*
X124490000Y-117770000D03*
X123840000Y-117770000D03*
X123190000Y-117770000D03*
X122540000Y-117770000D03*
X121890000Y-117770000D03*
X121240000Y-117770000D03*
X120590000Y-117770000D03*
X119940000Y-117770000D03*
%TD*%
D33*
%TO.C,R26*%
X163860000Y-105335000D03*
X163860000Y-107335000D03*
%TD*%
D39*
%TO.C,R9*%
X190800000Y-102980000D03*
X190800000Y-100980000D03*
%TD*%
D19*
%TO.C,R45*%
X166760000Y-79280000D03*
X168760000Y-79280000D03*
%TD*%
D44*
%TO.C,J4*%
X213020000Y-135125000D03*
X218100000Y-134109000D03*
X218100000Y-136141000D03*
D45*
X214290000Y-135760000D03*
X214290000Y-134490000D03*
X215560000Y-135760000D03*
X215560000Y-134490000D03*
X216830000Y-135760000D03*
X216830000Y-134490000D03*
%TD*%
D32*
%TO.C,C12*%
X155072500Y-75830000D03*
X157147500Y-75830000D03*
%TD*%
%TO.C,C10*%
X201705000Y-107800000D03*
X203780000Y-107800000D03*
%TD*%
D39*
%TO.C,R41*%
X173190000Y-91790000D03*
X173190000Y-89790000D03*
%TD*%
D10*
%TO.C,R_Shunt_3*%
X124545000Y-88890000D03*
X133695000Y-88890000D03*
%TD*%
D18*
%TO.C,C9*%
X184780000Y-116892500D03*
X184780000Y-118967500D03*
%TD*%
M02*
