%TF.GenerationSoftware,KiCad,Pcbnew,10.0.1*%
%TF.CreationDate,2026-05-25T19:28:02+01:00*%
%TF.ProjectId,caculateur,63616375-6c61-4746-9575-722e6b696361,1.0*%
%TF.SameCoordinates,Original*%
%TF.FileFunction,Legend,Top*%
%TF.FilePolarity,Positive*%
%FSLAX46Y46*%
G04 Gerber Fmt 4.6, Leading zero omitted, Abs format (unit mm)*
G04 Created by KiCad (PCBNEW 10.0.1) date 2026-05-25 19:28:02*
%MOMM*%
%LPD*%
G01*
G04 APERTURE LIST*
%ADD10C,0.150000*%
%ADD11C,0.100000*%
%ADD12C,0.120000*%
%ADD13C,0.152400*%
%ADD14C,0.508000*%
%ADD15C,3.200000*%
G04 APERTURE END LIST*
D10*
X155333095Y-91839819D02*
X155333095Y-92649342D01*
X155333095Y-92649342D02*
X155380714Y-92744580D01*
X155380714Y-92744580D02*
X155428333Y-92792200D01*
X155428333Y-92792200D02*
X155523571Y-92839819D01*
X155523571Y-92839819D02*
X155714047Y-92839819D01*
X155714047Y-92839819D02*
X155809285Y-92792200D01*
X155809285Y-92792200D02*
X155856904Y-92744580D01*
X155856904Y-92744580D02*
X155904523Y-92649342D01*
X155904523Y-92649342D02*
X155904523Y-91839819D01*
X156285476Y-91839819D02*
X156952142Y-91839819D01*
X156952142Y-91839819D02*
X156523571Y-92839819D01*
X207618095Y-84954819D02*
X207618095Y-85764342D01*
X207618095Y-85764342D02*
X207665714Y-85859580D01*
X207665714Y-85859580D02*
X207713333Y-85907200D01*
X207713333Y-85907200D02*
X207808571Y-85954819D01*
X207808571Y-85954819D02*
X207999047Y-85954819D01*
X207999047Y-85954819D02*
X208094285Y-85907200D01*
X208094285Y-85907200D02*
X208141904Y-85859580D01*
X208141904Y-85859580D02*
X208189523Y-85764342D01*
X208189523Y-85764342D02*
X208189523Y-84954819D01*
X209189523Y-85954819D02*
X208618095Y-85954819D01*
X208903809Y-85954819D02*
X208903809Y-84954819D01*
X208903809Y-84954819D02*
X208808571Y-85097676D01*
X208808571Y-85097676D02*
X208713333Y-85192914D01*
X208713333Y-85192914D02*
X208618095Y-85240533D01*
X191738095Y-104054819D02*
X191738095Y-104864342D01*
X191738095Y-104864342D02*
X191785714Y-104959580D01*
X191785714Y-104959580D02*
X191833333Y-105007200D01*
X191833333Y-105007200D02*
X191928571Y-105054819D01*
X191928571Y-105054819D02*
X192119047Y-105054819D01*
X192119047Y-105054819D02*
X192214285Y-105007200D01*
X192214285Y-105007200D02*
X192261904Y-104959580D01*
X192261904Y-104959580D02*
X192309523Y-104864342D01*
X192309523Y-104864342D02*
X192309523Y-104054819D01*
X192738095Y-104150057D02*
X192785714Y-104102438D01*
X192785714Y-104102438D02*
X192880952Y-104054819D01*
X192880952Y-104054819D02*
X193119047Y-104054819D01*
X193119047Y-104054819D02*
X193214285Y-104102438D01*
X193214285Y-104102438D02*
X193261904Y-104150057D01*
X193261904Y-104150057D02*
X193309523Y-104245295D01*
X193309523Y-104245295D02*
X193309523Y-104340533D01*
X193309523Y-104340533D02*
X193261904Y-104483390D01*
X193261904Y-104483390D02*
X192690476Y-105054819D01*
X192690476Y-105054819D02*
X193309523Y-105054819D01*
X167371905Y-126904819D02*
X167371905Y-125904819D01*
X167371905Y-125904819D02*
X167610000Y-125904819D01*
X167610000Y-125904819D02*
X167752857Y-125952438D01*
X167752857Y-125952438D02*
X167848095Y-126047676D01*
X167848095Y-126047676D02*
X167895714Y-126142914D01*
X167895714Y-126142914D02*
X167943333Y-126333390D01*
X167943333Y-126333390D02*
X167943333Y-126476247D01*
X167943333Y-126476247D02*
X167895714Y-126666723D01*
X167895714Y-126666723D02*
X167848095Y-126761961D01*
X167848095Y-126761961D02*
X167752857Y-126857200D01*
X167752857Y-126857200D02*
X167610000Y-126904819D01*
X167610000Y-126904819D02*
X167371905Y-126904819D01*
X168800476Y-126238152D02*
X168800476Y-126904819D01*
X168562381Y-125857200D02*
X168324286Y-126571485D01*
X168324286Y-126571485D02*
X168943333Y-126571485D01*
X142054642Y-119192319D02*
X141721309Y-118716128D01*
X141483214Y-119192319D02*
X141483214Y-118192319D01*
X141483214Y-118192319D02*
X141864166Y-118192319D01*
X141864166Y-118192319D02*
X141959404Y-118239938D01*
X141959404Y-118239938D02*
X142007023Y-118287557D01*
X142007023Y-118287557D02*
X142054642Y-118382795D01*
X142054642Y-118382795D02*
X142054642Y-118525652D01*
X142054642Y-118525652D02*
X142007023Y-118620890D01*
X142007023Y-118620890D02*
X141959404Y-118668509D01*
X141959404Y-118668509D02*
X141864166Y-118716128D01*
X141864166Y-118716128D02*
X141483214Y-118716128D01*
X142959404Y-118192319D02*
X142483214Y-118192319D01*
X142483214Y-118192319D02*
X142435595Y-118668509D01*
X142435595Y-118668509D02*
X142483214Y-118620890D01*
X142483214Y-118620890D02*
X142578452Y-118573271D01*
X142578452Y-118573271D02*
X142816547Y-118573271D01*
X142816547Y-118573271D02*
X142911785Y-118620890D01*
X142911785Y-118620890D02*
X142959404Y-118668509D01*
X142959404Y-118668509D02*
X143007023Y-118763747D01*
X143007023Y-118763747D02*
X143007023Y-119001842D01*
X143007023Y-119001842D02*
X142959404Y-119097080D01*
X142959404Y-119097080D02*
X142911785Y-119144700D01*
X142911785Y-119144700D02*
X142816547Y-119192319D01*
X142816547Y-119192319D02*
X142578452Y-119192319D01*
X142578452Y-119192319D02*
X142483214Y-119144700D01*
X142483214Y-119144700D02*
X142435595Y-119097080D01*
X143864166Y-118192319D02*
X143673690Y-118192319D01*
X143673690Y-118192319D02*
X143578452Y-118239938D01*
X143578452Y-118239938D02*
X143530833Y-118287557D01*
X143530833Y-118287557D02*
X143435595Y-118430414D01*
X143435595Y-118430414D02*
X143387976Y-118620890D01*
X143387976Y-118620890D02*
X143387976Y-119001842D01*
X143387976Y-119001842D02*
X143435595Y-119097080D01*
X143435595Y-119097080D02*
X143483214Y-119144700D01*
X143483214Y-119144700D02*
X143578452Y-119192319D01*
X143578452Y-119192319D02*
X143768928Y-119192319D01*
X143768928Y-119192319D02*
X143864166Y-119144700D01*
X143864166Y-119144700D02*
X143911785Y-119097080D01*
X143911785Y-119097080D02*
X143959404Y-119001842D01*
X143959404Y-119001842D02*
X143959404Y-118763747D01*
X143959404Y-118763747D02*
X143911785Y-118668509D01*
X143911785Y-118668509D02*
X143864166Y-118620890D01*
X143864166Y-118620890D02*
X143768928Y-118573271D01*
X143768928Y-118573271D02*
X143578452Y-118573271D01*
X143578452Y-118573271D02*
X143483214Y-118620890D01*
X143483214Y-118620890D02*
X143435595Y-118668509D01*
X143435595Y-118668509D02*
X143387976Y-118763747D01*
X196063333Y-125724580D02*
X196015714Y-125772200D01*
X196015714Y-125772200D02*
X195872857Y-125819819D01*
X195872857Y-125819819D02*
X195777619Y-125819819D01*
X195777619Y-125819819D02*
X195634762Y-125772200D01*
X195634762Y-125772200D02*
X195539524Y-125676961D01*
X195539524Y-125676961D02*
X195491905Y-125581723D01*
X195491905Y-125581723D02*
X195444286Y-125391247D01*
X195444286Y-125391247D02*
X195444286Y-125248390D01*
X195444286Y-125248390D02*
X195491905Y-125057914D01*
X195491905Y-125057914D02*
X195539524Y-124962676D01*
X195539524Y-124962676D02*
X195634762Y-124867438D01*
X195634762Y-124867438D02*
X195777619Y-124819819D01*
X195777619Y-124819819D02*
X195872857Y-124819819D01*
X195872857Y-124819819D02*
X196015714Y-124867438D01*
X196015714Y-124867438D02*
X196063333Y-124915057D01*
X196634762Y-125248390D02*
X196539524Y-125200771D01*
X196539524Y-125200771D02*
X196491905Y-125153152D01*
X196491905Y-125153152D02*
X196444286Y-125057914D01*
X196444286Y-125057914D02*
X196444286Y-125010295D01*
X196444286Y-125010295D02*
X196491905Y-124915057D01*
X196491905Y-124915057D02*
X196539524Y-124867438D01*
X196539524Y-124867438D02*
X196634762Y-124819819D01*
X196634762Y-124819819D02*
X196825238Y-124819819D01*
X196825238Y-124819819D02*
X196920476Y-124867438D01*
X196920476Y-124867438D02*
X196968095Y-124915057D01*
X196968095Y-124915057D02*
X197015714Y-125010295D01*
X197015714Y-125010295D02*
X197015714Y-125057914D01*
X197015714Y-125057914D02*
X196968095Y-125153152D01*
X196968095Y-125153152D02*
X196920476Y-125200771D01*
X196920476Y-125200771D02*
X196825238Y-125248390D01*
X196825238Y-125248390D02*
X196634762Y-125248390D01*
X196634762Y-125248390D02*
X196539524Y-125296009D01*
X196539524Y-125296009D02*
X196491905Y-125343628D01*
X196491905Y-125343628D02*
X196444286Y-125438866D01*
X196444286Y-125438866D02*
X196444286Y-125629342D01*
X196444286Y-125629342D02*
X196491905Y-125724580D01*
X196491905Y-125724580D02*
X196539524Y-125772200D01*
X196539524Y-125772200D02*
X196634762Y-125819819D01*
X196634762Y-125819819D02*
X196825238Y-125819819D01*
X196825238Y-125819819D02*
X196920476Y-125772200D01*
X196920476Y-125772200D02*
X196968095Y-125724580D01*
X196968095Y-125724580D02*
X197015714Y-125629342D01*
X197015714Y-125629342D02*
X197015714Y-125438866D01*
X197015714Y-125438866D02*
X196968095Y-125343628D01*
X196968095Y-125343628D02*
X196920476Y-125296009D01*
X196920476Y-125296009D02*
X196825238Y-125248390D01*
X167432142Y-91354819D02*
X167098809Y-90878628D01*
X166860714Y-91354819D02*
X166860714Y-90354819D01*
X166860714Y-90354819D02*
X167241666Y-90354819D01*
X167241666Y-90354819D02*
X167336904Y-90402438D01*
X167336904Y-90402438D02*
X167384523Y-90450057D01*
X167384523Y-90450057D02*
X167432142Y-90545295D01*
X167432142Y-90545295D02*
X167432142Y-90688152D01*
X167432142Y-90688152D02*
X167384523Y-90783390D01*
X167384523Y-90783390D02*
X167336904Y-90831009D01*
X167336904Y-90831009D02*
X167241666Y-90878628D01*
X167241666Y-90878628D02*
X166860714Y-90878628D01*
X168289285Y-90688152D02*
X168289285Y-91354819D01*
X168051190Y-90307200D02*
X167813095Y-91021485D01*
X167813095Y-91021485D02*
X168432142Y-91021485D01*
X169241666Y-90354819D02*
X169051190Y-90354819D01*
X169051190Y-90354819D02*
X168955952Y-90402438D01*
X168955952Y-90402438D02*
X168908333Y-90450057D01*
X168908333Y-90450057D02*
X168813095Y-90592914D01*
X168813095Y-90592914D02*
X168765476Y-90783390D01*
X168765476Y-90783390D02*
X168765476Y-91164342D01*
X168765476Y-91164342D02*
X168813095Y-91259580D01*
X168813095Y-91259580D02*
X168860714Y-91307200D01*
X168860714Y-91307200D02*
X168955952Y-91354819D01*
X168955952Y-91354819D02*
X169146428Y-91354819D01*
X169146428Y-91354819D02*
X169241666Y-91307200D01*
X169241666Y-91307200D02*
X169289285Y-91259580D01*
X169289285Y-91259580D02*
X169336904Y-91164342D01*
X169336904Y-91164342D02*
X169336904Y-90926247D01*
X169336904Y-90926247D02*
X169289285Y-90831009D01*
X169289285Y-90831009D02*
X169241666Y-90783390D01*
X169241666Y-90783390D02*
X169146428Y-90735771D01*
X169146428Y-90735771D02*
X168955952Y-90735771D01*
X168955952Y-90735771D02*
X168860714Y-90783390D01*
X168860714Y-90783390D02*
X168813095Y-90831009D01*
X168813095Y-90831009D02*
X168765476Y-90926247D01*
X200411905Y-115114819D02*
X200411905Y-115924342D01*
X200411905Y-115924342D02*
X200459524Y-116019580D01*
X200459524Y-116019580D02*
X200507143Y-116067200D01*
X200507143Y-116067200D02*
X200602381Y-116114819D01*
X200602381Y-116114819D02*
X200792857Y-116114819D01*
X200792857Y-116114819D02*
X200888095Y-116067200D01*
X200888095Y-116067200D02*
X200935714Y-116019580D01*
X200935714Y-116019580D02*
X200983333Y-115924342D01*
X200983333Y-115924342D02*
X200983333Y-115114819D01*
X201983333Y-116114819D02*
X201411905Y-116114819D01*
X201697619Y-116114819D02*
X201697619Y-115114819D01*
X201697619Y-115114819D02*
X201602381Y-115257676D01*
X201602381Y-115257676D02*
X201507143Y-115352914D01*
X201507143Y-115352914D02*
X201411905Y-115400533D01*
X202602381Y-115114819D02*
X202697619Y-115114819D01*
X202697619Y-115114819D02*
X202792857Y-115162438D01*
X202792857Y-115162438D02*
X202840476Y-115210057D01*
X202840476Y-115210057D02*
X202888095Y-115305295D01*
X202888095Y-115305295D02*
X202935714Y-115495771D01*
X202935714Y-115495771D02*
X202935714Y-115733866D01*
X202935714Y-115733866D02*
X202888095Y-115924342D01*
X202888095Y-115924342D02*
X202840476Y-116019580D01*
X202840476Y-116019580D02*
X202792857Y-116067200D01*
X202792857Y-116067200D02*
X202697619Y-116114819D01*
X202697619Y-116114819D02*
X202602381Y-116114819D01*
X202602381Y-116114819D02*
X202507143Y-116067200D01*
X202507143Y-116067200D02*
X202459524Y-116019580D01*
X202459524Y-116019580D02*
X202411905Y-115924342D01*
X202411905Y-115924342D02*
X202364286Y-115733866D01*
X202364286Y-115733866D02*
X202364286Y-115495771D01*
X202364286Y-115495771D02*
X202411905Y-115305295D01*
X202411905Y-115305295D02*
X202459524Y-115210057D01*
X202459524Y-115210057D02*
X202507143Y-115162438D01*
X202507143Y-115162438D02*
X202602381Y-115114819D01*
X181087142Y-106459580D02*
X181039523Y-106507200D01*
X181039523Y-106507200D02*
X180896666Y-106554819D01*
X180896666Y-106554819D02*
X180801428Y-106554819D01*
X180801428Y-106554819D02*
X180658571Y-106507200D01*
X180658571Y-106507200D02*
X180563333Y-106411961D01*
X180563333Y-106411961D02*
X180515714Y-106316723D01*
X180515714Y-106316723D02*
X180468095Y-106126247D01*
X180468095Y-106126247D02*
X180468095Y-105983390D01*
X180468095Y-105983390D02*
X180515714Y-105792914D01*
X180515714Y-105792914D02*
X180563333Y-105697676D01*
X180563333Y-105697676D02*
X180658571Y-105602438D01*
X180658571Y-105602438D02*
X180801428Y-105554819D01*
X180801428Y-105554819D02*
X180896666Y-105554819D01*
X180896666Y-105554819D02*
X181039523Y-105602438D01*
X181039523Y-105602438D02*
X181087142Y-105650057D01*
X182039523Y-106554819D02*
X181468095Y-106554819D01*
X181753809Y-106554819D02*
X181753809Y-105554819D01*
X181753809Y-105554819D02*
X181658571Y-105697676D01*
X181658571Y-105697676D02*
X181563333Y-105792914D01*
X181563333Y-105792914D02*
X181468095Y-105840533D01*
X182515714Y-106554819D02*
X182706190Y-106554819D01*
X182706190Y-106554819D02*
X182801428Y-106507200D01*
X182801428Y-106507200D02*
X182849047Y-106459580D01*
X182849047Y-106459580D02*
X182944285Y-106316723D01*
X182944285Y-106316723D02*
X182991904Y-106126247D01*
X182991904Y-106126247D02*
X182991904Y-105745295D01*
X182991904Y-105745295D02*
X182944285Y-105650057D01*
X182944285Y-105650057D02*
X182896666Y-105602438D01*
X182896666Y-105602438D02*
X182801428Y-105554819D01*
X182801428Y-105554819D02*
X182610952Y-105554819D01*
X182610952Y-105554819D02*
X182515714Y-105602438D01*
X182515714Y-105602438D02*
X182468095Y-105650057D01*
X182468095Y-105650057D02*
X182420476Y-105745295D01*
X182420476Y-105745295D02*
X182420476Y-105983390D01*
X182420476Y-105983390D02*
X182468095Y-106078628D01*
X182468095Y-106078628D02*
X182515714Y-106126247D01*
X182515714Y-106126247D02*
X182610952Y-106173866D01*
X182610952Y-106173866D02*
X182801428Y-106173866D01*
X182801428Y-106173866D02*
X182896666Y-106126247D01*
X182896666Y-106126247D02*
X182944285Y-106078628D01*
X182944285Y-106078628D02*
X182991904Y-105983390D01*
D11*
X100506666Y-60587419D02*
X100506666Y-61301704D01*
X100506666Y-61301704D02*
X100459047Y-61444561D01*
X100459047Y-61444561D02*
X100363809Y-61539800D01*
X100363809Y-61539800D02*
X100220952Y-61587419D01*
X100220952Y-61587419D02*
X100125714Y-61587419D01*
X100935238Y-60682657D02*
X100982857Y-60635038D01*
X100982857Y-60635038D02*
X101078095Y-60587419D01*
X101078095Y-60587419D02*
X101316190Y-60587419D01*
X101316190Y-60587419D02*
X101411428Y-60635038D01*
X101411428Y-60635038D02*
X101459047Y-60682657D01*
X101459047Y-60682657D02*
X101506666Y-60777895D01*
X101506666Y-60777895D02*
X101506666Y-60873133D01*
X101506666Y-60873133D02*
X101459047Y-61015990D01*
X101459047Y-61015990D02*
X100887619Y-61587419D01*
X100887619Y-61587419D02*
X101506666Y-61587419D01*
D10*
X167177142Y-121214819D02*
X166843809Y-120738628D01*
X166605714Y-121214819D02*
X166605714Y-120214819D01*
X166605714Y-120214819D02*
X166986666Y-120214819D01*
X166986666Y-120214819D02*
X167081904Y-120262438D01*
X167081904Y-120262438D02*
X167129523Y-120310057D01*
X167129523Y-120310057D02*
X167177142Y-120405295D01*
X167177142Y-120405295D02*
X167177142Y-120548152D01*
X167177142Y-120548152D02*
X167129523Y-120643390D01*
X167129523Y-120643390D02*
X167081904Y-120691009D01*
X167081904Y-120691009D02*
X166986666Y-120738628D01*
X166986666Y-120738628D02*
X166605714Y-120738628D01*
X167510476Y-120214819D02*
X168129523Y-120214819D01*
X168129523Y-120214819D02*
X167796190Y-120595771D01*
X167796190Y-120595771D02*
X167939047Y-120595771D01*
X167939047Y-120595771D02*
X168034285Y-120643390D01*
X168034285Y-120643390D02*
X168081904Y-120691009D01*
X168081904Y-120691009D02*
X168129523Y-120786247D01*
X168129523Y-120786247D02*
X168129523Y-121024342D01*
X168129523Y-121024342D02*
X168081904Y-121119580D01*
X168081904Y-121119580D02*
X168034285Y-121167200D01*
X168034285Y-121167200D02*
X167939047Y-121214819D01*
X167939047Y-121214819D02*
X167653333Y-121214819D01*
X167653333Y-121214819D02*
X167558095Y-121167200D01*
X167558095Y-121167200D02*
X167510476Y-121119580D01*
X168462857Y-120214819D02*
X169129523Y-120214819D01*
X169129523Y-120214819D02*
X168700952Y-121214819D01*
X205663333Y-75289580D02*
X205615714Y-75337200D01*
X205615714Y-75337200D02*
X205472857Y-75384819D01*
X205472857Y-75384819D02*
X205377619Y-75384819D01*
X205377619Y-75384819D02*
X205234762Y-75337200D01*
X205234762Y-75337200D02*
X205139524Y-75241961D01*
X205139524Y-75241961D02*
X205091905Y-75146723D01*
X205091905Y-75146723D02*
X205044286Y-74956247D01*
X205044286Y-74956247D02*
X205044286Y-74813390D01*
X205044286Y-74813390D02*
X205091905Y-74622914D01*
X205091905Y-74622914D02*
X205139524Y-74527676D01*
X205139524Y-74527676D02*
X205234762Y-74432438D01*
X205234762Y-74432438D02*
X205377619Y-74384819D01*
X205377619Y-74384819D02*
X205472857Y-74384819D01*
X205472857Y-74384819D02*
X205615714Y-74432438D01*
X205615714Y-74432438D02*
X205663333Y-74480057D01*
X206615714Y-75384819D02*
X206044286Y-75384819D01*
X206330000Y-75384819D02*
X206330000Y-74384819D01*
X206330000Y-74384819D02*
X206234762Y-74527676D01*
X206234762Y-74527676D02*
X206139524Y-74622914D01*
X206139524Y-74622914D02*
X206044286Y-74670533D01*
X176867142Y-86214819D02*
X176533809Y-85738628D01*
X176295714Y-86214819D02*
X176295714Y-85214819D01*
X176295714Y-85214819D02*
X176676666Y-85214819D01*
X176676666Y-85214819D02*
X176771904Y-85262438D01*
X176771904Y-85262438D02*
X176819523Y-85310057D01*
X176819523Y-85310057D02*
X176867142Y-85405295D01*
X176867142Y-85405295D02*
X176867142Y-85548152D01*
X176867142Y-85548152D02*
X176819523Y-85643390D01*
X176819523Y-85643390D02*
X176771904Y-85691009D01*
X176771904Y-85691009D02*
X176676666Y-85738628D01*
X176676666Y-85738628D02*
X176295714Y-85738628D01*
X177724285Y-85548152D02*
X177724285Y-86214819D01*
X177486190Y-85167200D02*
X177248095Y-85881485D01*
X177248095Y-85881485D02*
X177867142Y-85881485D01*
X178200476Y-85310057D02*
X178248095Y-85262438D01*
X178248095Y-85262438D02*
X178343333Y-85214819D01*
X178343333Y-85214819D02*
X178581428Y-85214819D01*
X178581428Y-85214819D02*
X178676666Y-85262438D01*
X178676666Y-85262438D02*
X178724285Y-85310057D01*
X178724285Y-85310057D02*
X178771904Y-85405295D01*
X178771904Y-85405295D02*
X178771904Y-85500533D01*
X178771904Y-85500533D02*
X178724285Y-85643390D01*
X178724285Y-85643390D02*
X178152857Y-86214819D01*
X178152857Y-86214819D02*
X178771904Y-86214819D01*
X192774761Y-81570057D02*
X192679523Y-81522438D01*
X192679523Y-81522438D02*
X192584285Y-81427200D01*
X192584285Y-81427200D02*
X192441428Y-81284342D01*
X192441428Y-81284342D02*
X192346190Y-81236723D01*
X192346190Y-81236723D02*
X192250952Y-81236723D01*
X192298571Y-81474819D02*
X192203333Y-81427200D01*
X192203333Y-81427200D02*
X192108095Y-81331961D01*
X192108095Y-81331961D02*
X192060476Y-81141485D01*
X192060476Y-81141485D02*
X192060476Y-80808152D01*
X192060476Y-80808152D02*
X192108095Y-80617676D01*
X192108095Y-80617676D02*
X192203333Y-80522438D01*
X192203333Y-80522438D02*
X192298571Y-80474819D01*
X192298571Y-80474819D02*
X192489047Y-80474819D01*
X192489047Y-80474819D02*
X192584285Y-80522438D01*
X192584285Y-80522438D02*
X192679523Y-80617676D01*
X192679523Y-80617676D02*
X192727142Y-80808152D01*
X192727142Y-80808152D02*
X192727142Y-81141485D01*
X192727142Y-81141485D02*
X192679523Y-81331961D01*
X192679523Y-81331961D02*
X192584285Y-81427200D01*
X192584285Y-81427200D02*
X192489047Y-81474819D01*
X192489047Y-81474819D02*
X192298571Y-81474819D01*
X193679523Y-81474819D02*
X193108095Y-81474819D01*
X193393809Y-81474819D02*
X193393809Y-80474819D01*
X193393809Y-80474819D02*
X193298571Y-80617676D01*
X193298571Y-80617676D02*
X193203333Y-80712914D01*
X193203333Y-80712914D02*
X193108095Y-80760533D01*
X163621905Y-87034819D02*
X163621905Y-86034819D01*
X163621905Y-86034819D02*
X163860000Y-86034819D01*
X163860000Y-86034819D02*
X164002857Y-86082438D01*
X164002857Y-86082438D02*
X164098095Y-86177676D01*
X164098095Y-86177676D02*
X164145714Y-86272914D01*
X164145714Y-86272914D02*
X164193333Y-86463390D01*
X164193333Y-86463390D02*
X164193333Y-86606247D01*
X164193333Y-86606247D02*
X164145714Y-86796723D01*
X164145714Y-86796723D02*
X164098095Y-86891961D01*
X164098095Y-86891961D02*
X164002857Y-86987200D01*
X164002857Y-86987200D02*
X163860000Y-87034819D01*
X163860000Y-87034819D02*
X163621905Y-87034819D01*
X164526667Y-86034819D02*
X165193333Y-86034819D01*
X165193333Y-86034819D02*
X164764762Y-87034819D01*
X204783333Y-88687080D02*
X204735714Y-88734700D01*
X204735714Y-88734700D02*
X204592857Y-88782319D01*
X204592857Y-88782319D02*
X204497619Y-88782319D01*
X204497619Y-88782319D02*
X204354762Y-88734700D01*
X204354762Y-88734700D02*
X204259524Y-88639461D01*
X204259524Y-88639461D02*
X204211905Y-88544223D01*
X204211905Y-88544223D02*
X204164286Y-88353747D01*
X204164286Y-88353747D02*
X204164286Y-88210890D01*
X204164286Y-88210890D02*
X204211905Y-88020414D01*
X204211905Y-88020414D02*
X204259524Y-87925176D01*
X204259524Y-87925176D02*
X204354762Y-87829938D01*
X204354762Y-87829938D02*
X204497619Y-87782319D01*
X204497619Y-87782319D02*
X204592857Y-87782319D01*
X204592857Y-87782319D02*
X204735714Y-87829938D01*
X204735714Y-87829938D02*
X204783333Y-87877557D01*
X205164286Y-87877557D02*
X205211905Y-87829938D01*
X205211905Y-87829938D02*
X205307143Y-87782319D01*
X205307143Y-87782319D02*
X205545238Y-87782319D01*
X205545238Y-87782319D02*
X205640476Y-87829938D01*
X205640476Y-87829938D02*
X205688095Y-87877557D01*
X205688095Y-87877557D02*
X205735714Y-87972795D01*
X205735714Y-87972795D02*
X205735714Y-88068033D01*
X205735714Y-88068033D02*
X205688095Y-88210890D01*
X205688095Y-88210890D02*
X205116667Y-88782319D01*
X205116667Y-88782319D02*
X205735714Y-88782319D01*
X168877142Y-106604819D02*
X168543809Y-106128628D01*
X168305714Y-106604819D02*
X168305714Y-105604819D01*
X168305714Y-105604819D02*
X168686666Y-105604819D01*
X168686666Y-105604819D02*
X168781904Y-105652438D01*
X168781904Y-105652438D02*
X168829523Y-105700057D01*
X168829523Y-105700057D02*
X168877142Y-105795295D01*
X168877142Y-105795295D02*
X168877142Y-105938152D01*
X168877142Y-105938152D02*
X168829523Y-106033390D01*
X168829523Y-106033390D02*
X168781904Y-106081009D01*
X168781904Y-106081009D02*
X168686666Y-106128628D01*
X168686666Y-106128628D02*
X168305714Y-106128628D01*
X169258095Y-105700057D02*
X169305714Y-105652438D01*
X169305714Y-105652438D02*
X169400952Y-105604819D01*
X169400952Y-105604819D02*
X169639047Y-105604819D01*
X169639047Y-105604819D02*
X169734285Y-105652438D01*
X169734285Y-105652438D02*
X169781904Y-105700057D01*
X169781904Y-105700057D02*
X169829523Y-105795295D01*
X169829523Y-105795295D02*
X169829523Y-105890533D01*
X169829523Y-105890533D02*
X169781904Y-106033390D01*
X169781904Y-106033390D02*
X169210476Y-106604819D01*
X169210476Y-106604819D02*
X169829523Y-106604819D01*
X170162857Y-105604819D02*
X170829523Y-105604819D01*
X170829523Y-105604819D02*
X170400952Y-106604819D01*
X193166666Y-132174819D02*
X193166666Y-132889104D01*
X193166666Y-132889104D02*
X193119047Y-133031961D01*
X193119047Y-133031961D02*
X193023809Y-133127200D01*
X193023809Y-133127200D02*
X192880952Y-133174819D01*
X192880952Y-133174819D02*
X192785714Y-133174819D01*
X193547619Y-132174819D02*
X194166666Y-132174819D01*
X194166666Y-132174819D02*
X193833333Y-132555771D01*
X193833333Y-132555771D02*
X193976190Y-132555771D01*
X193976190Y-132555771D02*
X194071428Y-132603390D01*
X194071428Y-132603390D02*
X194119047Y-132651009D01*
X194119047Y-132651009D02*
X194166666Y-132746247D01*
X194166666Y-132746247D02*
X194166666Y-132984342D01*
X194166666Y-132984342D02*
X194119047Y-133079580D01*
X194119047Y-133079580D02*
X194071428Y-133127200D01*
X194071428Y-133127200D02*
X193976190Y-133174819D01*
X193976190Y-133174819D02*
X193690476Y-133174819D01*
X193690476Y-133174819D02*
X193595238Y-133127200D01*
X193595238Y-133127200D02*
X193547619Y-133079580D01*
X176837142Y-88354819D02*
X176503809Y-87878628D01*
X176265714Y-88354819D02*
X176265714Y-87354819D01*
X176265714Y-87354819D02*
X176646666Y-87354819D01*
X176646666Y-87354819D02*
X176741904Y-87402438D01*
X176741904Y-87402438D02*
X176789523Y-87450057D01*
X176789523Y-87450057D02*
X176837142Y-87545295D01*
X176837142Y-87545295D02*
X176837142Y-87688152D01*
X176837142Y-87688152D02*
X176789523Y-87783390D01*
X176789523Y-87783390D02*
X176741904Y-87831009D01*
X176741904Y-87831009D02*
X176646666Y-87878628D01*
X176646666Y-87878628D02*
X176265714Y-87878628D01*
X177694285Y-87688152D02*
X177694285Y-88354819D01*
X177456190Y-87307200D02*
X177218095Y-88021485D01*
X177218095Y-88021485D02*
X177837142Y-88021485D01*
X178408571Y-87354819D02*
X178503809Y-87354819D01*
X178503809Y-87354819D02*
X178599047Y-87402438D01*
X178599047Y-87402438D02*
X178646666Y-87450057D01*
X178646666Y-87450057D02*
X178694285Y-87545295D01*
X178694285Y-87545295D02*
X178741904Y-87735771D01*
X178741904Y-87735771D02*
X178741904Y-87973866D01*
X178741904Y-87973866D02*
X178694285Y-88164342D01*
X178694285Y-88164342D02*
X178646666Y-88259580D01*
X178646666Y-88259580D02*
X178599047Y-88307200D01*
X178599047Y-88307200D02*
X178503809Y-88354819D01*
X178503809Y-88354819D02*
X178408571Y-88354819D01*
X178408571Y-88354819D02*
X178313333Y-88307200D01*
X178313333Y-88307200D02*
X178265714Y-88259580D01*
X178265714Y-88259580D02*
X178218095Y-88164342D01*
X178218095Y-88164342D02*
X178170476Y-87973866D01*
X178170476Y-87973866D02*
X178170476Y-87735771D01*
X178170476Y-87735771D02*
X178218095Y-87545295D01*
X178218095Y-87545295D02*
X178265714Y-87450057D01*
X178265714Y-87450057D02*
X178313333Y-87402438D01*
X178313333Y-87402438D02*
X178408571Y-87354819D01*
X170327142Y-81914819D02*
X169993809Y-81438628D01*
X169755714Y-81914819D02*
X169755714Y-80914819D01*
X169755714Y-80914819D02*
X170136666Y-80914819D01*
X170136666Y-80914819D02*
X170231904Y-80962438D01*
X170231904Y-80962438D02*
X170279523Y-81010057D01*
X170279523Y-81010057D02*
X170327142Y-81105295D01*
X170327142Y-81105295D02*
X170327142Y-81248152D01*
X170327142Y-81248152D02*
X170279523Y-81343390D01*
X170279523Y-81343390D02*
X170231904Y-81391009D01*
X170231904Y-81391009D02*
X170136666Y-81438628D01*
X170136666Y-81438628D02*
X169755714Y-81438628D01*
X171184285Y-81248152D02*
X171184285Y-81914819D01*
X170946190Y-80867200D02*
X170708095Y-81581485D01*
X170708095Y-81581485D02*
X171327142Y-81581485D01*
X171612857Y-80914819D02*
X172279523Y-80914819D01*
X172279523Y-80914819D02*
X171850952Y-81914819D01*
X185155833Y-103859580D02*
X185108214Y-103907200D01*
X185108214Y-103907200D02*
X184965357Y-103954819D01*
X184965357Y-103954819D02*
X184870119Y-103954819D01*
X184870119Y-103954819D02*
X184727262Y-103907200D01*
X184727262Y-103907200D02*
X184632024Y-103811961D01*
X184632024Y-103811961D02*
X184584405Y-103716723D01*
X184584405Y-103716723D02*
X184536786Y-103526247D01*
X184536786Y-103526247D02*
X184536786Y-103383390D01*
X184536786Y-103383390D02*
X184584405Y-103192914D01*
X184584405Y-103192914D02*
X184632024Y-103097676D01*
X184632024Y-103097676D02*
X184727262Y-103002438D01*
X184727262Y-103002438D02*
X184870119Y-102954819D01*
X184870119Y-102954819D02*
X184965357Y-102954819D01*
X184965357Y-102954819D02*
X185108214Y-103002438D01*
X185108214Y-103002438D02*
X185155833Y-103050057D01*
X186012976Y-102954819D02*
X185822500Y-102954819D01*
X185822500Y-102954819D02*
X185727262Y-103002438D01*
X185727262Y-103002438D02*
X185679643Y-103050057D01*
X185679643Y-103050057D02*
X185584405Y-103192914D01*
X185584405Y-103192914D02*
X185536786Y-103383390D01*
X185536786Y-103383390D02*
X185536786Y-103764342D01*
X185536786Y-103764342D02*
X185584405Y-103859580D01*
X185584405Y-103859580D02*
X185632024Y-103907200D01*
X185632024Y-103907200D02*
X185727262Y-103954819D01*
X185727262Y-103954819D02*
X185917738Y-103954819D01*
X185917738Y-103954819D02*
X186012976Y-103907200D01*
X186012976Y-103907200D02*
X186060595Y-103859580D01*
X186060595Y-103859580D02*
X186108214Y-103764342D01*
X186108214Y-103764342D02*
X186108214Y-103526247D01*
X186108214Y-103526247D02*
X186060595Y-103431009D01*
X186060595Y-103431009D02*
X186012976Y-103383390D01*
X186012976Y-103383390D02*
X185917738Y-103335771D01*
X185917738Y-103335771D02*
X185727262Y-103335771D01*
X185727262Y-103335771D02*
X185632024Y-103383390D01*
X185632024Y-103383390D02*
X185584405Y-103431009D01*
X185584405Y-103431009D02*
X185536786Y-103526247D01*
X163957142Y-75744819D02*
X163623809Y-75268628D01*
X163385714Y-75744819D02*
X163385714Y-74744819D01*
X163385714Y-74744819D02*
X163766666Y-74744819D01*
X163766666Y-74744819D02*
X163861904Y-74792438D01*
X163861904Y-74792438D02*
X163909523Y-74840057D01*
X163909523Y-74840057D02*
X163957142Y-74935295D01*
X163957142Y-74935295D02*
X163957142Y-75078152D01*
X163957142Y-75078152D02*
X163909523Y-75173390D01*
X163909523Y-75173390D02*
X163861904Y-75221009D01*
X163861904Y-75221009D02*
X163766666Y-75268628D01*
X163766666Y-75268628D02*
X163385714Y-75268628D01*
X164814285Y-75078152D02*
X164814285Y-75744819D01*
X164576190Y-74697200D02*
X164338095Y-75411485D01*
X164338095Y-75411485D02*
X164957142Y-75411485D01*
X165766666Y-75078152D02*
X165766666Y-75744819D01*
X165528571Y-74697200D02*
X165290476Y-75411485D01*
X165290476Y-75411485D02*
X165909523Y-75411485D01*
X141997142Y-122054819D02*
X141663809Y-121578628D01*
X141425714Y-122054819D02*
X141425714Y-121054819D01*
X141425714Y-121054819D02*
X141806666Y-121054819D01*
X141806666Y-121054819D02*
X141901904Y-121102438D01*
X141901904Y-121102438D02*
X141949523Y-121150057D01*
X141949523Y-121150057D02*
X141997142Y-121245295D01*
X141997142Y-121245295D02*
X141997142Y-121388152D01*
X141997142Y-121388152D02*
X141949523Y-121483390D01*
X141949523Y-121483390D02*
X141901904Y-121531009D01*
X141901904Y-121531009D02*
X141806666Y-121578628D01*
X141806666Y-121578628D02*
X141425714Y-121578628D01*
X142901904Y-121054819D02*
X142425714Y-121054819D01*
X142425714Y-121054819D02*
X142378095Y-121531009D01*
X142378095Y-121531009D02*
X142425714Y-121483390D01*
X142425714Y-121483390D02*
X142520952Y-121435771D01*
X142520952Y-121435771D02*
X142759047Y-121435771D01*
X142759047Y-121435771D02*
X142854285Y-121483390D01*
X142854285Y-121483390D02*
X142901904Y-121531009D01*
X142901904Y-121531009D02*
X142949523Y-121626247D01*
X142949523Y-121626247D02*
X142949523Y-121864342D01*
X142949523Y-121864342D02*
X142901904Y-121959580D01*
X142901904Y-121959580D02*
X142854285Y-122007200D01*
X142854285Y-122007200D02*
X142759047Y-122054819D01*
X142759047Y-122054819D02*
X142520952Y-122054819D01*
X142520952Y-122054819D02*
X142425714Y-122007200D01*
X142425714Y-122007200D02*
X142378095Y-121959580D01*
X143282857Y-121054819D02*
X143949523Y-121054819D01*
X143949523Y-121054819D02*
X143520952Y-122054819D01*
X199247142Y-127149580D02*
X199199523Y-127197200D01*
X199199523Y-127197200D02*
X199056666Y-127244819D01*
X199056666Y-127244819D02*
X198961428Y-127244819D01*
X198961428Y-127244819D02*
X198818571Y-127197200D01*
X198818571Y-127197200D02*
X198723333Y-127101961D01*
X198723333Y-127101961D02*
X198675714Y-127006723D01*
X198675714Y-127006723D02*
X198628095Y-126816247D01*
X198628095Y-126816247D02*
X198628095Y-126673390D01*
X198628095Y-126673390D02*
X198675714Y-126482914D01*
X198675714Y-126482914D02*
X198723333Y-126387676D01*
X198723333Y-126387676D02*
X198818571Y-126292438D01*
X198818571Y-126292438D02*
X198961428Y-126244819D01*
X198961428Y-126244819D02*
X199056666Y-126244819D01*
X199056666Y-126244819D02*
X199199523Y-126292438D01*
X199199523Y-126292438D02*
X199247142Y-126340057D01*
X199628095Y-126340057D02*
X199675714Y-126292438D01*
X199675714Y-126292438D02*
X199770952Y-126244819D01*
X199770952Y-126244819D02*
X200009047Y-126244819D01*
X200009047Y-126244819D02*
X200104285Y-126292438D01*
X200104285Y-126292438D02*
X200151904Y-126340057D01*
X200151904Y-126340057D02*
X200199523Y-126435295D01*
X200199523Y-126435295D02*
X200199523Y-126530533D01*
X200199523Y-126530533D02*
X200151904Y-126673390D01*
X200151904Y-126673390D02*
X199580476Y-127244819D01*
X199580476Y-127244819D02*
X200199523Y-127244819D01*
X201151904Y-127244819D02*
X200580476Y-127244819D01*
X200866190Y-127244819D02*
X200866190Y-126244819D01*
X200866190Y-126244819D02*
X200770952Y-126387676D01*
X200770952Y-126387676D02*
X200675714Y-126482914D01*
X200675714Y-126482914D02*
X200580476Y-126530533D01*
X164719405Y-98164819D02*
X164719405Y-97164819D01*
X164719405Y-97164819D02*
X164957500Y-97164819D01*
X164957500Y-97164819D02*
X165100357Y-97212438D01*
X165100357Y-97212438D02*
X165195595Y-97307676D01*
X165195595Y-97307676D02*
X165243214Y-97402914D01*
X165243214Y-97402914D02*
X165290833Y-97593390D01*
X165290833Y-97593390D02*
X165290833Y-97736247D01*
X165290833Y-97736247D02*
X165243214Y-97926723D01*
X165243214Y-97926723D02*
X165195595Y-98021961D01*
X165195595Y-98021961D02*
X165100357Y-98117200D01*
X165100357Y-98117200D02*
X164957500Y-98164819D01*
X164957500Y-98164819D02*
X164719405Y-98164819D01*
X166147976Y-97164819D02*
X165957500Y-97164819D01*
X165957500Y-97164819D02*
X165862262Y-97212438D01*
X165862262Y-97212438D02*
X165814643Y-97260057D01*
X165814643Y-97260057D02*
X165719405Y-97402914D01*
X165719405Y-97402914D02*
X165671786Y-97593390D01*
X165671786Y-97593390D02*
X165671786Y-97974342D01*
X165671786Y-97974342D02*
X165719405Y-98069580D01*
X165719405Y-98069580D02*
X165767024Y-98117200D01*
X165767024Y-98117200D02*
X165862262Y-98164819D01*
X165862262Y-98164819D02*
X166052738Y-98164819D01*
X166052738Y-98164819D02*
X166147976Y-98117200D01*
X166147976Y-98117200D02*
X166195595Y-98069580D01*
X166195595Y-98069580D02*
X166243214Y-97974342D01*
X166243214Y-97974342D02*
X166243214Y-97736247D01*
X166243214Y-97736247D02*
X166195595Y-97641009D01*
X166195595Y-97641009D02*
X166147976Y-97593390D01*
X166147976Y-97593390D02*
X166052738Y-97545771D01*
X166052738Y-97545771D02*
X165862262Y-97545771D01*
X165862262Y-97545771D02*
X165767024Y-97593390D01*
X165767024Y-97593390D02*
X165719405Y-97641009D01*
X165719405Y-97641009D02*
X165671786Y-97736247D01*
X214181905Y-70094819D02*
X214181905Y-69094819D01*
X214181905Y-69094819D02*
X214420000Y-69094819D01*
X214420000Y-69094819D02*
X214562857Y-69142438D01*
X214562857Y-69142438D02*
X214658095Y-69237676D01*
X214658095Y-69237676D02*
X214705714Y-69332914D01*
X214705714Y-69332914D02*
X214753333Y-69523390D01*
X214753333Y-69523390D02*
X214753333Y-69666247D01*
X214753333Y-69666247D02*
X214705714Y-69856723D01*
X214705714Y-69856723D02*
X214658095Y-69951961D01*
X214658095Y-69951961D02*
X214562857Y-70047200D01*
X214562857Y-70047200D02*
X214420000Y-70094819D01*
X214420000Y-70094819D02*
X214181905Y-70094819D01*
X215134286Y-69190057D02*
X215181905Y-69142438D01*
X215181905Y-69142438D02*
X215277143Y-69094819D01*
X215277143Y-69094819D02*
X215515238Y-69094819D01*
X215515238Y-69094819D02*
X215610476Y-69142438D01*
X215610476Y-69142438D02*
X215658095Y-69190057D01*
X215658095Y-69190057D02*
X215705714Y-69285295D01*
X215705714Y-69285295D02*
X215705714Y-69380533D01*
X215705714Y-69380533D02*
X215658095Y-69523390D01*
X215658095Y-69523390D02*
X215086667Y-70094819D01*
X215086667Y-70094819D02*
X215705714Y-70094819D01*
D11*
X170296666Y-61517419D02*
X170296666Y-62231704D01*
X170296666Y-62231704D02*
X170249047Y-62374561D01*
X170249047Y-62374561D02*
X170153809Y-62469800D01*
X170153809Y-62469800D02*
X170010952Y-62517419D01*
X170010952Y-62517419D02*
X169915714Y-62517419D01*
X171296666Y-62517419D02*
X170725238Y-62517419D01*
X171010952Y-62517419D02*
X171010952Y-61517419D01*
X171010952Y-61517419D02*
X170915714Y-61660276D01*
X170915714Y-61660276D02*
X170820476Y-61755514D01*
X170820476Y-61755514D02*
X170725238Y-61803133D01*
D10*
X120818130Y-101777006D02*
X121818130Y-101777006D01*
X120818130Y-102348434D02*
X121389559Y-101919863D01*
X121818130Y-102348434D02*
X121246702Y-101777006D01*
X121722892Y-102729387D02*
X121770511Y-102777006D01*
X121770511Y-102777006D02*
X121818130Y-102872244D01*
X121818130Y-102872244D02*
X121818130Y-103110339D01*
X121818130Y-103110339D02*
X121770511Y-103205577D01*
X121770511Y-103205577D02*
X121722892Y-103253196D01*
X121722892Y-103253196D02*
X121627654Y-103300815D01*
X121627654Y-103300815D02*
X121532416Y-103300815D01*
X121532416Y-103300815D02*
X121389559Y-103253196D01*
X121389559Y-103253196D02*
X120818130Y-102681768D01*
X120818130Y-102681768D02*
X120818130Y-103300815D01*
X175057142Y-83244819D02*
X174723809Y-82768628D01*
X174485714Y-83244819D02*
X174485714Y-82244819D01*
X174485714Y-82244819D02*
X174866666Y-82244819D01*
X174866666Y-82244819D02*
X174961904Y-82292438D01*
X174961904Y-82292438D02*
X175009523Y-82340057D01*
X175009523Y-82340057D02*
X175057142Y-82435295D01*
X175057142Y-82435295D02*
X175057142Y-82578152D01*
X175057142Y-82578152D02*
X175009523Y-82673390D01*
X175009523Y-82673390D02*
X174961904Y-82721009D01*
X174961904Y-82721009D02*
X174866666Y-82768628D01*
X174866666Y-82768628D02*
X174485714Y-82768628D01*
X175914285Y-82578152D02*
X175914285Y-83244819D01*
X175676190Y-82197200D02*
X175438095Y-82911485D01*
X175438095Y-82911485D02*
X176057142Y-82911485D01*
X176342857Y-82244819D02*
X176961904Y-82244819D01*
X176961904Y-82244819D02*
X176628571Y-82625771D01*
X176628571Y-82625771D02*
X176771428Y-82625771D01*
X176771428Y-82625771D02*
X176866666Y-82673390D01*
X176866666Y-82673390D02*
X176914285Y-82721009D01*
X176914285Y-82721009D02*
X176961904Y-82816247D01*
X176961904Y-82816247D02*
X176961904Y-83054342D01*
X176961904Y-83054342D02*
X176914285Y-83149580D01*
X176914285Y-83149580D02*
X176866666Y-83197200D01*
X176866666Y-83197200D02*
X176771428Y-83244819D01*
X176771428Y-83244819D02*
X176485714Y-83244819D01*
X176485714Y-83244819D02*
X176390476Y-83197200D01*
X176390476Y-83197200D02*
X176342857Y-83149580D01*
X185101905Y-72254819D02*
X185101905Y-71254819D01*
X185101905Y-71254819D02*
X185340000Y-71254819D01*
X185340000Y-71254819D02*
X185482857Y-71302438D01*
X185482857Y-71302438D02*
X185578095Y-71397676D01*
X185578095Y-71397676D02*
X185625714Y-71492914D01*
X185625714Y-71492914D02*
X185673333Y-71683390D01*
X185673333Y-71683390D02*
X185673333Y-71826247D01*
X185673333Y-71826247D02*
X185625714Y-72016723D01*
X185625714Y-72016723D02*
X185578095Y-72111961D01*
X185578095Y-72111961D02*
X185482857Y-72207200D01*
X185482857Y-72207200D02*
X185340000Y-72254819D01*
X185340000Y-72254819D02*
X185101905Y-72254819D01*
X186578095Y-71254819D02*
X186101905Y-71254819D01*
X186101905Y-71254819D02*
X186054286Y-71731009D01*
X186054286Y-71731009D02*
X186101905Y-71683390D01*
X186101905Y-71683390D02*
X186197143Y-71635771D01*
X186197143Y-71635771D02*
X186435238Y-71635771D01*
X186435238Y-71635771D02*
X186530476Y-71683390D01*
X186530476Y-71683390D02*
X186578095Y-71731009D01*
X186578095Y-71731009D02*
X186625714Y-71826247D01*
X186625714Y-71826247D02*
X186625714Y-72064342D01*
X186625714Y-72064342D02*
X186578095Y-72159580D01*
X186578095Y-72159580D02*
X186530476Y-72207200D01*
X186530476Y-72207200D02*
X186435238Y-72254819D01*
X186435238Y-72254819D02*
X186197143Y-72254819D01*
X186197143Y-72254819D02*
X186101905Y-72207200D01*
X186101905Y-72207200D02*
X186054286Y-72159580D01*
X174987142Y-126599580D02*
X174939523Y-126647200D01*
X174939523Y-126647200D02*
X174796666Y-126694819D01*
X174796666Y-126694819D02*
X174701428Y-126694819D01*
X174701428Y-126694819D02*
X174558571Y-126647200D01*
X174558571Y-126647200D02*
X174463333Y-126551961D01*
X174463333Y-126551961D02*
X174415714Y-126456723D01*
X174415714Y-126456723D02*
X174368095Y-126266247D01*
X174368095Y-126266247D02*
X174368095Y-126123390D01*
X174368095Y-126123390D02*
X174415714Y-125932914D01*
X174415714Y-125932914D02*
X174463333Y-125837676D01*
X174463333Y-125837676D02*
X174558571Y-125742438D01*
X174558571Y-125742438D02*
X174701428Y-125694819D01*
X174701428Y-125694819D02*
X174796666Y-125694819D01*
X174796666Y-125694819D02*
X174939523Y-125742438D01*
X174939523Y-125742438D02*
X174987142Y-125790057D01*
X175939523Y-126694819D02*
X175368095Y-126694819D01*
X175653809Y-126694819D02*
X175653809Y-125694819D01*
X175653809Y-125694819D02*
X175558571Y-125837676D01*
X175558571Y-125837676D02*
X175463333Y-125932914D01*
X175463333Y-125932914D02*
X175368095Y-125980533D01*
X176891904Y-126694819D02*
X176320476Y-126694819D01*
X176606190Y-126694819D02*
X176606190Y-125694819D01*
X176606190Y-125694819D02*
X176510952Y-125837676D01*
X176510952Y-125837676D02*
X176415714Y-125932914D01*
X176415714Y-125932914D02*
X176320476Y-125980533D01*
X174937142Y-121054819D02*
X174603809Y-120578628D01*
X174365714Y-121054819D02*
X174365714Y-120054819D01*
X174365714Y-120054819D02*
X174746666Y-120054819D01*
X174746666Y-120054819D02*
X174841904Y-120102438D01*
X174841904Y-120102438D02*
X174889523Y-120150057D01*
X174889523Y-120150057D02*
X174937142Y-120245295D01*
X174937142Y-120245295D02*
X174937142Y-120388152D01*
X174937142Y-120388152D02*
X174889523Y-120483390D01*
X174889523Y-120483390D02*
X174841904Y-120531009D01*
X174841904Y-120531009D02*
X174746666Y-120578628D01*
X174746666Y-120578628D02*
X174365714Y-120578628D01*
X175270476Y-120054819D02*
X175889523Y-120054819D01*
X175889523Y-120054819D02*
X175556190Y-120435771D01*
X175556190Y-120435771D02*
X175699047Y-120435771D01*
X175699047Y-120435771D02*
X175794285Y-120483390D01*
X175794285Y-120483390D02*
X175841904Y-120531009D01*
X175841904Y-120531009D02*
X175889523Y-120626247D01*
X175889523Y-120626247D02*
X175889523Y-120864342D01*
X175889523Y-120864342D02*
X175841904Y-120959580D01*
X175841904Y-120959580D02*
X175794285Y-121007200D01*
X175794285Y-121007200D02*
X175699047Y-121054819D01*
X175699047Y-121054819D02*
X175413333Y-121054819D01*
X175413333Y-121054819D02*
X175318095Y-121007200D01*
X175318095Y-121007200D02*
X175270476Y-120959580D01*
X176746666Y-120054819D02*
X176556190Y-120054819D01*
X176556190Y-120054819D02*
X176460952Y-120102438D01*
X176460952Y-120102438D02*
X176413333Y-120150057D01*
X176413333Y-120150057D02*
X176318095Y-120292914D01*
X176318095Y-120292914D02*
X176270476Y-120483390D01*
X176270476Y-120483390D02*
X176270476Y-120864342D01*
X176270476Y-120864342D02*
X176318095Y-120959580D01*
X176318095Y-120959580D02*
X176365714Y-121007200D01*
X176365714Y-121007200D02*
X176460952Y-121054819D01*
X176460952Y-121054819D02*
X176651428Y-121054819D01*
X176651428Y-121054819D02*
X176746666Y-121007200D01*
X176746666Y-121007200D02*
X176794285Y-120959580D01*
X176794285Y-120959580D02*
X176841904Y-120864342D01*
X176841904Y-120864342D02*
X176841904Y-120626247D01*
X176841904Y-120626247D02*
X176794285Y-120531009D01*
X176794285Y-120531009D02*
X176746666Y-120483390D01*
X176746666Y-120483390D02*
X176651428Y-120435771D01*
X176651428Y-120435771D02*
X176460952Y-120435771D01*
X176460952Y-120435771D02*
X176365714Y-120483390D01*
X176365714Y-120483390D02*
X176318095Y-120531009D01*
X176318095Y-120531009D02*
X176270476Y-120626247D01*
X189407142Y-85214819D02*
X189073809Y-84738628D01*
X188835714Y-85214819D02*
X188835714Y-84214819D01*
X188835714Y-84214819D02*
X189216666Y-84214819D01*
X189216666Y-84214819D02*
X189311904Y-84262438D01*
X189311904Y-84262438D02*
X189359523Y-84310057D01*
X189359523Y-84310057D02*
X189407142Y-84405295D01*
X189407142Y-84405295D02*
X189407142Y-84548152D01*
X189407142Y-84548152D02*
X189359523Y-84643390D01*
X189359523Y-84643390D02*
X189311904Y-84691009D01*
X189311904Y-84691009D02*
X189216666Y-84738628D01*
X189216666Y-84738628D02*
X188835714Y-84738628D01*
X189740476Y-84214819D02*
X190359523Y-84214819D01*
X190359523Y-84214819D02*
X190026190Y-84595771D01*
X190026190Y-84595771D02*
X190169047Y-84595771D01*
X190169047Y-84595771D02*
X190264285Y-84643390D01*
X190264285Y-84643390D02*
X190311904Y-84691009D01*
X190311904Y-84691009D02*
X190359523Y-84786247D01*
X190359523Y-84786247D02*
X190359523Y-85024342D01*
X190359523Y-85024342D02*
X190311904Y-85119580D01*
X190311904Y-85119580D02*
X190264285Y-85167200D01*
X190264285Y-85167200D02*
X190169047Y-85214819D01*
X190169047Y-85214819D02*
X189883333Y-85214819D01*
X189883333Y-85214819D02*
X189788095Y-85167200D01*
X189788095Y-85167200D02*
X189740476Y-85119580D01*
X190835714Y-85214819D02*
X191026190Y-85214819D01*
X191026190Y-85214819D02*
X191121428Y-85167200D01*
X191121428Y-85167200D02*
X191169047Y-85119580D01*
X191169047Y-85119580D02*
X191264285Y-84976723D01*
X191264285Y-84976723D02*
X191311904Y-84786247D01*
X191311904Y-84786247D02*
X191311904Y-84405295D01*
X191311904Y-84405295D02*
X191264285Y-84310057D01*
X191264285Y-84310057D02*
X191216666Y-84262438D01*
X191216666Y-84262438D02*
X191121428Y-84214819D01*
X191121428Y-84214819D02*
X190930952Y-84214819D01*
X190930952Y-84214819D02*
X190835714Y-84262438D01*
X190835714Y-84262438D02*
X190788095Y-84310057D01*
X190788095Y-84310057D02*
X190740476Y-84405295D01*
X190740476Y-84405295D02*
X190740476Y-84643390D01*
X190740476Y-84643390D02*
X190788095Y-84738628D01*
X190788095Y-84738628D02*
X190835714Y-84786247D01*
X190835714Y-84786247D02*
X190930952Y-84833866D01*
X190930952Y-84833866D02*
X191121428Y-84833866D01*
X191121428Y-84833866D02*
X191216666Y-84786247D01*
X191216666Y-84786247D02*
X191264285Y-84738628D01*
X191264285Y-84738628D02*
X191311904Y-84643390D01*
X181257142Y-115559580D02*
X181209523Y-115607200D01*
X181209523Y-115607200D02*
X181066666Y-115654819D01*
X181066666Y-115654819D02*
X180971428Y-115654819D01*
X180971428Y-115654819D02*
X180828571Y-115607200D01*
X180828571Y-115607200D02*
X180733333Y-115511961D01*
X180733333Y-115511961D02*
X180685714Y-115416723D01*
X180685714Y-115416723D02*
X180638095Y-115226247D01*
X180638095Y-115226247D02*
X180638095Y-115083390D01*
X180638095Y-115083390D02*
X180685714Y-114892914D01*
X180685714Y-114892914D02*
X180733333Y-114797676D01*
X180733333Y-114797676D02*
X180828571Y-114702438D01*
X180828571Y-114702438D02*
X180971428Y-114654819D01*
X180971428Y-114654819D02*
X181066666Y-114654819D01*
X181066666Y-114654819D02*
X181209523Y-114702438D01*
X181209523Y-114702438D02*
X181257142Y-114750057D01*
X181638095Y-114750057D02*
X181685714Y-114702438D01*
X181685714Y-114702438D02*
X181780952Y-114654819D01*
X181780952Y-114654819D02*
X182019047Y-114654819D01*
X182019047Y-114654819D02*
X182114285Y-114702438D01*
X182114285Y-114702438D02*
X182161904Y-114750057D01*
X182161904Y-114750057D02*
X182209523Y-114845295D01*
X182209523Y-114845295D02*
X182209523Y-114940533D01*
X182209523Y-114940533D02*
X182161904Y-115083390D01*
X182161904Y-115083390D02*
X181590476Y-115654819D01*
X181590476Y-115654819D02*
X182209523Y-115654819D01*
X182828571Y-114654819D02*
X182923809Y-114654819D01*
X182923809Y-114654819D02*
X183019047Y-114702438D01*
X183019047Y-114702438D02*
X183066666Y-114750057D01*
X183066666Y-114750057D02*
X183114285Y-114845295D01*
X183114285Y-114845295D02*
X183161904Y-115035771D01*
X183161904Y-115035771D02*
X183161904Y-115273866D01*
X183161904Y-115273866D02*
X183114285Y-115464342D01*
X183114285Y-115464342D02*
X183066666Y-115559580D01*
X183066666Y-115559580D02*
X183019047Y-115607200D01*
X183019047Y-115607200D02*
X182923809Y-115654819D01*
X182923809Y-115654819D02*
X182828571Y-115654819D01*
X182828571Y-115654819D02*
X182733333Y-115607200D01*
X182733333Y-115607200D02*
X182685714Y-115559580D01*
X182685714Y-115559580D02*
X182638095Y-115464342D01*
X182638095Y-115464342D02*
X182590476Y-115273866D01*
X182590476Y-115273866D02*
X182590476Y-115035771D01*
X182590476Y-115035771D02*
X182638095Y-114845295D01*
X182638095Y-114845295D02*
X182685714Y-114750057D01*
X182685714Y-114750057D02*
X182733333Y-114702438D01*
X182733333Y-114702438D02*
X182828571Y-114654819D01*
X207151905Y-70064819D02*
X207151905Y-69064819D01*
X207151905Y-69064819D02*
X207390000Y-69064819D01*
X207390000Y-69064819D02*
X207532857Y-69112438D01*
X207532857Y-69112438D02*
X207628095Y-69207676D01*
X207628095Y-69207676D02*
X207675714Y-69302914D01*
X207675714Y-69302914D02*
X207723333Y-69493390D01*
X207723333Y-69493390D02*
X207723333Y-69636247D01*
X207723333Y-69636247D02*
X207675714Y-69826723D01*
X207675714Y-69826723D02*
X207628095Y-69921961D01*
X207628095Y-69921961D02*
X207532857Y-70017200D01*
X207532857Y-70017200D02*
X207390000Y-70064819D01*
X207390000Y-70064819D02*
X207151905Y-70064819D01*
X208675714Y-70064819D02*
X208104286Y-70064819D01*
X208390000Y-70064819D02*
X208390000Y-69064819D01*
X208390000Y-69064819D02*
X208294762Y-69207676D01*
X208294762Y-69207676D02*
X208199524Y-69302914D01*
X208199524Y-69302914D02*
X208104286Y-69350533D01*
X182897142Y-83254819D02*
X182563809Y-82778628D01*
X182325714Y-83254819D02*
X182325714Y-82254819D01*
X182325714Y-82254819D02*
X182706666Y-82254819D01*
X182706666Y-82254819D02*
X182801904Y-82302438D01*
X182801904Y-82302438D02*
X182849523Y-82350057D01*
X182849523Y-82350057D02*
X182897142Y-82445295D01*
X182897142Y-82445295D02*
X182897142Y-82588152D01*
X182897142Y-82588152D02*
X182849523Y-82683390D01*
X182849523Y-82683390D02*
X182801904Y-82731009D01*
X182801904Y-82731009D02*
X182706666Y-82778628D01*
X182706666Y-82778628D02*
X182325714Y-82778628D01*
X183230476Y-82254819D02*
X183849523Y-82254819D01*
X183849523Y-82254819D02*
X183516190Y-82635771D01*
X183516190Y-82635771D02*
X183659047Y-82635771D01*
X183659047Y-82635771D02*
X183754285Y-82683390D01*
X183754285Y-82683390D02*
X183801904Y-82731009D01*
X183801904Y-82731009D02*
X183849523Y-82826247D01*
X183849523Y-82826247D02*
X183849523Y-83064342D01*
X183849523Y-83064342D02*
X183801904Y-83159580D01*
X183801904Y-83159580D02*
X183754285Y-83207200D01*
X183754285Y-83207200D02*
X183659047Y-83254819D01*
X183659047Y-83254819D02*
X183373333Y-83254819D01*
X183373333Y-83254819D02*
X183278095Y-83207200D01*
X183278095Y-83207200D02*
X183230476Y-83159580D01*
X184420952Y-82683390D02*
X184325714Y-82635771D01*
X184325714Y-82635771D02*
X184278095Y-82588152D01*
X184278095Y-82588152D02*
X184230476Y-82492914D01*
X184230476Y-82492914D02*
X184230476Y-82445295D01*
X184230476Y-82445295D02*
X184278095Y-82350057D01*
X184278095Y-82350057D02*
X184325714Y-82302438D01*
X184325714Y-82302438D02*
X184420952Y-82254819D01*
X184420952Y-82254819D02*
X184611428Y-82254819D01*
X184611428Y-82254819D02*
X184706666Y-82302438D01*
X184706666Y-82302438D02*
X184754285Y-82350057D01*
X184754285Y-82350057D02*
X184801904Y-82445295D01*
X184801904Y-82445295D02*
X184801904Y-82492914D01*
X184801904Y-82492914D02*
X184754285Y-82588152D01*
X184754285Y-82588152D02*
X184706666Y-82635771D01*
X184706666Y-82635771D02*
X184611428Y-82683390D01*
X184611428Y-82683390D02*
X184420952Y-82683390D01*
X184420952Y-82683390D02*
X184325714Y-82731009D01*
X184325714Y-82731009D02*
X184278095Y-82778628D01*
X184278095Y-82778628D02*
X184230476Y-82873866D01*
X184230476Y-82873866D02*
X184230476Y-83064342D01*
X184230476Y-83064342D02*
X184278095Y-83159580D01*
X184278095Y-83159580D02*
X184325714Y-83207200D01*
X184325714Y-83207200D02*
X184420952Y-83254819D01*
X184420952Y-83254819D02*
X184611428Y-83254819D01*
X184611428Y-83254819D02*
X184706666Y-83207200D01*
X184706666Y-83207200D02*
X184754285Y-83159580D01*
X184754285Y-83159580D02*
X184801904Y-83064342D01*
X184801904Y-83064342D02*
X184801904Y-82873866D01*
X184801904Y-82873866D02*
X184754285Y-82778628D01*
X184754285Y-82778628D02*
X184706666Y-82731009D01*
X184706666Y-82731009D02*
X184611428Y-82683390D01*
X100298130Y-102527006D02*
X101298130Y-102527006D01*
X100298130Y-103098434D02*
X100869559Y-102669863D01*
X101298130Y-103098434D02*
X100726702Y-102527006D01*
X100298130Y-104050815D02*
X100298130Y-103479387D01*
X100298130Y-103765101D02*
X101298130Y-103765101D01*
X101298130Y-103765101D02*
X101155273Y-103669863D01*
X101155273Y-103669863D02*
X101060035Y-103574625D01*
X101060035Y-103574625D02*
X101012416Y-103479387D01*
X204723333Y-92772080D02*
X204675714Y-92819700D01*
X204675714Y-92819700D02*
X204532857Y-92867319D01*
X204532857Y-92867319D02*
X204437619Y-92867319D01*
X204437619Y-92867319D02*
X204294762Y-92819700D01*
X204294762Y-92819700D02*
X204199524Y-92724461D01*
X204199524Y-92724461D02*
X204151905Y-92629223D01*
X204151905Y-92629223D02*
X204104286Y-92438747D01*
X204104286Y-92438747D02*
X204104286Y-92295890D01*
X204104286Y-92295890D02*
X204151905Y-92105414D01*
X204151905Y-92105414D02*
X204199524Y-92010176D01*
X204199524Y-92010176D02*
X204294762Y-91914938D01*
X204294762Y-91914938D02*
X204437619Y-91867319D01*
X204437619Y-91867319D02*
X204532857Y-91867319D01*
X204532857Y-91867319D02*
X204675714Y-91914938D01*
X204675714Y-91914938D02*
X204723333Y-91962557D01*
X205580476Y-92200652D02*
X205580476Y-92867319D01*
X205342381Y-91819700D02*
X205104286Y-92533985D01*
X205104286Y-92533985D02*
X205723333Y-92533985D01*
X189633333Y-125814580D02*
X189585714Y-125862200D01*
X189585714Y-125862200D02*
X189442857Y-125909819D01*
X189442857Y-125909819D02*
X189347619Y-125909819D01*
X189347619Y-125909819D02*
X189204762Y-125862200D01*
X189204762Y-125862200D02*
X189109524Y-125766961D01*
X189109524Y-125766961D02*
X189061905Y-125671723D01*
X189061905Y-125671723D02*
X189014286Y-125481247D01*
X189014286Y-125481247D02*
X189014286Y-125338390D01*
X189014286Y-125338390D02*
X189061905Y-125147914D01*
X189061905Y-125147914D02*
X189109524Y-125052676D01*
X189109524Y-125052676D02*
X189204762Y-124957438D01*
X189204762Y-124957438D02*
X189347619Y-124909819D01*
X189347619Y-124909819D02*
X189442857Y-124909819D01*
X189442857Y-124909819D02*
X189585714Y-124957438D01*
X189585714Y-124957438D02*
X189633333Y-125005057D01*
X189966667Y-124909819D02*
X190633333Y-124909819D01*
X190633333Y-124909819D02*
X190204762Y-125909819D01*
X168423333Y-112509580D02*
X168375714Y-112557200D01*
X168375714Y-112557200D02*
X168232857Y-112604819D01*
X168232857Y-112604819D02*
X168137619Y-112604819D01*
X168137619Y-112604819D02*
X167994762Y-112557200D01*
X167994762Y-112557200D02*
X167899524Y-112461961D01*
X167899524Y-112461961D02*
X167851905Y-112366723D01*
X167851905Y-112366723D02*
X167804286Y-112176247D01*
X167804286Y-112176247D02*
X167804286Y-112033390D01*
X167804286Y-112033390D02*
X167851905Y-111842914D01*
X167851905Y-111842914D02*
X167899524Y-111747676D01*
X167899524Y-111747676D02*
X167994762Y-111652438D01*
X167994762Y-111652438D02*
X168137619Y-111604819D01*
X168137619Y-111604819D02*
X168232857Y-111604819D01*
X168232857Y-111604819D02*
X168375714Y-111652438D01*
X168375714Y-111652438D02*
X168423333Y-111700057D01*
X169328095Y-111604819D02*
X168851905Y-111604819D01*
X168851905Y-111604819D02*
X168804286Y-112081009D01*
X168804286Y-112081009D02*
X168851905Y-112033390D01*
X168851905Y-112033390D02*
X168947143Y-111985771D01*
X168947143Y-111985771D02*
X169185238Y-111985771D01*
X169185238Y-111985771D02*
X169280476Y-112033390D01*
X169280476Y-112033390D02*
X169328095Y-112081009D01*
X169328095Y-112081009D02*
X169375714Y-112176247D01*
X169375714Y-112176247D02*
X169375714Y-112414342D01*
X169375714Y-112414342D02*
X169328095Y-112509580D01*
X169328095Y-112509580D02*
X169280476Y-112557200D01*
X169280476Y-112557200D02*
X169185238Y-112604819D01*
X169185238Y-112604819D02*
X168947143Y-112604819D01*
X168947143Y-112604819D02*
X168851905Y-112557200D01*
X168851905Y-112557200D02*
X168804286Y-112509580D01*
X140685180Y-101701905D02*
X141685180Y-101701905D01*
X140685180Y-102273333D02*
X141256609Y-101844762D01*
X141685180Y-102273333D02*
X141113752Y-101701905D01*
X141685180Y-102606667D02*
X141685180Y-103225714D01*
X141685180Y-103225714D02*
X141304228Y-102892381D01*
X141304228Y-102892381D02*
X141304228Y-103035238D01*
X141304228Y-103035238D02*
X141256609Y-103130476D01*
X141256609Y-103130476D02*
X141208990Y-103178095D01*
X141208990Y-103178095D02*
X141113752Y-103225714D01*
X141113752Y-103225714D02*
X140875657Y-103225714D01*
X140875657Y-103225714D02*
X140780419Y-103178095D01*
X140780419Y-103178095D02*
X140732800Y-103130476D01*
X140732800Y-103130476D02*
X140685180Y-103035238D01*
X140685180Y-103035238D02*
X140685180Y-102749524D01*
X140685180Y-102749524D02*
X140732800Y-102654286D01*
X140732800Y-102654286D02*
X140780419Y-102606667D01*
X160701905Y-112504819D02*
X160701905Y-111504819D01*
X160701905Y-111504819D02*
X160940000Y-111504819D01*
X160940000Y-111504819D02*
X161082857Y-111552438D01*
X161082857Y-111552438D02*
X161178095Y-111647676D01*
X161178095Y-111647676D02*
X161225714Y-111742914D01*
X161225714Y-111742914D02*
X161273333Y-111933390D01*
X161273333Y-111933390D02*
X161273333Y-112076247D01*
X161273333Y-112076247D02*
X161225714Y-112266723D01*
X161225714Y-112266723D02*
X161178095Y-112361961D01*
X161178095Y-112361961D02*
X161082857Y-112457200D01*
X161082857Y-112457200D02*
X160940000Y-112504819D01*
X160940000Y-112504819D02*
X160701905Y-112504819D01*
X161606667Y-111504819D02*
X162225714Y-111504819D01*
X162225714Y-111504819D02*
X161892381Y-111885771D01*
X161892381Y-111885771D02*
X162035238Y-111885771D01*
X162035238Y-111885771D02*
X162130476Y-111933390D01*
X162130476Y-111933390D02*
X162178095Y-111981009D01*
X162178095Y-111981009D02*
X162225714Y-112076247D01*
X162225714Y-112076247D02*
X162225714Y-112314342D01*
X162225714Y-112314342D02*
X162178095Y-112409580D01*
X162178095Y-112409580D02*
X162130476Y-112457200D01*
X162130476Y-112457200D02*
X162035238Y-112504819D01*
X162035238Y-112504819D02*
X161749524Y-112504819D01*
X161749524Y-112504819D02*
X161654286Y-112457200D01*
X161654286Y-112457200D02*
X161606667Y-112409580D01*
X204863333Y-97269580D02*
X204815714Y-97317200D01*
X204815714Y-97317200D02*
X204672857Y-97364819D01*
X204672857Y-97364819D02*
X204577619Y-97364819D01*
X204577619Y-97364819D02*
X204434762Y-97317200D01*
X204434762Y-97317200D02*
X204339524Y-97221961D01*
X204339524Y-97221961D02*
X204291905Y-97126723D01*
X204291905Y-97126723D02*
X204244286Y-96936247D01*
X204244286Y-96936247D02*
X204244286Y-96793390D01*
X204244286Y-96793390D02*
X204291905Y-96602914D01*
X204291905Y-96602914D02*
X204339524Y-96507676D01*
X204339524Y-96507676D02*
X204434762Y-96412438D01*
X204434762Y-96412438D02*
X204577619Y-96364819D01*
X204577619Y-96364819D02*
X204672857Y-96364819D01*
X204672857Y-96364819D02*
X204815714Y-96412438D01*
X204815714Y-96412438D02*
X204863333Y-96460057D01*
X205196667Y-96364819D02*
X205815714Y-96364819D01*
X205815714Y-96364819D02*
X205482381Y-96745771D01*
X205482381Y-96745771D02*
X205625238Y-96745771D01*
X205625238Y-96745771D02*
X205720476Y-96793390D01*
X205720476Y-96793390D02*
X205768095Y-96841009D01*
X205768095Y-96841009D02*
X205815714Y-96936247D01*
X205815714Y-96936247D02*
X205815714Y-97174342D01*
X205815714Y-97174342D02*
X205768095Y-97269580D01*
X205768095Y-97269580D02*
X205720476Y-97317200D01*
X205720476Y-97317200D02*
X205625238Y-97364819D01*
X205625238Y-97364819D02*
X205339524Y-97364819D01*
X205339524Y-97364819D02*
X205244286Y-97317200D01*
X205244286Y-97317200D02*
X205196667Y-97269580D01*
X174123809Y-110648628D02*
X174123809Y-111124819D01*
X173790476Y-110124819D02*
X174123809Y-110648628D01*
X174123809Y-110648628D02*
X174457142Y-110124819D01*
X175314285Y-111124819D02*
X174742857Y-111124819D01*
X175028571Y-111124819D02*
X175028571Y-110124819D01*
X175028571Y-110124819D02*
X174933333Y-110267676D01*
X174933333Y-110267676D02*
X174838095Y-110362914D01*
X174838095Y-110362914D02*
X174742857Y-110410533D01*
X116411905Y-118024819D02*
X116411905Y-118834342D01*
X116411905Y-118834342D02*
X116459524Y-118929580D01*
X116459524Y-118929580D02*
X116507143Y-118977200D01*
X116507143Y-118977200D02*
X116602381Y-119024819D01*
X116602381Y-119024819D02*
X116792857Y-119024819D01*
X116792857Y-119024819D02*
X116888095Y-118977200D01*
X116888095Y-118977200D02*
X116935714Y-118929580D01*
X116935714Y-118929580D02*
X116983333Y-118834342D01*
X116983333Y-118834342D02*
X116983333Y-118024819D01*
X117983333Y-119024819D02*
X117411905Y-119024819D01*
X117697619Y-119024819D02*
X117697619Y-118024819D01*
X117697619Y-118024819D02*
X117602381Y-118167676D01*
X117602381Y-118167676D02*
X117507143Y-118262914D01*
X117507143Y-118262914D02*
X117411905Y-118310533D01*
X118935714Y-119024819D02*
X118364286Y-119024819D01*
X118650000Y-119024819D02*
X118650000Y-118024819D01*
X118650000Y-118024819D02*
X118554762Y-118167676D01*
X118554762Y-118167676D02*
X118459524Y-118262914D01*
X118459524Y-118262914D02*
X118364286Y-118310533D01*
X160747142Y-106544819D02*
X160413809Y-106068628D01*
X160175714Y-106544819D02*
X160175714Y-105544819D01*
X160175714Y-105544819D02*
X160556666Y-105544819D01*
X160556666Y-105544819D02*
X160651904Y-105592438D01*
X160651904Y-105592438D02*
X160699523Y-105640057D01*
X160699523Y-105640057D02*
X160747142Y-105735295D01*
X160747142Y-105735295D02*
X160747142Y-105878152D01*
X160747142Y-105878152D02*
X160699523Y-105973390D01*
X160699523Y-105973390D02*
X160651904Y-106021009D01*
X160651904Y-106021009D02*
X160556666Y-106068628D01*
X160556666Y-106068628D02*
X160175714Y-106068628D01*
X161128095Y-105640057D02*
X161175714Y-105592438D01*
X161175714Y-105592438D02*
X161270952Y-105544819D01*
X161270952Y-105544819D02*
X161509047Y-105544819D01*
X161509047Y-105544819D02*
X161604285Y-105592438D01*
X161604285Y-105592438D02*
X161651904Y-105640057D01*
X161651904Y-105640057D02*
X161699523Y-105735295D01*
X161699523Y-105735295D02*
X161699523Y-105830533D01*
X161699523Y-105830533D02*
X161651904Y-105973390D01*
X161651904Y-105973390D02*
X161080476Y-106544819D01*
X161080476Y-106544819D02*
X161699523Y-106544819D01*
X162556666Y-105544819D02*
X162366190Y-105544819D01*
X162366190Y-105544819D02*
X162270952Y-105592438D01*
X162270952Y-105592438D02*
X162223333Y-105640057D01*
X162223333Y-105640057D02*
X162128095Y-105782914D01*
X162128095Y-105782914D02*
X162080476Y-105973390D01*
X162080476Y-105973390D02*
X162080476Y-106354342D01*
X162080476Y-106354342D02*
X162128095Y-106449580D01*
X162128095Y-106449580D02*
X162175714Y-106497200D01*
X162175714Y-106497200D02*
X162270952Y-106544819D01*
X162270952Y-106544819D02*
X162461428Y-106544819D01*
X162461428Y-106544819D02*
X162556666Y-106497200D01*
X162556666Y-106497200D02*
X162604285Y-106449580D01*
X162604285Y-106449580D02*
X162651904Y-106354342D01*
X162651904Y-106354342D02*
X162651904Y-106116247D01*
X162651904Y-106116247D02*
X162604285Y-106021009D01*
X162604285Y-106021009D02*
X162556666Y-105973390D01*
X162556666Y-105973390D02*
X162461428Y-105925771D01*
X162461428Y-105925771D02*
X162270952Y-105925771D01*
X162270952Y-105925771D02*
X162175714Y-105973390D01*
X162175714Y-105973390D02*
X162128095Y-106021009D01*
X162128095Y-106021009D02*
X162080476Y-106116247D01*
X190743333Y-99534819D02*
X190410000Y-99058628D01*
X190171905Y-99534819D02*
X190171905Y-98534819D01*
X190171905Y-98534819D02*
X190552857Y-98534819D01*
X190552857Y-98534819D02*
X190648095Y-98582438D01*
X190648095Y-98582438D02*
X190695714Y-98630057D01*
X190695714Y-98630057D02*
X190743333Y-98725295D01*
X190743333Y-98725295D02*
X190743333Y-98868152D01*
X190743333Y-98868152D02*
X190695714Y-98963390D01*
X190695714Y-98963390D02*
X190648095Y-99011009D01*
X190648095Y-99011009D02*
X190552857Y-99058628D01*
X190552857Y-99058628D02*
X190171905Y-99058628D01*
X191219524Y-99534819D02*
X191410000Y-99534819D01*
X191410000Y-99534819D02*
X191505238Y-99487200D01*
X191505238Y-99487200D02*
X191552857Y-99439580D01*
X191552857Y-99439580D02*
X191648095Y-99296723D01*
X191648095Y-99296723D02*
X191695714Y-99106247D01*
X191695714Y-99106247D02*
X191695714Y-98725295D01*
X191695714Y-98725295D02*
X191648095Y-98630057D01*
X191648095Y-98630057D02*
X191600476Y-98582438D01*
X191600476Y-98582438D02*
X191505238Y-98534819D01*
X191505238Y-98534819D02*
X191314762Y-98534819D01*
X191314762Y-98534819D02*
X191219524Y-98582438D01*
X191219524Y-98582438D02*
X191171905Y-98630057D01*
X191171905Y-98630057D02*
X191124286Y-98725295D01*
X191124286Y-98725295D02*
X191124286Y-98963390D01*
X191124286Y-98963390D02*
X191171905Y-99058628D01*
X191171905Y-99058628D02*
X191219524Y-99106247D01*
X191219524Y-99106247D02*
X191314762Y-99153866D01*
X191314762Y-99153866D02*
X191505238Y-99153866D01*
X191505238Y-99153866D02*
X191600476Y-99106247D01*
X191600476Y-99106247D02*
X191648095Y-99058628D01*
X191648095Y-99058628D02*
X191695714Y-98963390D01*
X170617142Y-79744819D02*
X170283809Y-79268628D01*
X170045714Y-79744819D02*
X170045714Y-78744819D01*
X170045714Y-78744819D02*
X170426666Y-78744819D01*
X170426666Y-78744819D02*
X170521904Y-78792438D01*
X170521904Y-78792438D02*
X170569523Y-78840057D01*
X170569523Y-78840057D02*
X170617142Y-78935295D01*
X170617142Y-78935295D02*
X170617142Y-79078152D01*
X170617142Y-79078152D02*
X170569523Y-79173390D01*
X170569523Y-79173390D02*
X170521904Y-79221009D01*
X170521904Y-79221009D02*
X170426666Y-79268628D01*
X170426666Y-79268628D02*
X170045714Y-79268628D01*
X171474285Y-79078152D02*
X171474285Y-79744819D01*
X171236190Y-78697200D02*
X170998095Y-79411485D01*
X170998095Y-79411485D02*
X171617142Y-79411485D01*
X172474285Y-78744819D02*
X171998095Y-78744819D01*
X171998095Y-78744819D02*
X171950476Y-79221009D01*
X171950476Y-79221009D02*
X171998095Y-79173390D01*
X171998095Y-79173390D02*
X172093333Y-79125771D01*
X172093333Y-79125771D02*
X172331428Y-79125771D01*
X172331428Y-79125771D02*
X172426666Y-79173390D01*
X172426666Y-79173390D02*
X172474285Y-79221009D01*
X172474285Y-79221009D02*
X172521904Y-79316247D01*
X172521904Y-79316247D02*
X172521904Y-79554342D01*
X172521904Y-79554342D02*
X172474285Y-79649580D01*
X172474285Y-79649580D02*
X172426666Y-79697200D01*
X172426666Y-79697200D02*
X172331428Y-79744819D01*
X172331428Y-79744819D02*
X172093333Y-79744819D01*
X172093333Y-79744819D02*
X171998095Y-79697200D01*
X171998095Y-79697200D02*
X171950476Y-79649580D01*
X215136666Y-131934819D02*
X215136666Y-132649104D01*
X215136666Y-132649104D02*
X215089047Y-132791961D01*
X215089047Y-132791961D02*
X214993809Y-132887200D01*
X214993809Y-132887200D02*
X214850952Y-132934819D01*
X214850952Y-132934819D02*
X214755714Y-132934819D01*
X216041428Y-132268152D02*
X216041428Y-132934819D01*
X215803333Y-131887200D02*
X215565238Y-132601485D01*
X215565238Y-132601485D02*
X216184285Y-132601485D01*
X155467142Y-74509580D02*
X155419523Y-74557200D01*
X155419523Y-74557200D02*
X155276666Y-74604819D01*
X155276666Y-74604819D02*
X155181428Y-74604819D01*
X155181428Y-74604819D02*
X155038571Y-74557200D01*
X155038571Y-74557200D02*
X154943333Y-74461961D01*
X154943333Y-74461961D02*
X154895714Y-74366723D01*
X154895714Y-74366723D02*
X154848095Y-74176247D01*
X154848095Y-74176247D02*
X154848095Y-74033390D01*
X154848095Y-74033390D02*
X154895714Y-73842914D01*
X154895714Y-73842914D02*
X154943333Y-73747676D01*
X154943333Y-73747676D02*
X155038571Y-73652438D01*
X155038571Y-73652438D02*
X155181428Y-73604819D01*
X155181428Y-73604819D02*
X155276666Y-73604819D01*
X155276666Y-73604819D02*
X155419523Y-73652438D01*
X155419523Y-73652438D02*
X155467142Y-73700057D01*
X156419523Y-74604819D02*
X155848095Y-74604819D01*
X156133809Y-74604819D02*
X156133809Y-73604819D01*
X156133809Y-73604819D02*
X156038571Y-73747676D01*
X156038571Y-73747676D02*
X155943333Y-73842914D01*
X155943333Y-73842914D02*
X155848095Y-73890533D01*
X156800476Y-73700057D02*
X156848095Y-73652438D01*
X156848095Y-73652438D02*
X156943333Y-73604819D01*
X156943333Y-73604819D02*
X157181428Y-73604819D01*
X157181428Y-73604819D02*
X157276666Y-73652438D01*
X157276666Y-73652438D02*
X157324285Y-73700057D01*
X157324285Y-73700057D02*
X157371904Y-73795295D01*
X157371904Y-73795295D02*
X157371904Y-73890533D01*
X157371904Y-73890533D02*
X157324285Y-74033390D01*
X157324285Y-74033390D02*
X156752857Y-74604819D01*
X156752857Y-74604819D02*
X157371904Y-74604819D01*
X201917142Y-106489580D02*
X201869523Y-106537200D01*
X201869523Y-106537200D02*
X201726666Y-106584819D01*
X201726666Y-106584819D02*
X201631428Y-106584819D01*
X201631428Y-106584819D02*
X201488571Y-106537200D01*
X201488571Y-106537200D02*
X201393333Y-106441961D01*
X201393333Y-106441961D02*
X201345714Y-106346723D01*
X201345714Y-106346723D02*
X201298095Y-106156247D01*
X201298095Y-106156247D02*
X201298095Y-106013390D01*
X201298095Y-106013390D02*
X201345714Y-105822914D01*
X201345714Y-105822914D02*
X201393333Y-105727676D01*
X201393333Y-105727676D02*
X201488571Y-105632438D01*
X201488571Y-105632438D02*
X201631428Y-105584819D01*
X201631428Y-105584819D02*
X201726666Y-105584819D01*
X201726666Y-105584819D02*
X201869523Y-105632438D01*
X201869523Y-105632438D02*
X201917142Y-105680057D01*
X202869523Y-106584819D02*
X202298095Y-106584819D01*
X202583809Y-106584819D02*
X202583809Y-105584819D01*
X202583809Y-105584819D02*
X202488571Y-105727676D01*
X202488571Y-105727676D02*
X202393333Y-105822914D01*
X202393333Y-105822914D02*
X202298095Y-105870533D01*
X203488571Y-105584819D02*
X203583809Y-105584819D01*
X203583809Y-105584819D02*
X203679047Y-105632438D01*
X203679047Y-105632438D02*
X203726666Y-105680057D01*
X203726666Y-105680057D02*
X203774285Y-105775295D01*
X203774285Y-105775295D02*
X203821904Y-105965771D01*
X203821904Y-105965771D02*
X203821904Y-106203866D01*
X203821904Y-106203866D02*
X203774285Y-106394342D01*
X203774285Y-106394342D02*
X203726666Y-106489580D01*
X203726666Y-106489580D02*
X203679047Y-106537200D01*
X203679047Y-106537200D02*
X203583809Y-106584819D01*
X203583809Y-106584819D02*
X203488571Y-106584819D01*
X203488571Y-106584819D02*
X203393333Y-106537200D01*
X203393333Y-106537200D02*
X203345714Y-106489580D01*
X203345714Y-106489580D02*
X203298095Y-106394342D01*
X203298095Y-106394342D02*
X203250476Y-106203866D01*
X203250476Y-106203866D02*
X203250476Y-105965771D01*
X203250476Y-105965771D02*
X203298095Y-105775295D01*
X203298095Y-105775295D02*
X203345714Y-105680057D01*
X203345714Y-105680057D02*
X203393333Y-105632438D01*
X203393333Y-105632438D02*
X203488571Y-105584819D01*
X172727142Y-94164819D02*
X172393809Y-93688628D01*
X172155714Y-94164819D02*
X172155714Y-93164819D01*
X172155714Y-93164819D02*
X172536666Y-93164819D01*
X172536666Y-93164819D02*
X172631904Y-93212438D01*
X172631904Y-93212438D02*
X172679523Y-93260057D01*
X172679523Y-93260057D02*
X172727142Y-93355295D01*
X172727142Y-93355295D02*
X172727142Y-93498152D01*
X172727142Y-93498152D02*
X172679523Y-93593390D01*
X172679523Y-93593390D02*
X172631904Y-93641009D01*
X172631904Y-93641009D02*
X172536666Y-93688628D01*
X172536666Y-93688628D02*
X172155714Y-93688628D01*
X173584285Y-93498152D02*
X173584285Y-94164819D01*
X173346190Y-93117200D02*
X173108095Y-93831485D01*
X173108095Y-93831485D02*
X173727142Y-93831485D01*
X174631904Y-94164819D02*
X174060476Y-94164819D01*
X174346190Y-94164819D02*
X174346190Y-93164819D01*
X174346190Y-93164819D02*
X174250952Y-93307676D01*
X174250952Y-93307676D02*
X174155714Y-93402914D01*
X174155714Y-93402914D02*
X174060476Y-93450533D01*
X184713333Y-120942080D02*
X184665714Y-120989700D01*
X184665714Y-120989700D02*
X184522857Y-121037319D01*
X184522857Y-121037319D02*
X184427619Y-121037319D01*
X184427619Y-121037319D02*
X184284762Y-120989700D01*
X184284762Y-120989700D02*
X184189524Y-120894461D01*
X184189524Y-120894461D02*
X184141905Y-120799223D01*
X184141905Y-120799223D02*
X184094286Y-120608747D01*
X184094286Y-120608747D02*
X184094286Y-120465890D01*
X184094286Y-120465890D02*
X184141905Y-120275414D01*
X184141905Y-120275414D02*
X184189524Y-120180176D01*
X184189524Y-120180176D02*
X184284762Y-120084938D01*
X184284762Y-120084938D02*
X184427619Y-120037319D01*
X184427619Y-120037319D02*
X184522857Y-120037319D01*
X184522857Y-120037319D02*
X184665714Y-120084938D01*
X184665714Y-120084938D02*
X184713333Y-120132557D01*
X185189524Y-121037319D02*
X185380000Y-121037319D01*
X185380000Y-121037319D02*
X185475238Y-120989700D01*
X185475238Y-120989700D02*
X185522857Y-120942080D01*
X185522857Y-120942080D02*
X185618095Y-120799223D01*
X185618095Y-120799223D02*
X185665714Y-120608747D01*
X185665714Y-120608747D02*
X185665714Y-120227795D01*
X185665714Y-120227795D02*
X185618095Y-120132557D01*
X185618095Y-120132557D02*
X185570476Y-120084938D01*
X185570476Y-120084938D02*
X185475238Y-120037319D01*
X185475238Y-120037319D02*
X185284762Y-120037319D01*
X185284762Y-120037319D02*
X185189524Y-120084938D01*
X185189524Y-120084938D02*
X185141905Y-120132557D01*
X185141905Y-120132557D02*
X185094286Y-120227795D01*
X185094286Y-120227795D02*
X185094286Y-120465890D01*
X185094286Y-120465890D02*
X185141905Y-120561128D01*
X185141905Y-120561128D02*
X185189524Y-120608747D01*
X185189524Y-120608747D02*
X185284762Y-120656366D01*
X185284762Y-120656366D02*
X185475238Y-120656366D01*
X185475238Y-120656366D02*
X185570476Y-120608747D01*
X185570476Y-120608747D02*
X185618095Y-120561128D01*
X185618095Y-120561128D02*
X185665714Y-120465890D01*
%TO.C,R_Shunt_4*%
D12*
X123215000Y-76810000D02*
X134775000Y-76810000D01*
X123215000Y-84010000D02*
X134775000Y-84010000D01*
%TO.C,U7*%
X152185000Y-78525000D02*
X160005000Y-78525000D01*
X152185000Y-78735000D02*
X152185000Y-78525000D01*
X152185000Y-91545000D02*
X152185000Y-91335000D01*
X160005000Y-78525000D02*
X160005000Y-78735000D01*
X160005000Y-91335000D02*
X160005000Y-91545000D01*
X160005000Y-91545000D02*
X152185000Y-91545000D01*
X161305000Y-91805000D02*
X160625000Y-91805000D01*
X160965000Y-91335000D01*
X161305000Y-91805000D01*
G36*
X161305000Y-91805000D02*
G01*
X160625000Y-91805000D01*
X160965000Y-91335000D01*
X161305000Y-91805000D01*
G37*
%TO.C,U1*%
X209490000Y-84550000D02*
X209490000Y-86880000D01*
X209820000Y-84880000D02*
X217670000Y-84880000D01*
X209820000Y-96820000D02*
X209820000Y-84880000D01*
X211940000Y-84550000D02*
X209490000Y-84550000D01*
X217670000Y-84880000D02*
X217670000Y-96820000D01*
X217670000Y-96820000D02*
X209820000Y-96820000D01*
%TO.C,U2*%
X187390000Y-106890000D02*
X188340000Y-106890000D01*
X187390000Y-107840000D02*
X187390000Y-106890000D01*
X187390000Y-117110000D02*
X187390000Y-116160000D01*
X188340000Y-117110000D02*
X187390000Y-117110000D01*
X196660000Y-106890000D02*
X197610000Y-106890000D01*
X197610000Y-106890000D02*
X197610000Y-107840000D01*
X197610000Y-116160000D02*
X197610000Y-117110000D01*
X197610000Y-117110000D02*
X196660000Y-117110000D01*
X186750000Y-107840000D02*
X186410000Y-107370000D01*
X187090000Y-107370000D01*
X186750000Y-107840000D01*
G36*
X186750000Y-107840000D02*
G01*
X186410000Y-107370000D01*
X187090000Y-107370000D01*
X186750000Y-107840000D01*
G37*
%TO.C,D4*%
X169480000Y-123747500D02*
X169480000Y-128157500D01*
X171700000Y-123747500D02*
X169480000Y-123747500D01*
X171700000Y-128157500D02*
X171700000Y-123747500D01*
%TO.C,R56*%
X139694564Y-118040000D02*
X138240436Y-118040000D01*
X139694564Y-119860000D02*
X138240436Y-119860000D01*
%TO.C,C8*%
X195515000Y-122446248D02*
X195515000Y-122968752D01*
X196985000Y-122446248D02*
X196985000Y-122968752D01*
%TO.C,R46*%
X167572936Y-91585000D02*
X168027064Y-91585000D01*
X167572936Y-93055000D02*
X168027064Y-93055000D01*
%TO.C,U10*%
X211700000Y-125250000D02*
X211700000Y-124750000D01*
X212200000Y-124750000D01*
X211700000Y-125250000D01*
G36*
X211700000Y-125250000D02*
G01*
X211700000Y-124750000D01*
X212200000Y-124750000D01*
X211700000Y-125250000D01*
G37*
%TO.C,C19*%
X181705000Y-108388748D02*
X181705000Y-108911252D01*
X183175000Y-108388748D02*
X183175000Y-108911252D01*
%TO.C,R_Shunt_1*%
X117455000Y-85770000D02*
X105895000Y-85770000D01*
X117455000Y-92970000D02*
X105895000Y-92970000D01*
%TO.C,R37*%
X169510000Y-121342064D02*
X169510000Y-119887936D01*
X171330000Y-121342064D02*
X171330000Y-119887936D01*
%TO.C,C1*%
X205580000Y-76480000D02*
X206830000Y-76480000D01*
X206205000Y-75855000D02*
X206205000Y-77105000D01*
X207070000Y-75044437D02*
X207070000Y-77730000D01*
X207070000Y-75044437D02*
X208134437Y-73980000D01*
X207070000Y-83435563D02*
X207070000Y-80750000D01*
X207070000Y-83435563D02*
X208134437Y-84500000D01*
X208134437Y-73980000D02*
X217590000Y-73980000D01*
X208134437Y-84500000D02*
X217590000Y-84500000D01*
X217590000Y-73980000D02*
X217590000Y-77730000D01*
X217590000Y-84500000D02*
X217590000Y-80750000D01*
%TO.C,R42*%
X174367064Y-85085000D02*
X173912936Y-85085000D01*
X174367064Y-86555000D02*
X173912936Y-86555000D01*
%TO.C,Q1*%
X188490000Y-80297500D02*
X189490000Y-80297500D01*
X188490000Y-81817500D02*
X188490000Y-80297500D01*
X188540000Y-81817500D02*
X188490000Y-81817500D01*
X190440000Y-81817500D02*
X189660000Y-81817500D01*
X190610000Y-80297500D02*
X191610000Y-80297500D01*
X191610000Y-80297500D02*
X191610000Y-81817500D01*
X191610000Y-81817500D02*
X191560000Y-81817500D01*
X190000000Y-82597500D02*
X189670000Y-82357500D01*
X190000000Y-82117500D01*
X190000000Y-82597500D01*
G36*
X190000000Y-82597500D02*
G01*
X189670000Y-82357500D01*
X190000000Y-82117500D01*
X190000000Y-82597500D01*
G37*
%TO.C,D7*%
X171190000Y-82730000D02*
X165680000Y-82730000D01*
X171190000Y-86030000D02*
X165680000Y-86030000D01*
X171190000Y-86030000D02*
X171190000Y-82730000D01*
%TO.C,C2*%
X206445000Y-87988748D02*
X206445000Y-88511252D01*
X207915000Y-87988748D02*
X207915000Y-88511252D01*
%TO.C,R27*%
X165840000Y-107042064D02*
X165840000Y-105587936D01*
X167660000Y-107042064D02*
X167660000Y-105587936D01*
%TO.C,J3*%
X184820000Y-129090000D02*
X184820000Y-136390000D01*
X184820000Y-136390000D02*
X186560000Y-136390000D01*
X186560000Y-129090000D02*
X184820000Y-129090000D01*
X190620000Y-129090000D02*
X189280000Y-129090000D01*
X190620000Y-130580000D02*
X190620000Y-129090000D01*
X190620000Y-130580000D02*
X191820000Y-130580000D01*
X190620000Y-134900000D02*
X190620000Y-136390000D01*
X190620000Y-136390000D02*
X189280000Y-136390000D01*
%TO.C,R40*%
X174377064Y-87095000D02*
X173922936Y-87095000D01*
X174377064Y-88565000D02*
X173922936Y-88565000D01*
%TO.C,R47*%
X167522936Y-80705000D02*
X167977064Y-80705000D01*
X167522936Y-82175000D02*
X167977064Y-82175000D01*
%TO.C,C6*%
X185061248Y-104445000D02*
X185583752Y-104445000D01*
X185061248Y-105915000D02*
X185583752Y-105915000D01*
%TO.C,R44*%
X163955000Y-78162936D02*
X163955000Y-78617064D01*
X165425000Y-78162936D02*
X165425000Y-78617064D01*
%TO.C,R57*%
X139694564Y-120710000D02*
X138240436Y-120710000D01*
X139694564Y-122530000D02*
X138240436Y-122530000D01*
%TO.C,C21*%
X199155000Y-123838748D02*
X199155000Y-124361252D01*
X200625000Y-123838748D02*
X200625000Y-124361252D01*
%TO.C,D6*%
X172177500Y-93740000D02*
X166667500Y-93740000D01*
X172177500Y-97040000D02*
X166667500Y-97040000D01*
X172177500Y-97040000D02*
X172177500Y-93740000D01*
%TO.C,D2*%
X211490000Y-70350000D02*
X211490000Y-73650000D01*
X211490000Y-70350000D02*
X217000000Y-70350000D01*
X211490000Y-73650000D02*
X217000000Y-73650000D01*
%TO.C,J1*%
X173185000Y-66801000D02*
X173185000Y-61601000D01*
X203725000Y-61601000D02*
X173185000Y-61601000D01*
X203725000Y-64201000D02*
X203725000Y-61601000D01*
X206325000Y-61601000D02*
X204995000Y-61601000D01*
X206325000Y-62931000D02*
X206325000Y-61601000D01*
X206325000Y-64201000D02*
X203725000Y-64201000D01*
X206325000Y-66801000D02*
X173185000Y-66801000D01*
X206325000Y-66801000D02*
X206325000Y-64201000D01*
%TO.C,K2*%
D13*
X114812601Y-95788501D02*
X114812601Y-109631501D01*
X114812601Y-109631501D02*
X127157000Y-109631501D01*
X127157000Y-95788501D02*
X114812601Y-95788501D01*
X127157000Y-98260680D02*
X127157000Y-95788501D01*
X127157000Y-109631501D02*
X127157000Y-100359321D01*
D14*
X126711000Y-94010501D02*
G75*
G02*
X125949000Y-94010501I-381000J0D01*
G01*
X125949000Y-94010501D02*
G75*
G02*
X126711000Y-94010501I381000J0D01*
G01*
%TO.C,R43*%
D12*
X172475000Y-83117064D02*
X172475000Y-82662936D01*
X173945000Y-83117064D02*
X173945000Y-82662936D01*
%TO.C,D5*%
X182330000Y-72650000D02*
X182330000Y-75950000D01*
X182330000Y-72650000D02*
X187840000Y-72650000D01*
X182330000Y-75950000D02*
X187840000Y-75950000D01*
%TO.C,C11*%
X172275000Y-125978748D02*
X172275000Y-126501252D01*
X173745000Y-125978748D02*
X173745000Y-126501252D01*
%TO.C,R36*%
X172395000Y-120457936D02*
X172395000Y-120912064D01*
X173865000Y-120457936D02*
X173865000Y-120912064D01*
%TO.C,R39*%
X189822936Y-85675000D02*
X190277064Y-85675000D01*
X189822936Y-87145000D02*
X190277064Y-87145000D01*
%TO.C,C20*%
X181725000Y-112428748D02*
X181725000Y-112951252D01*
X183195000Y-112428748D02*
X183195000Y-112951252D01*
%TO.C,D1*%
X211010000Y-70350000D02*
X205500000Y-70350000D01*
X211010000Y-73650000D02*
X205500000Y-73650000D01*
X211010000Y-73650000D02*
X211010000Y-70350000D01*
%TO.C,R38*%
X185255000Y-82802936D02*
X185255000Y-83257064D01*
X186725000Y-82802936D02*
X186725000Y-83257064D01*
%TO.C,R_Shunt_2*%
X117455000Y-76990000D02*
X105895000Y-76990000D01*
X117455000Y-84190000D02*
X105895000Y-84190000D01*
%TO.C,K1*%
D13*
X94422601Y-96168501D02*
X94422601Y-110011501D01*
X94422601Y-110011501D02*
X106767000Y-110011501D01*
X106767000Y-96168501D02*
X94422601Y-96168501D01*
X106767000Y-98640680D02*
X106767000Y-96168501D01*
X106767000Y-110011501D02*
X106767000Y-100739321D01*
D14*
X106321000Y-94390501D02*
G75*
G02*
X105559000Y-94390501I-381000J0D01*
G01*
X105559000Y-94390501D02*
G75*
G02*
X106321000Y-94390501I381000J0D01*
G01*
%TO.C,C4*%
D12*
X206455000Y-92633752D02*
X206455000Y-92111248D01*
X207925000Y-92633752D02*
X207925000Y-92111248D01*
%TO.C,C7*%
X189025000Y-122526248D02*
X189025000Y-123048752D01*
X190495000Y-122526248D02*
X190495000Y-123048752D01*
%TO.C,C5*%
X165705000Y-111778748D02*
X165705000Y-112301252D01*
X167175000Y-111778748D02*
X167175000Y-112301252D01*
%TO.C,K3*%
D13*
X134682601Y-96028501D02*
X134682601Y-109871501D01*
X134682601Y-109871501D02*
X147027000Y-109871501D01*
X147027000Y-96028501D02*
X134682601Y-96028501D01*
X147027000Y-98500680D02*
X147027000Y-96028501D01*
X147027000Y-109871501D02*
X147027000Y-100599321D01*
D14*
X146581000Y-94250501D02*
G75*
G02*
X145819000Y-94250501I-381000J0D01*
G01*
X145819000Y-94250501D02*
G75*
G02*
X146581000Y-94250501I381000J0D01*
G01*
%TO.C,D3*%
D12*
X162710000Y-109397500D02*
X162710000Y-113807500D01*
X164930000Y-109397500D02*
X162710000Y-109397500D01*
X164930000Y-113807500D02*
X164930000Y-109397500D01*
%TO.C,C3*%
X206255000Y-94415000D02*
X206255000Y-98510000D01*
X208165000Y-94415000D02*
X206255000Y-94415000D01*
X208165000Y-98510000D02*
X208165000Y-94415000D01*
%TO.C,Y1*%
X175730000Y-108020000D02*
X176080000Y-108020000D01*
X176080000Y-107970000D02*
X179800000Y-107970000D01*
X176080000Y-108020000D02*
X176080000Y-107970000D01*
X176080000Y-110140000D02*
X175730000Y-110140000D01*
X176080000Y-111320000D02*
X176080000Y-110140000D01*
X176080000Y-113490000D02*
X176080000Y-113440000D01*
X179800000Y-107970000D02*
X179800000Y-108020000D01*
X179800000Y-110140000D02*
X179800000Y-111320000D01*
X179800000Y-113440000D02*
X179800000Y-113490000D01*
X179800000Y-113490000D02*
X176080000Y-113490000D01*
%TO.C,U11*%
X119180000Y-118160000D02*
X119480000Y-118160000D01*
X119180000Y-122780000D02*
X119180000Y-118160000D01*
X119480000Y-122780000D02*
X119180000Y-122780000D01*
X125600000Y-122780000D02*
X125900000Y-122780000D01*
X125900000Y-118160000D02*
X125600000Y-118160000D01*
X125900000Y-122780000D02*
X125900000Y-118160000D01*
X119480000Y-123225000D02*
X119150000Y-123465000D01*
X119150000Y-122985000D01*
X119480000Y-123225000D01*
G36*
X119480000Y-123225000D02*
G01*
X119150000Y-123465000D01*
X119150000Y-122985000D01*
X119480000Y-123225000D01*
G37*
%TO.C,R26*%
X163125000Y-106107936D02*
X163125000Y-106562064D01*
X164595000Y-106107936D02*
X164595000Y-106562064D01*
%TO.C,R9*%
X190065000Y-102207064D02*
X190065000Y-101752936D01*
X191535000Y-102207064D02*
X191535000Y-101752936D01*
%TO.C,R45*%
X167532936Y-78545000D02*
X167987064Y-78545000D01*
X167532936Y-80015000D02*
X167987064Y-80015000D01*
%TO.C,J4*%
X213655000Y-136395000D02*
X213655000Y-135760000D01*
X214290000Y-136395000D02*
X213655000Y-136395000D01*
%TO.C,C12*%
X155848748Y-75095000D02*
X156371252Y-75095000D01*
X155848748Y-76565000D02*
X156371252Y-76565000D01*
%TO.C,C10*%
X202481248Y-107065000D02*
X203003752Y-107065000D01*
X202481248Y-108535000D02*
X203003752Y-108535000D01*
%TO.C,R41*%
X172455000Y-91017064D02*
X172455000Y-90562936D01*
X173925000Y-91017064D02*
X173925000Y-90562936D01*
%TO.C,R_Shunt_3*%
X123340000Y-85290000D02*
X134900000Y-85290000D01*
X123340000Y-92490000D02*
X134900000Y-92490000D01*
%TO.C,C9*%
X184045000Y-117668748D02*
X184045000Y-118191252D01*
X185515000Y-117668748D02*
X185515000Y-118191252D01*
%TD*%
D15*
%TO.C,J2*%
X149385000Y-67045000D03*
X103660000Y-67045000D03*
%TD*%
%TO.C,J1*%
X210050000Y-65500000D03*
X169476000Y-65633000D03*
%TD*%
M02*
