%TF.GenerationSoftware,KiCad,Pcbnew,10.0.1*%
%TF.CreationDate,2026-05-25T19:28:02+01:00*%
%TF.ProjectId,caculateur,63616375-6c61-4746-9575-722e6b696361,1.0*%
%TF.SameCoordinates,Original*%
%TF.FileFunction,Soldermask,Bot*%
%TF.FilePolarity,Negative*%
%FSLAX46Y46*%
G04 Gerber Fmt 4.6, Leading zero omitted, Abs format (unit mm)*
G04 Created by KiCad (PCBNEW 10.0.1) date 2026-05-25 19:28:02*
%MOMM*%
%LPD*%
G01*
G04 APERTURE LIST*
G04 Aperture macros list*
%AMRoundRect*
0 Rectangle with rounded corners*
0 $1 Rounding radius*
0 $2 $3 $4 $5 $6 $7 $8 $9 X,Y pos of 4 corners*
0 Add a 4 corners polygon primitive as box body*
4,1,4,$2,$3,$4,$5,$6,$7,$8,$9,$2,$3,0*
0 Add four circle primitives for the rounded corners*
1,1,$1+$1,$2,$3*
1,1,$1+$1,$4,$5*
1,1,$1+$1,$6,$7*
1,1,$1+$1,$8,$9*
0 Add four rect primitives between the rounded corners*
20,1,$1+$1,$2,$3,$4,$5,0*
20,1,$1+$1,$4,$5,$6,$7,0*
20,1,$1+$1,$6,$7,$8,$9,0*
20,1,$1+$1,$8,$9,$2,$3,0*%
G04 Aperture macros list end*
%ADD10R,2.500000X1.500000*%
%ADD11O,2.500000X1.500000*%
%ADD12C,3.200000*%
%ADD13R,1.700000X1.700000*%
%ADD14C,1.700000*%
%ADD15C,2.108200*%
%ADD16C,1.498600*%
%ADD17C,1.701800*%
%ADD18C,2.006600*%
%ADD19C,0.990600*%
%ADD20RoundRect,0.250000X0.350000X0.450000X-0.350000X0.450000X-0.350000X-0.450000X0.350000X-0.450000X0*%
%ADD21RoundRect,0.250000X-0.350000X-0.450000X0.350000X-0.450000X0.350000X0.450000X-0.350000X0.450000X0*%
%ADD22RoundRect,0.250000X-0.325000X-0.650000X0.325000X-0.650000X0.325000X0.650000X-0.325000X0.650000X0*%
%ADD23RoundRect,0.250000X0.325000X0.650000X-0.325000X0.650000X-0.325000X-0.650000X0.325000X-0.650000X0*%
%ADD24RoundRect,0.137500X0.662500X0.137500X-0.662500X0.137500X-0.662500X-0.137500X0.662500X-0.137500X0*%
%ADD25RoundRect,0.250000X0.337500X0.475000X-0.337500X0.475000X-0.337500X-0.475000X0.337500X-0.475000X0*%
%ADD26RoundRect,0.250000X0.600000X-0.400000X0.600000X0.400000X-0.600000X0.400000X-0.600000X-0.400000X0*%
%ADD27RoundRect,0.250000X-0.600000X0.400000X-0.600000X-0.400000X0.600000X-0.400000X0.600000X0.400000X0*%
%ADD28RoundRect,0.150000X0.825000X0.150000X-0.825000X0.150000X-0.825000X-0.150000X0.825000X-0.150000X0*%
G04 APERTURE END LIST*
D10*
%TO.C,U1*%
X211940000Y-88300000D03*
D11*
X211940000Y-90840000D03*
X211940000Y-93380000D03*
%TD*%
D12*
%TO.C,J2*%
X149385000Y-67045000D03*
X103660000Y-67045000D03*
D13*
X144106000Y-64598000D03*
D14*
X139107000Y-64598000D03*
X134060000Y-64598000D03*
X129080000Y-64598000D03*
X124085000Y-64598000D03*
X119060000Y-64598000D03*
X114035000Y-64598000D03*
X109010000Y-64598000D03*
X141635000Y-69500000D03*
X136669000Y-69514000D03*
X131720000Y-69520000D03*
X126695000Y-69520000D03*
X121620000Y-69520000D03*
X116570000Y-69520000D03*
X111520000Y-69520000D03*
%TD*%
D12*
%TO.C,J1*%
X210050000Y-65500000D03*
X169476000Y-65633000D03*
D13*
X204995000Y-62931000D03*
D14*
X202455000Y-62931000D03*
X199915000Y-62931000D03*
X197375000Y-62931000D03*
X194835000Y-62931000D03*
X192295000Y-62931000D03*
X189755000Y-62931000D03*
X187215000Y-62931000D03*
X184675000Y-62931000D03*
X182135000Y-62931000D03*
X179595000Y-62931000D03*
X177055000Y-62931000D03*
X174515000Y-62931000D03*
X204995000Y-65471000D03*
X202455000Y-65471000D03*
X199915000Y-65471000D03*
X197375000Y-65471000D03*
X194835000Y-65471000D03*
X192295000Y-65471000D03*
X189755000Y-65471000D03*
X187215000Y-65471000D03*
X184675000Y-65471000D03*
X182135000Y-65471000D03*
X179595000Y-65471000D03*
X177055000Y-65471000D03*
X174515000Y-65471000D03*
%TD*%
D15*
%TO.C,K2*%
X126330000Y-99310000D03*
D16*
X124380000Y-96660000D03*
D17*
X120980000Y-96660000D03*
D18*
X117030000Y-97460000D03*
D15*
X117630000Y-101960000D03*
X115630000Y-106110000D03*
D16*
X117580000Y-108760000D03*
D17*
X120980000Y-108760000D03*
D18*
X125530000Y-107960000D03*
D15*
X124930000Y-103460000D03*
%TD*%
%TO.C,K1*%
X105940000Y-99690000D03*
D16*
X103990000Y-97040000D03*
D17*
X100590000Y-97040000D03*
D18*
X96640000Y-97840000D03*
D15*
X97240000Y-102340000D03*
X95240000Y-106490000D03*
D16*
X97190000Y-109140000D03*
D17*
X100590000Y-109140000D03*
D18*
X105140000Y-108340000D03*
D15*
X104540000Y-103840000D03*
%TD*%
%TO.C,K3*%
X146200000Y-99550000D03*
D16*
X144250000Y-96900000D03*
D17*
X140850000Y-96900000D03*
D18*
X136900000Y-97700000D03*
D15*
X137500000Y-102200000D03*
X135500000Y-106350000D03*
D16*
X137450000Y-109000000D03*
D17*
X140850000Y-109000000D03*
D18*
X145400000Y-108200000D03*
D15*
X144800000Y-103700000D03*
%TD*%
D19*
%TO.C,J4*%
X213020000Y-135125000D03*
X218100000Y-134109000D03*
X218100000Y-136141000D03*
%TD*%
D20*
%TO.C,R48*%
X110645000Y-132905000D03*
X108645000Y-132905000D03*
%TD*%
%TO.C,R30*%
X173120000Y-97772500D03*
X171120000Y-97772500D03*
%TD*%
%TO.C,R7*%
X185680000Y-86490000D03*
X183680000Y-86490000D03*
%TD*%
%TO.C,R11*%
X185740000Y-95187500D03*
X183740000Y-95187500D03*
%TD*%
%TO.C,R20*%
X173100000Y-86580000D03*
X171100000Y-86580000D03*
%TD*%
%TO.C,R25*%
X158120000Y-89100000D03*
X156120000Y-89100000D03*
%TD*%
%TO.C,R15*%
X200620000Y-95127500D03*
X198620000Y-95127500D03*
%TD*%
%TO.C,R21*%
X173080000Y-90360000D03*
X171080000Y-90360000D03*
%TD*%
%TO.C,R19*%
X173130000Y-84050000D03*
X171130000Y-84050000D03*
%TD*%
%TO.C,R1*%
X200650000Y-81410000D03*
X198650000Y-81410000D03*
%TD*%
D21*
%TO.C,R55*%
X96135000Y-128205000D03*
X98135000Y-128205000D03*
%TD*%
D20*
%TO.C,R28*%
X173200000Y-92702500D03*
X171200000Y-92702500D03*
%TD*%
D22*
%TO.C,C16*%
X120905000Y-73680000D03*
X123855000Y-73680000D03*
%TD*%
D23*
%TO.C,C15*%
X113970000Y-73650000D03*
X111020000Y-73650000D03*
%TD*%
D20*
%TO.C,R16*%
X200620000Y-97667500D03*
X198620000Y-97667500D03*
%TD*%
%TO.C,R34*%
X158240000Y-97782500D03*
X156240000Y-97782500D03*
%TD*%
D23*
%TO.C,C17*%
X128450000Y-73680000D03*
X125500000Y-73680000D03*
%TD*%
D20*
%TO.C,R3*%
X200610000Y-86550000D03*
X198610000Y-86550000D03*
%TD*%
%TO.C,R14*%
X200610000Y-92617500D03*
X198610000Y-92617500D03*
%TD*%
D24*
%TO.C,U3*%
X195420000Y-81415000D03*
X195420000Y-82685000D03*
X195420000Y-83955000D03*
X195420000Y-85225000D03*
X195420000Y-86495000D03*
X195420000Y-87765000D03*
X195420000Y-89035000D03*
X195420000Y-90305000D03*
X188920000Y-90305000D03*
X188920000Y-89035000D03*
X188920000Y-87765000D03*
X188920000Y-86495000D03*
X188920000Y-85225000D03*
X188920000Y-83955000D03*
X188920000Y-82685000D03*
X188920000Y-81415000D03*
%TD*%
%TO.C,U5*%
X167910000Y-81485000D03*
X167910000Y-82755000D03*
X167910000Y-84025000D03*
X167910000Y-85295000D03*
X167910000Y-86565000D03*
X167910000Y-87835000D03*
X167910000Y-89105000D03*
X167910000Y-90375000D03*
X161410000Y-90375000D03*
X161410000Y-89105000D03*
X161410000Y-87835000D03*
X161410000Y-86565000D03*
X161410000Y-85295000D03*
X161410000Y-84025000D03*
X161410000Y-82755000D03*
X161410000Y-81485000D03*
%TD*%
D25*
%TO.C,C13*%
X110710000Y-130885000D03*
X108635000Y-130885000D03*
%TD*%
D20*
%TO.C,R6*%
X185680000Y-83940000D03*
X183680000Y-83940000D03*
%TD*%
%TO.C,R18*%
X173160000Y-81390000D03*
X171160000Y-81390000D03*
%TD*%
D21*
%TO.C,R54*%
X96105000Y-130205000D03*
X98105000Y-130205000D03*
%TD*%
D20*
%TO.C,R33*%
X158270000Y-95232500D03*
X156270000Y-95232500D03*
%TD*%
%TO.C,R4*%
X200590000Y-89060000D03*
X198590000Y-89060000D03*
%TD*%
D21*
%TO.C,R52*%
X96085000Y-132195000D03*
X98085000Y-132195000D03*
%TD*%
D20*
%TO.C,R23*%
X158090000Y-84030000D03*
X156090000Y-84030000D03*
%TD*%
%TO.C,R17*%
X200570000Y-100237500D03*
X198570000Y-100237500D03*
%TD*%
%TO.C,R32*%
X158290000Y-92692500D03*
X156290000Y-92692500D03*
%TD*%
D21*
%TO.C,R53*%
X100655000Y-125145000D03*
X102655000Y-125145000D03*
%TD*%
D20*
%TO.C,R5*%
X185680000Y-81410000D03*
X183680000Y-81410000D03*
%TD*%
%TO.C,R2*%
X200630000Y-83970000D03*
X198630000Y-83970000D03*
%TD*%
D26*
%TO.C,D9*%
X96305000Y-126012500D03*
X96305000Y-122512500D03*
%TD*%
D20*
%TO.C,R29*%
X173160000Y-95262500D03*
X171160000Y-95262500D03*
%TD*%
%TO.C,R49*%
X110685000Y-128835000D03*
X108685000Y-128835000D03*
%TD*%
D25*
%TO.C,C18*%
X104600000Y-134265000D03*
X102525000Y-134265000D03*
%TD*%
D20*
%TO.C,R35*%
X158210000Y-100312500D03*
X156210000Y-100312500D03*
%TD*%
%TO.C,R31*%
X173090000Y-100322500D03*
X171090000Y-100322500D03*
%TD*%
%TO.C,R13*%
X185760000Y-100247500D03*
X183760000Y-100247500D03*
%TD*%
D22*
%TO.C,C14*%
X115700000Y-73650000D03*
X118650000Y-73650000D03*
%TD*%
D20*
%TO.C,R22*%
X158120000Y-81480000D03*
X156120000Y-81480000D03*
%TD*%
D24*
%TO.C,U4*%
X195470000Y-92605000D03*
X195470000Y-93875000D03*
X195470000Y-95145000D03*
X195470000Y-96415000D03*
X195470000Y-97685000D03*
X195470000Y-98955000D03*
X195470000Y-100225000D03*
X195470000Y-101495000D03*
X188970000Y-101495000D03*
X188970000Y-100225000D03*
X188970000Y-98955000D03*
X188970000Y-97685000D03*
X188970000Y-96415000D03*
X188970000Y-95145000D03*
X188970000Y-93875000D03*
X188970000Y-92605000D03*
%TD*%
D27*
%TO.C,D8*%
X115855000Y-127095000D03*
X115855000Y-130595000D03*
%TD*%
D20*
%TO.C,R50*%
X106655000Y-125145000D03*
X104655000Y-125145000D03*
%TD*%
D28*
%TO.C,U9*%
X106075000Y-128335000D03*
X106075000Y-129605000D03*
X106075000Y-130875000D03*
X106075000Y-132145000D03*
X101125000Y-132145000D03*
X101125000Y-130875000D03*
X101125000Y-129605000D03*
X101125000Y-128335000D03*
%TD*%
D20*
%TO.C,R8*%
X185710000Y-89040000D03*
X183710000Y-89040000D03*
%TD*%
%TO.C,R24*%
X158140000Y-86550000D03*
X156140000Y-86550000D03*
%TD*%
D24*
%TO.C,U6*%
X167910000Y-92692500D03*
X167910000Y-93962500D03*
X167910000Y-95232500D03*
X167910000Y-96502500D03*
X167910000Y-97772500D03*
X167910000Y-99042500D03*
X167910000Y-100312500D03*
X167910000Y-101582500D03*
X161410000Y-101582500D03*
X161410000Y-100312500D03*
X161410000Y-99042500D03*
X161410000Y-97772500D03*
X161410000Y-96502500D03*
X161410000Y-95232500D03*
X161410000Y-93962500D03*
X161410000Y-92692500D03*
%TD*%
D20*
%TO.C,R12*%
X185740000Y-97687500D03*
X183740000Y-97687500D03*
%TD*%
%TO.C,R51*%
X110695000Y-126825000D03*
X108695000Y-126825000D03*
%TD*%
%TO.C,R10*%
X185760000Y-92607500D03*
X183760000Y-92607500D03*
%TD*%
M02*
